<mxfile host="app.diagrams.net" modified="2022-02-17T10:07:30.878Z" agent="5.0 (Windows NT 10.0; Win64; x64) AppleWebKit/537.36 (KHTML, like Gecko) Chrome/98.0.4758.102 Safari/537.36" etag="9k4cbFGEa5niODKQUFfL" version="16.5.4" type="github">
  <diagram id="dkCtftNh0MKHazhGEmDR" name="Page-1">
    <mxGraphModel dx="1578" dy="1873" grid="1" gridSize="10" guides="1" tooltips="1" connect="1" arrows="1" fold="1" page="1" pageScale="1" pageWidth="850" pageHeight="1100" math="0" shadow="0">
      <root>
        <mxCell id="0" />
        <mxCell id="1" parent="0" />
        <mxCell id="0snvxb2lFq1mI06aFBgq-1" value="" style="shape=image;verticalLabelPosition=bottom;labelBackgroundColor=default;verticalAlign=top;aspect=fixed;imageAspect=0;image=data:image/png,iVBORw0KGgoAAAANSUhEUgAABuAAAAVQCAYAAAC6apxwAAAABGdBTUEAALGPC/xhBQAAACBjSFJNAAB6JgAAgIQAAPoAAACA6AAAdTAAAOpgAAA6mAAAF3CculE8AAAABmJLR0QA/wD/AP+gvaeTAAAACXBIWXMAABibAAAYmwFJdYOUAACAAElEQVR42uzdYWicZ4In+H86dcepNzN91VpM0Gxvh7iOvtkxRsGK2gzWmqbtlAY3GvtGWdc1vWyckVtsFBon7Vw3SM3sEAkyODM2pt2Nxt44H0KQiYcEQWhV7DAY+4OjVmid8THMUQ7em2sxGLSiZ3pOd9cVfB9yqoki27GTskuWfj8ISG899db/LZUduf71PM8D169fvx4AAAAAAACgKb7Q6gAAAAAAAACwlijgAAAAAAAAoIkUcAAAAAAAANBECjgAAAAAAABoIgUcAAAAAAAANJECDgAAAAAAAJpIAQcAAAAAAABNpIADAAAAAACAJlLAAQAAAAAAQBMp4AAAAAAAAKCJFHAAAAAAAADQRAo4AAAAAAAAaCIFHAAAAAAAADSRAg4AAAAAAACaSAEHAAAAAAAATaSAAwAAAAAAgCZSwAEAAAAAAEATKeAAAAAAAACgiRRwAAAAAAAA0EQKOAAAAAAAAGgiBRwAAAAAAAA0kQIOAAAAAAAAmkgBBwAAAAAAAE2kgAMAAAAAAIAmUsABAAAAAABAEyngAAAAAAAAoIkUcAAAAAAAANBECjgAAAAAAABoIgUcAAAAAAAANJECDgAAAAAAAJpIAQcAAAAAAABNpIADAAAAAACAJlLAAQAAAAAAQBMp4AAAAAAAAKCJFHAAAAAAAADQRAo4AAAAAAAAaCIFHAAAAAAAADSRAg4AAAAAAACaSAEHAAAAAAAATaSAAwAAAAAAgCZSwAEAAAAAAEATKeAAAAAAAACgiRRwAAAAAAAA0EQKOAAAAAAAAGgiBRwAAAAAAAA0kQIOAAAAAAAAmkgBBwAAAAAAAE2kgAMAAAAAAIAmUsABAAAAAABAEyngAAAAAAAAoIkUcAAAAAAAANBECjgAAAAAAABoIgUcAAAAAAAANJECDgAAAAAAAJpIAQcAAAAAAABNpIADAAAAAACAJlLAAQAAAAAAQBMp4AAAAAAAAKCJFHAAAAAAAADQRAo4AAAAAAAAaCIFHAAAAAAAADSRAg4AAAAAAACaSAEHAAAAAAAATaSAAwAAAAAAgCZSwAEAAAAAAEATKeAAAAAAAACgiRRwAAAAAAAA0EQKOAAAAAAAAGgiBRwAAAAAAAA0kQIOAAAAAAAAmkgBBwAAAAAAAE2kgAMAAAAAAIAmUsABAAAAAABAEyngAAAAAAAAoIkUcAAAAAAAANBECjgAAAAAAABoIgUcAAAAAAAANJECDgAAAAAAAJpIAQcAAAAAAABNpIADAAAAAACAJlLAAQAAAAAAQBMp4AAAAAAAAKCJFHAAAAAAAADQRAo4AAAAAAAAaCIFHAAAAAAAADSRAg4AAAAAAACaSAEHAAAAAAAATaSAAwAAAAAAgCZSwAEAAAAAAEATKeAAAAAAAACgiRRwAAAAAAAA0EQKOAAAAAAAAGgiBRwAAAAAAAA0kQIOAAAAAAAAmkgBBwAAAAAAAE2kgAMAAAAAAIAmUsABAAAAAABAEyngAAAAAAAAoIkUcAAAAAAAANBECjgAAAAAAABoIgUcAAAAAAAANJECDgAAAAAAAJpIAQcAAAAAAABNpIADAAAAAACAJlLAAQAAAAAAQBMp4AAAAAAAAKCJFHAAAAAAAADQRAo4AAAAAAAAaCIFHAAAAAAAADSRAg4AAAAAAACaSAEHAAAAAAAATaSAAwAAAAAAgCZSwAEAAAAAAEATKeAAAAAAAACgiRRwAAAAAAAA0EQKOAAAAAAAAGgiBRwAAAAAAAA0kQIOAAAAAAAAmkgBBwAAAAAAAE2kgAMAAAAAAIAmUsABAAAAAABAEyngAAAAAAAAoIkUcAAAAAAAANBECjgAAAAAAABoIgUcAAAAAAAANJECDgAAAAAAAJpIAQcAAAAAAABNpIADAAAAAACAJlLAAQAAAAAAQBMp4AAAAAAAAKCJFHAAAAAAAADQRAo4AAAAAAAAaCIFHAAAAAAAADSRAg4AAAAAAACaSAEHAAAAAAAATaSAAwAAAAAAgCZSwAEAAAAAAEATKeAAAAAAAACgiRRwAAAAAAAA0EQKOAAAAAAAAGgiBRwAAAAAAAA0kQIOAAAAAAAAmkgBBwAAAAAAAE2kgAMAAAAAAIAmUsABAAAAAABAEyngAAAAAAAAoIkUcAAAAAAAANBECjgAAAAAAABoIgUcAAAAAAAANJECDgAAAAAAAJpIAQcAAAAAAABNpIADAAAAAACAJlLAAQAAAAAAQBMp4AAAAAAAAKCJFHAAAAAAAADQRAo4AAAAAAAAaCIFHAAAAAAAADSRAg4AAAAAAACaSAEHAAAAAAAATaSAAwAAAAAAgCZSwAEAAAAAAEATKeAAAAAAAACgiRRwAAAAAAAA0EQKOAAAAAAAAGgiBRwAAAAAAAA0kQIOAAAAAAAAmkgBBwAAAAAAAE2kgAMAAAAAAIAmUsABAAAAAABAEyngAAAAAAAAoIkUcAAAAAAAANBECjgAAAAAAABoIgUcAAAAAAAANJECDgAAAAAAAJpIAQcAAAAAAABNpIADAAAAAACAJlLAAQAAAAAAQBMp4AAAAAAAAKCJFHAAAAAAAADQRAo4AAAAAAAAaCIFHAAAAAAAADSRAg4AAAAAAACaSAEHAAAAAAAATaSAAwAAAAAAgCZSwAEAAAAAAEATKeAAAAAAAACgiRRwAAAAAAAA0EQKOAAAAAAAAGgiBRwAAAAAAAA0kQIOAAAAAAAAmkgBBwAAAAAAAE2kgAMAAAAAAIAmUsABAAAAAABAEyngAAAAAAAAoIkUcAAAAAAAANBECjgAAAAAAABoIgUcAAAAAAAANJECDgAAAAAAAJpIAQcAAAAAAABNpIADAAAAAACAJlLAAQAAAAAAQBMp4AAAAAAAAKCJFHAAAAAAAADQRAo4AAAAAAAAaCIFHAAAAAAAADSRAg4AAAAAAACaSAEHAAAAAAAATaSAAwAAAAAAgCZSwAEAAAAAAEATKeAAAAAAAACgiRRwAAAAAAAA0EQKOAAAAAAAAGgiBRwAAAAAAAA0kQIOAAAAAAAAmkgBBwAAAAAAAE2kgAMAAAAAAIAmUsABAAAAAABAEyngAAAAAAAAoIkUcAAAAAAAANBECjgAAAAAAABoIgUcAAAAAAAANFGh1QEAAABY++bm5vLBBx/k17/+daujcAMPPfRQHn300XR0dLQ6CgAArAkKOAAAAJpuYWEh77zzTs6dO5fp6ekkSXt7e7q6ulodjRuYmZnJ/Px8kqS7uzvbt2/PE088kWKx2OpoAABwX3rg+vXr11sdAgAAgPtfvV7P2bNn8+qrr6ZWq6VUKmXPnj3p6enJhg0bUij4DOhqVq/Xc+3atZw/fz5vvvlm42f41FNPZceOHX5+AABwBxRwAAAAfC71ej0nT57M6dOnkyTPPfdctm/fnra2tlZH43NYXFzMuXPncvjw4SRJf39/9u3bp4gDAIDboIADAADgM7tw4UJefPHFFIvF/PCHP8ymTZsUNGtMvV7P5cuX89JLL2VhYSE/+tGPsm3btlbHAgCAVU0BBwAAwB1bXFzM97///UxPT2d0dNQShevA0hKjIyMj6e7uzp//+Z+b5QgAADfxhVYHAAAA4P5Sq9Wye/fuJMmZM2fS29urfFsHCoVCent7c+bMmSTJ7t27U6vVWh0LAABWJQUcAAAAt+3UqVOpVCrp7+/P0aNHUywWWx2Je6xYLObo0aPp7+9PpVLJqVOnWh0JAABWHUtQAgAAcFuOHz+e8fHxnDhxIp2dna2OwyowOzubgYGBDA4OZv/+/a2OAwAAq4Y1QgAAAPhUyjdupLOzMydOnMjAwECSKOEAAOD/p4ADAADglpbKt8nJyXR0dLQ6DqtMZ2dnJicn09fXl0QJBwAAiT3gAAAAuIULFy40Zr4p37iZjo6OnDhxIuPj47lw4UKr4wAAQMvZAw4AAIAbqtVqqVQqlp3kti3tCTcxMZFSqdTqOAAA0DJmwAEAALDC4uJihoaGMjg4qHzjtnV2dmZwcDBDQ0NZXFxsdRwAAGgZM+AAAABYYXh4OAsLCzl69GgKBduHc/vq9Xq+973vpVgsZmxsrNVxAACgJcyAAwAAYJmpqalUq9WMjY0p37hjhUIhY2NjqVarmZqaanUcAABoCQUcAAAADfV6PYcPH87o6GiKxWKr43CfKhaLGR0dzeHDh1Ov11sdBwAA7jkFHAAAAA0nT55MsVjMjh07Wh2F+9yOHTtSLBZz8uTJVkcBAIB7zh5wAAAAJEnm5ubS19eXiYmJlEqlVsdhDajVaqlUKpmcnExHR0er4wAAwD1jBhwAAABJkmPHjqVcLivfaJpSqZRyuZxjx461OgoAANxTCjgAAACysLCQarWaoaGhVkdZlmlubu6unHtubq4p5252xmblWjrXwsJC07J9VkNDQ6lWq6siCwAA3CuWoAQAACDHjx/P1atXMzY2dtceY3Z2Nm+88caK45s3b05PT8+KJQqHh4dTrVYzMzPT9CxdXV1J8rnP3eyMzcq1dK5yuXxXf6a3a3h4OI888kj279/f6igAAHBPFFodAAAAgNaq1+sZHx/PiRMn7urj/P3f/32q1eqK49VqNYcOHVo1ZVErjY6ONvVcDz/8cKsvKUny5JNPZmBgIPv27Uuh4K0IAADWPktQAgAArHMXL15Me3t7Ojs778njTU5OZmZmpvHf4OBgko+KuLu15OT9ore3N729vU071736mX6azs7OtLe35+LFi62OAgAA94SPnQEAAKxzP/7xj/P000+37PH379+fq1evplqt5tKlSyuWovy4xcXFnDt3Lq+++mqS5Kmnnsr27dvT1ta2YtyxY8ca+4719PR8arG1tETm5s2bs3fv3js+z9zcXJ5//vl8+ctfzne/+91s2rRp2WyvCxcu5OLFizlz5kySpL+/P7t27Vp2vcPDw0nSmAk4PDzcyFOr1TIyMpIvf/nL+fa3v52tW7fecjbZx+/7ye9nZ2fzgx/8IF1dXXnyySdXZL0bnn766fz4xz/Otm3b7urjAADAamAGHAAAwDq2sLCQWq2WJ554omUZZmdnG0tTfv3rX7/puAsXLqSnpycjIyPZuHFjNm7cmJGRkfT09GR2dnbZNe3evTsTExNZWFjIzMxMRkZG8swzz6Rer980w8DAQBYWFvJHf/RHd3ye4eHhPP/88/nmN7+ZK1euZGBgYNlsr7m5uRw4cCAzMzN5+umns3PnzoyPj6evry+Li4uNcdVqddkyndVqNW+++WaGh4czMjLSOP+BAwc+dTbZUqF5o3O99NJL6e/vT7VazcDAQK5evXrXf85PPPFEarVao8wEAIC1zAw4AACAdey9995LqVRKsVi8Z4/59ttv5ytf+UqS5Fe/+lUOHTqUJBkcHLxljhdffDHJR0tYLs0aGxoaSl9fX954443GcovDw8OZn59vjFtYWEilUsn09HQuXry4YgbW3NxcBgYG0t7enqNHjzZmgt3JeR555JHGrLXvfOc76enpyeuvv94Y8/rrrydJ/uIv/qKRfevWrTlw4EDOnTt3y9l5tVot3/zmNxvn7+/vz86dO/Ozn/3sjmeT1Wq1PPXUU41zfeMb30ilUslf//Vfp1Qq3dWfe7FYTKlUynvvvde0ZTYBAGC1UsABAACsY5OTk9mzZ889fczx8fEVx0qlUh5//PGb3mdubi7z8/MplUrLlmzs6OhIuVxOtVrN2NhY6vV6pqen093d3RhXLBbz9ttv59q1ayuWt1xYWMi+ffvS3t6eiYmJRvl2p+fZtWtX4+u2tra0t7dnenq6cezgwYM5ePDgsvs8+uijSZLz589/aiHV39/f+HqppFy65ju1Y8eOxte/8zu/kyT3ZAZckuzZsyeTk5MKOAAA1jwFHAAAwDq1VDI9//zz9/Rxjxw50iifkuTatWt54403MjAwkBdeeKGxZ9mNdHV1rTj2yCOPJPlodtcXv/jFJFl2/iQpFAo33FuuUqlkfn4+J06cWDb77tq1a3d0nk8e6+rqWraUZL1ez8mTJxt73d2pZs1Q7O7uXrbX2yf3zrvbtmzZkkOHDqVer9/1PecAAKCV/LYLAACwTi3NerrbSw9+0qOPPrpiFtumTZtSrVbzyiuv3LKAu1t+8IMf5O23375rpdCuXbsyPz+f9vb2RgH5wQcf5MCBA/f0Ou/lUqM3svRau3r16j1/3QEAwL30hVYHAAAAoDVqtVq6u7tbHSPJRzPLSqVS5ufns7CwsOL2pcLugw8+WHHbUpH4xS9+MR0dHWlvb18xrl6vZ25ubsW5JyYmMjo6mvn5+Xzve99b9nh3cp5bWVhYaJRvExMT2bZtWzo6OvLrX/+61U97S3R3d6dWq7U6BgAA3FUKOAAAgHXq/Pnzeeyxx1odI8lHZWCtVkupVLrpLK1KpZLp6eksLi42ji0uLqZaraa9vT0bNmxIkuzcuTPT09OZm5trjDt79mz6+vry3nvvLTtnsVhMb29vyuVypqenc+rUqcZtd3KeW/l43v/uv/vvknxU5E1OTiZJrly5knq93uofwT3z2GOP5fz5862OAQAAd5UlKAEAANapmZmZPPnkk/f8cUdHR5eVbFeuXGnMiHr22Wdver8dO3ZkYmIiPT09GRwcTJKMj48nSZ577rnG8pG7d+/OxMRE+vr6GuNOnz6d9vb27Nix44bn/tM//dPMzMzk0KFD2bJlS0ql0mc6z410dHSkVCqlVqvl+9//fh577LGMj4+nu7u7cXzXrl1566237vnPohUef/zxnD59utUxAADgrlLAAQAArFPz8/ONWWP30vT0dOPr7u7ubNy4Md/85jfzne98J21tbTe9X2dnZ86fP5/Jycm88sorSZIXXnghTzzxxLJCr1QqrRjX39+fXbt23XSPt0KhkJMnT6avry9DQ0N56623PtN5bmZ0dDQnT55MtVrNlStXMjg4mH379uXq1as5efJkktzRspb3sw0bNmR+fr7VMQAA4K564Pr169dbHQIAAIB7a25uLn19fbl48eIdl0mrQb1ev63ctzvufjvP/axer2fr1q2ZnJxs7O0HAABrjT3gAAAA1rH7tQy63dzNur7Vdp77mecAAID1QAEHAACwDl26dCnd3d2tjsE61d3dnUuXLrU6BgAA3DUKOAAAgHXq4/umwb3ktQcAwFqngAMAAAAAAIAmUsABAAAAAABAEyngAAAA1qFf/epXrY7AOuc1CADAWqaAAwAAAAAAgCZSwAEAAKxDX/rSl1od4ZZOnTqV4eHhVfm4rcq21qz21yAAAHweCjgAAABWnUuXLqVarbb8cev1eubm5lZFNgAA4P6hgAMAAICbuHjxYvr6+lodAwAAuM8UWh0AAACA1lhYWGh1hNu2NAuto6PjlmOuXbuWr371qykWizccU6/Xc/Xq1STJI488kkLh5v8sXlhYyMWLFxvnbmtru+F5b3XbJ/Nv2LDhho+5uLiYX/7ylzfN9fHHWFxczP/9f//fKx6vVqslSdrb22+ZZTW4n157AADwWSjgAAAA1qHNmzdnZGSk1TE+1eLiYo4dO5aJiYkkSXd3d8bGxhoFU71ez8WLF/PjH/+4UUAtjTt69OiyIuuZZ57J9PT0svNXKpUcPHjwho/98ssvN5aa7OvrS7lcztjY2LJso6OjjTHlcjkjIyNpa2trjLlw4UIOHDjQ+L5UKuWnP/3psvzf+973PjVXX19furu789hjj2V8fLyRpV6v5+zZs3n11VeXXX+lUsmBAwduWTC20vT09H3x+gMAgM/KEpQAAADrWL1eb3WEW9q3b182bdqUycnJDA4OZnp6OqdPn27cfvHixRw4cCBf/vKXMzk5mcnJyVQqlUxPT+fIkSONcVNTU5menk6lUsmZM2cyMTGR7u7uTExMrNjjbcnBgwfT3d2dJJmcnFxR1O3evTs9PT2NbNVqNZOTk43bT506lQMHDqRUKuXEiRPp7u5OrVbLzp07G4959uzZTE9P54UXXliR65OzxJauvVKp5Mknn0yS/NVf/VVGRkaWXX+5XM7ExEROnjzZ6h/fDa321xwAADSDAg4AAGAdWlrK8dq1a62OckvPPvtsent709HRkf379yfJsgLuZz/7Wdrb23P06NF0dHSko6OjUZxNTExkcXExSfLwww9ndHQ0Q0NDKRaLKZVKjRlYb7/99g0fu1gsNmaqdXR0rFjW8c/+7M8a2fbt25ckefPNNxu3v/LKK2lvb8/ExEQ6Ozvzk5/8JC+88ELK5fKy5310dDR/9Ed/1Mj1/PPPr7jOJc8991wOHjyYzs7OxuOVSqVl1z82Npb29vYb3n81WLr2Wy0nCgAA97vVuRYFAAAAd117e3uuXbu2qouQLVu2LPu+u7u7sVxjvV5PtVpNd3f3iiLx0UcfzfT0dBYWFtLW1pbOzs4sLi5mYWEhCwsL+eCDD/I3f/M3SdLYE+5Ofe1rX2t8XSgUUiqVGstALiwsZH5+PuVyedl99u7dm7179za+7+3tzeLiYiP/p+Xavn174+vFxcXUarUVhV6SbNy4MdPT05mbm1t1P99r166lvb291TEAAOCuUsABAACsU11dXfn5z3/emE21Gn18P7Uky2ahLZVO09PT6evru+H9/6//6/9KkszOzuYHP/hB5ufnG7d93hLok9k2btzYKOCWZt5t3rz5lue4cOFCXnzxxWW5SqXSbT3m+++/nySpVquNfejuBz//+c/T1dXV6hgAAHBXKeAAAADWqaX9y+533d3djeUkP2mpsBsYGEiSVCqVxl5utVotlUrlrmRaetxLly4tm/H2cfV6PQcOHEiSDA4ONpbYnJ2dbeS9lYcffvhTr3/Dhg135fo+j1/84hc3LUwBAGCtUMABAACsU6VSqbGc4/1oqeSanp5esczi4uJiY7bY3Nxc43qXCq/kn2eQ3Q1tbW0plUq5cuXKsuNzc3M5duxY9u3bly9+8YuNXEt7yCUfzRC7HUv3v3Llyi2vf7WZnp5u7HMHAABr1RdaHQAAAIDWeOSRR5KksWzi/aatra2xx9rx48ezuLiYer2e48ePp6enJ5VKJfV6vVHU1Wq1XL58OfV6PRcuXMgrr7yS5KMlHGdnZ2/4GEv3vdntt7Jnz57UarUcP3489Xo99Xo9x44dS7VazRe/+MUb5pqamsrp06c/NVeSdHR0pFQqZX5+PlNTU6nX61lcXMzLL7/cuP7VZum1tvTaAwCAtcoMOAAAgHWqUCiku7s777///i33HVvNDh48mGKxmPHx8YyPj6e9vb2xn9pf/MVfpFAopFAopFKpZGJiIgMDA40xL7zwQv7hH/4h4+PjGRgYyJkzZ1ac/9vf/nbjfkkyMzNz29meeOKJXLp0KePj4zl9+nQjV7lcbsxY6+7uzvT09LJcR44cyd/8zd/cMteSn/70p3n55ZczMjKSw4cPJ0nm5+fT3t6en/70p63+8azw/vvvp7u7O4WCtyMAAFjbHrh+/fr1VocAAACgNaampvLqq69mYmKi1VGWmZ2dzd///d+nt7f3to4vLi7m3LlzuXz5crZu3Zrf+73fa8ww+/h9z549m6985Svp6elJR0dH435Jsn379vzt3/7tivMvPWaS9Pb2fqZsr732Wn77t387TzzxxLJc9Xo9ly9f/tRcS19/8twff4zJycn8wz/8Qx5//PF89atfXXH9q0GlUslTTz110+sAAIC1QgEHAACwji0sLGTnzp05c+bMqixsWDu81gAAWE/sAQcAALCOFYvFlEqlvPPOO62Owhr3zjvvpFQqKd8AAFgXFHAAAADr3LPPPptXXnml1TFY41555ZU8++yzrY4BAAD3hAIOAABgndu6dWvm5+czOzvb6iisUbOzs5mfn8/WrVtbHQUAAO4JBRwAAMA6VygUMjg4mDfeeKPVUVij3njjjQwODqZQKLQ6CgAA3BMKOAAAANLf359qtZq5ublWR2GNmZubS7VaTX9/f6ujAADAPaOAAwAAIMViMeVyOceOHWt1FNaYY8eOpVwup1gstjoKAADcMwo4AAAAkiRDQ0OpVqup1WqtjsIaUavVUq1WMzQ01OooAABwTyngAAAASJJ0dHRkcHAwIyMjqdfrrY7Dfa5er2dkZCSDg4Pp6OhodRwAALinFHAAAAA07Nu3LwsLCzl79myro3CfO3v2bBYWFrJv375WRwEAgHtOAQcAAEBDoVDIc889l5GRkSwsLLQ6DvephYWFjIyM5LnnnkuhUGh1HAAAuOceuH79+vVWhwAAAGB1GR4ezsLCQo4ePapA4Y7U6/V873vfS7FYzNjYWKvjAABAS5gBBwAAwAojIyO5cuVKTp482eoo3GdOnjyZK1euZGRkpNVRAACgZRRwAAAArNDW1pZjx45lfHw8s7OzrY7DfWJ2djbj4+M5duxY2traWh0HAABaRgEHAADADZVKpRw5ciQDAwNKOD7V7OxsBgYGcuTIkZRKpVbHAQCAllLAAQAAcFPbtm3L4OBgBgYGMjc31+o4rFJzc3MZGBjI4OBgtm3b1uo4AADQcgo4AAAAbmn//v0ZHBxMX1+fmXCsMDs7m76+vgwODmb//v2tjgMAAKtCodUBAAAAWP2WipWBgYGcOHEinZ2drY7EKrC07KTyDQAAlnvg+vXr11sdAgAAgPvDqVOncujQoQwODmbfvn0pFHyucz2q1+s5efJkxsfH88ILL2Tv3r2tjgQAAKuKAg4AAIA7UqvVMjQ0lI0bN2ZsbCzFYrHVkbiHFhYWMjw8nCtXruTYsWMplUqtjgQAAKuOPeAAAAC4I6VSKW+99VaSZOfOnZmamkq9Xm91LO6yer2eqamp7Ny5M0ny1ltvKd8AAOAmzIADAADgM7tw4UJefPHFFIvF/PCHP8ymTZssS7nG1Ov1XL58OS+99FIWFhbyox/9KNu2bWt1LAAAWNUUcAAAAHwuS/uBnT59Okny3HPPZfv27Wlra2t1ND6HxcXFnDt3LocPH06S9Pf32/cPAABukwIOAACApqjX6zl79mxeffXV1Gq1lEql7NmzJz09PdmwYYPiZpWr1+u5du1azp8/nzfffLPxM3zqqaeyY8cOPz8AALgDCjgAAACabmFhIe+8807OnTuX6enpJEl7e3u6uroaYzZv3pwvfelLrY66Lv3qV7/KpUuXGt/PzMxkfn4+SdLd3Z3t27fniSeeSLFYbHVUAAC4LyngAAAAuOvm5ubywQcf5Ne//nWSlQXQ/aZarSZJyuVyq6N8Zh8vQB966KE8+uij6ejoaHUsAABYExRwAAAAcIeWZvLNzMy0OgoAALAKfaHVAQAAAOB+o3gDAABuRQEHAAAAAAAATaSAAwAAAAAAgCZSwAEAAAAAAEATKeAAAAAAAACgiRRwAAAAAAAA0EQKOAAAAAAAAGgiBRwAAAAAAAA0kQIOAAAAAAAAmkgBBwAAAAAAAE2kgAMAAAAAAIAmUsABAAAAAABAEyngAAAAAAAAoIkUcAAAAAAAANBECjgAAAAAAABoIgUcAAAAAAAANJECDgAAAAAAAJpIAQcAAAAAAABNpIADAAAAAACAJlLAAQAAAAAAQBMp4AAAAAAAAKCJFHAAAAAAAADQRAo4AAAAAAAAaCIFHAAAAAAAADSRAg4AAAAAAACaSAEHAAAAAAAATaSAAwAAAAAAgCZSwAEAAAAAAEATKeAAAAAAAACgiRRwAAAAAAAA0EQKOAAAAAAAAGgiBRwAAAAAAAA0kQIOAAAAAAAAmkgBBwAAAAAAAE2kgAMAAAAAAIAmUsABAAAAAABAEyngAAAAAAAAoIkUcAAAAAAAANBECjgAAABghcXFxUxNTWVubu6G369lc3Nzn+laP+v9AABYexRwAAAAcB84fvx4urq6UqlU7snjLSwsZGRkJJcuXbrh92vZpUuXPtO1ftb7AQCw9hRaHQAAAAC4tXq9ntOnTydJarVaarVaSqXSPc2wYcOGTE5OplgstvrpAACAVc8MOAAAAFjlLl++nPn5+QwODiZJ3nrrrdu638LCQtPGFQqFdHR0pK2t7abnqNfrd+05qNfrWVxc/EzZmzVmiSUmAQD4NAo4AAAAWOX+8i//Mkmyb9++dHd3Z2JiYkUZNTc3l66ursYeZM8880x27tyZ4eHhZYXR7Y77pI/fb0m9Xs+FCxdSqVSyc+fObN26NZVKZVmZVa/XMzU1lXK5nK6urjzzzDMZHh7O8ePHb3nNU1NT6erqyuzsbJ555pls3bo1PT09qVQqqdfrqdfrefnll7Nz585UKpXMzs4uu//SnnVL2SqVSi5cuLCiJJybm8vw8HBjzM2eg4+fr6+vr3Etd1LcAQCwfijgAAAAYBWbm5vL9PR0KpVKCoVCvv3tbydJzp07d8Pxr776avr6+vLYY4+lUqmkWq2mr68vtVrtM427lV27duXAgQPp6urKiRMnMjg4mFqt1ijJko9m742MjGTjxo05ceJEvvvd7yZJxsfHc+HChU99jIGBgfzX//pfMzo6mnK5nFqtlu985zvZtWtXvvSlL+WFF17IwsJCBgYGGo+5uLiYnp6eZY+7cePGHDhwIFu3bl323Pb19aVaraZSqeSpp57Kvn37cvjw4RU5ls63dK2VSqXxc7mbM/8AALg/2QMOAAAAVrG33347SbJjx44kaRRIr776anp7e1eMr9VqOX/+fGOpyB07dmRgYGDFvnG3O+5m5ubmGsti7t+/P0nS2dmZr3zlKxkZGcnZs2fT29ubs2fPJkmef/75xnk3bdqUnp6ePPTQQ5/6OKVSKRMTE42M1Wo1tVotExMTy3IeOnQoV69eTalUymuvvZYkeeGFF7J3795Gts2bN+fQoUOZm5tLR0dH47k9ceJEOjs7G4+xa9euFc9pkhte66FDh3Lx4sVs27bt3r4wAABY1cyAAwAAgFWqXq9nfHw87e3tjYKoUCg0ZprdaLZauVxetk/bV7/61STJ+fPnP9O4m1ka97u/+7uZm5tr/LdUqi3dvlQcDg0NpVarpV6vp1AopLe3t3FNt/LNb36z8XWhUEh7e3uS5JFHHmkc/53f+Z0k/1yUXb16NclHs9Y+bsuWLUmSS5cuLRu3YcOGZY/R1dW17H7vv/9+kuTxxx9fdq1Lj3vx4sXP+iMGAGCNMgMOAAAAVqmlYmfjxo3L9l771a9+lSR56623cvDgwWX3+XgxlSTFYjFJMjMz85nG3cxSiXXgwIFbjuvs7EylUsnExEQqlUqSpLu7O9/97ndvq4D7yle+suz7rq6uVKvVFAr//JbGo48+umzM0jV8vFhL0ijvzp8/n97e3sa4jo6OZeN6enpSrVYb37/55ptJPloO80bsAwcAwCcp4AAAAGCV+vGPf5wkmZ6ezvT09IrbJyYmMjQ0tGwm21I590lLBdudjvs0R44cWVGAJVmW6eDBgxkaGsr777+fixcvZmJiItPT08uWfmymjRs3Zn5+Pr/5zW+WFXWLi4s3HLc0K2/J3/3d3y0b9+UvfznJR0tVfrLU++S1AgBAooADAACAVWlubi61Wi3d3d0ZGRlZcfvbb7+d8fHxnDt3btlecB988MGycUuzsz6+lOOdjLsdn5xBdiNtbW3Ztm1btm3b1thv7qWXXmrs79ZMfX19mZ6ezi9/+ctl+8QtXfNSyfjYY49leno6165dW3YNv/jFL5ad7+Ol5O1cKwAA2AMOAAAAVqG33347SfLd7343HR0dK/77zne+kyR59dVXl91veno6c3NzST7aQ+6dd95J8tFebZ9l3M08+eSTSZLXX3+9MbNscXExw8PDqVQqmZ2dTZI888wzqVQqqdfrjfsu7Te3cePGu/Lcff3rX0+SnDx5clm2n/3sZ0n+eV+6xx9/vHENS/lmZ2dXzDb8gz/4gyTJ2bNnG+dbWFhoXOvS8wgAAEvMgAMAAIBVZnFxMePj42lvb8+mTZtuOKatrS3lcjnVajW1Wi1f/OIXkyTlcjn79u1LV1dXrly5klqtllKplC1btiy7/+2Ou5nOzs7G4/f09DT2eUs+2uNtKfd3v/vdDAwMZNeuXenv70+SvPvuu0mSoaGhu/L8FYvFRraZmZns3Lmzka1cLjeWvfza176WUqmUiYmJnDlzJsViMbVaLe3t7Zmfn2+cb9u2bSmXy5mYmMjExETj3EvXeqNlKQEAWN8UcAAAALDK/PKXv0y5XE5PT8+yvck+ad++fUmSWq2WzZs3J0l6enryp3/6pzl79mwWFhZuus/ap41bKvgefvjhG36fJGNjYxkZGcnk5GReeeWVRuYdO3Y0cnd2dubIkSP5m7/5m0bx9s1vfjM//OEPb7mc48MPP7zi8ZI0rvPjbpXttddey7vvvpsXXnghfX19y/Zra2try8TERGZnZ/PSSy9l48aNefbZZ/Poo4/m2LFjd3ytN8sMAMD688D169evtzoEAAAA3G+6uroyMzPT6hgNc3Nz6evry+jo6LI94T7rOAAA4LOzBxwAAAAAAAA0kQIOAAAAAAAAmkgBBwAAAGtAsVjM6OjoDfdI+yzjAACAz84ecAAAAPAZrLY94AAAgNXDDDgAAAAAAABoIgUcAAAAAAAANJECDgAAAAAAAJpIAQcAAAAAAABNpIADAAAAAACAJlLAAQAAAAAAQBMp4AAAAAAAAKCJFHAAAAAAAADQRAo4AAAAAAAAaCIFHAAAAAAAADSRAg4AAAAAAACaSAEHAAAAAAAATaSAAwAAAAAAgCZSwAEAAAAAAEATKeAAAAAAAACgiRRwAAAAAAAA0EQKOAAAAAAAAGgiBRwAAAAAAAA0kQIOAAAAAAAAmkgBBwAAAAAAAE2kgAMAAAAAAIAmUsABAAAAAABAEyngAAAAAAAAoIkUcAAAAAAAANBED1y/fv16q0MAAADAajU7O5uBgYHbGnvixIl0dna2OjIAANBiZsABAADALWzatOmujAUAANYuBRwAAADcQqFQyO7duz913O7du1MoFFodFwAAWAUUcAAAAPApvvWtbzVlDAAAsD4o4AAAAOBT3M7SkpafBAAAlijgAAAA4FN82jKUlp8EAAA+TgEHAAAAt+Fb3/pWHnzwwRXHH3zwQctPAgAAyyjgAAAA4DZ87Wtfy4cffrji+Icffpivfe1rrY4HAACsIgo4AAAAuA1tbW157LHHVhx/7LHH0tbW1up4AADAKqKAAwAAgNv0H/7Df1i2DOWDDz6Y//Af/kOrYwEAAKuMAg4AAABu05YtW5YtQ/nhhx9my5YtrY4FAACsMgo4AAAAuE1tbW3ZtGlT4/tNmzZZfhIAAFhBAQcAAAB3YGBgIA8++GAefPDBDAwMtDoOAACwChVaHQAAAADuJx9fhtLykwAAwI0o4AAAAOAOfHwZSstPAgAAN6KAAwAAgDtUqVRaHQEAAFjFHrh+/fr1VocAAABgbZubm8sHH3yQX//6162O0hT/9E//lCT5F//iX7Q6SlM89NBDefTRR9PR0dHqKAAAsCaYAQcAAEDTLSws5J133sm5c+cyPT2dJGlvb09XV1ero3EDMzMzmZ+fT5J0d3dn+/bteeKJJ1IsFlsdDQAA7ktmwAEAANAU9Xo9Z8+ezauvvpparZZSqZQ9e/akp6cnGzZsSKHgM6CrWb1ez7Vr13L+/Pm8+eabjZ/hU089lR07dvj5AQDAHVDAAQAA8LnU6/WcPHkyp0+fTpI899xz2b59e9ra2lodjc9hcXEx586dy+HDh5Mk/f392bdvnyIOAABugwIOAACAz+zChQt58cUXUywW88Mf/jCbNm1S0Kwx9Xo9ly9fzksvvZSFhYX86Ec/yrZt21odCwAAVjUFHAAAAHdscXEx3//+9zM9PZ3R0VFLFK4DS0uMjoyMpLu7O3/+539uliMAANzEF1odAAAAgPtLrVbL7t27kyRnzpxJb2+v8m0dKBQK6e3tzZkzZ5Iku3fvTq1Wa3UsAABYlRRwAAAA3LZTp06lUqmkv78/R48eTbFYbHUk7rFisZijR4+mv78/lUolp06danUkAABYdSxBCQAAwG05fvx4xsfHc+LEiXR2drY6DqvA7OxsBgYGMjg4mP3797c6DgAArBrWCAEAAOBTKd+4kc7Ozpw4cSIDAwNJooQDAID/nwIOAACAW1oq3yYnJ9PR0dHqOKwynZ2dmZycTF9fXxIlHAAAJPaAAwAA4BYuXLjQmPmmfONmOjo6cuLEiYyPj+fChQutjgMAAC1nDzgAAABuqFarpVKpWHaS27a0J9zExERKpVKr4wAAQMuYAQcAAMAKi4uLGRoayuDgoPKN29bZ2ZnBwcEMDQ1lcXGx1XEAAKBlzIADAABgheHh4SwsLOTo0aMpFGwfzu2r1+v53ve+l2KxmLGxsVbHAQCAljADDgAAgGWmpqZSrVYzNjamfOOOFQqFjI2NpVqtZmpqqtVxAACgJRRwAAAANNTr9Rw+fDijo6MpFoutjsN9qlgsZnR0NIcPH069Xm91HAAAuOcUcAAAADScPHkyxWIxO3bsaHUU7nM7duxIsVjMyZMnWx0FAADuOXvAAQAAkCSZm5tLX19fJiYmUiqVWh2HNaBWq6VSqWRycjIdHR2tjgMAAPeMGXAAAAAkSY4dO5Zyuax8o2lKpVLK5XKOHTvW6igAAHBPmQEHAABAFhYWsnPnTjOVaLqlmZVnzpyxryAAAOuGGXAAAADk9OnTKZfLyjearqOjI+VyOadPn251FAAAuGcUcAAAwB2ZmppKV1dX5ubmbnj73Nxcurq6Mjw83Oqo3KZ6vZ7x8fE8+eSTrY7CGvXkk09mfHw89Xq91VEAAOCeUMABAACscxcvXkx7e3s6OztbHYU1qrOzM+3t7bl48WKrowAAwD2hgAMAAO6pxcXFLC4utjoGH/PjH/84Tz/9dKtjsMY9/fTT+fGPf9zqGAAAcE8UWh0AAABYH15++eWcOXMm8/PzSZLu7u5897vfXTbram5uLseOHUu1Wk17e3u6urqSJAcPHkyxWGz1JaxJCwsLqdVqeeKJJ1odhTXuiSeeyKFDh7KwsODPMwAAa54ZcAAAwF03NTWViYmJdHV15cSJExkdHc2VK1cyMDCwbDbcvn37Uq1WMzo6mpMnT2bz5s2pVqv2k7uL3nvvvZRKJYUId12xWEypVMp7773X6igAAHDXmQEHAAB8JqOjozcsbRYWFlYcu3z5csrlckZGRtLW1pYkeeihh3LgwIGcO3cuvb29mZuby/z8fMrlcnp7e5Mke/fuzZYtW1Kr1bK4uNi4L80zOTmZPXv2tDoG68SePXsyOTnZ+DMOAABrlQIOAAD4TKanp2977MGDBxtfLy4uLivpzp8/n97e3nR0dKRUKqVareaRRx5Jf39/Y8ZMqVRq9eWuSfV6PdPT03n++edbHYV1YsuWLTl06FDq9XoKBW9JAACwdvltFwAA+EwmJyfT0dGx4vjc3Fz6+vpWHHv++edTq9Vuec7R0dEMDQ1lfHw84+PjaW9vz9NPP52+vj6z3+6Cq1evJomCk3tm6bV29epVrzsAANY0e8ABAAB3Vb1eT19fX2q1WsrlciYnJ3P+/PmcOHFixdilGXATExN54YUXUiwWc+jQoXz/+99v9WWsSbVaLd3d3a2OwTrT3d39qWU8AADc7xRwAADAXfXxWVZ/+qd/mo6OjrS1teXnP//5Te9TKpWyd+/evPbaaymVSpmens7c3FyrL2XNOX/+fB577LF7/rizs7OZmppq2f1vZWpq6q6d+275rJlbda2PPfZYzp8/f88fFwAA7iUFHAAAcE8sLCzkH//xH5N8tCTlu+++mySZmZnJwsJCLly4kK6urszOzjbuUygUsnHjxlZHX7NmZmby+OOP3/PHfeONNzIyMtL4fmpqKl1dXcv+Gx4ezvDwcC5cuJB6vX7L+zfTyMjIZzr30jWUy+VbjiuXy43ra3Xmz3q/z+vxxx/PzMzMPX9cAAC4l+wBBwAA3FWlUimlUim1Wi2VSiXFYjG1Wi2Dg4NJ0jj+9ttvp1QqZWBgIOVyOZs3b86lS5dSrVZTLpdvuN8cn8/8/Hw2bNhwzx/34MGDGRoaWnG8u7s7xWIxyUeF7fT0dKrVakqlUiYmJlr9dN2W+fn5zM7OprOzc8VttVot8/PzrY7Ychs2bPA8AACw5ingAACAO/Lwww+nXC6nra3thre3tbU1CrQlP/3pT/POO+/klVdeSVdXV5599tls27Ytu3btyvnz53Pp0qUUCoX89Kc/zXvvvZfz58/n0KFDKZfLOXLkSLZs2dLqy15zlpb0bEUBVywWG0Xbx42MjCwrWqempjIyMpJarZZarZZSqfSp515cXEySm74+77b29vacPXv2hgXcW2+9lfb29luWT4uLi/lv/pv/JoXCzf+5Xq/X85vf/Oa2rrHVz8eNLL3m5ubmFOsAAKxZlqAEAADuSGdnZ8bGxm5YoCQflStjY2PZu3fvsmN79+5NtVrNwYMHs23btiRJR0dH9u7dm7Gxsca43t7ejI2NZWZmJmNjY9m2bduqKg/WmlsVPXfL8PBwurq6PnVcb29vY0nHv//7v7/l2Fqtlpdffjk9PT3p6enJyy+/nFqttmLc3NxcYxnIrq6uvPzyyyuWuPyk48ePp6urK8ePH//UzP39/ZmYmFhxznq9nomJifT3939q/q1bt+b48eMr9j2s1+uZmprKrl270tPTk1OnTt00+yefj66urlWzt10rXnMAAHCvKeAAAADWoUuXLqW7u7vVMW7p+PHjqVarSXLLWZDHjx9PpVLJxMREBgcHMzo6mjNnzqRSqSwrnWZnZ9PX15ckeeGFFxpLW+7atasxU+xG5x4fH0+lUsn+/fs/NfNSwXbx4sVlx5e+/8Y3vnHT/GfOnMno6GhGR0dz+vTp9PX1Lcv/J3/yJ409244cOZJLly5l165dK843NTW17HwnTpxIe3t7RkZGVk0J193dnUuXLrU6BgAA3DU+dgYAALBO3WwWY6uMjo4uy1StVtPe3p7nnnvuprMg6/V6xsfHkyTnz59vjNuxY0e2bt2aycnJ9Pb2Jkl+8IMfJPloKci2trb80R/9Ub73ve9leno6586da4xbMjs7m/Hx8XR3d+fAgQO3/ZyWSqW8/vrrjZmeSfL666+nvb19xTKai4uLjfxvv/12Y3bYUv7z58+nt7c3i4uLqVar6e7uztGjR1MoFLJt27bGMp0fNzk5mfb29kxMTDSez7fffjtbt27N4cOHV1xnKxSLxbzzzjutjgHQNKVSKb/zO79j1j4ADQo4AAAAVoXp6emb3lav12+4dOG1a9eSfDSj6uNvehYKhZTL5VSr1caeafPz88v2LywUCvnJT35yw8ebnZ3NwMDAssLrdj311FMZGRnJ4uJi2trasrCwkOnp6bzwwgsrxi4sLCRJyuXysscoFArp7u5OtVrN2NhYY1yxWFw27uN7LS49T9PT0ymXy1lcXFw2s6+7uzvT09NZWFhYFeXr//6//+/eqAbWjKUPQ7S3t2fnzp354z/+41Xxdy0AraOAAwAAYFWYnJxMR0dH4/vFxcW89tprGRkZyd/93d/dcgnIxx57bMWxRx55JEly9erVfPGLX0yysrC6mYGBgSTJt7/97Tves2z79u2N69m7d29jptcTTzyxYuwHH3xw01yPPvpopqenMzc31xjX09OzbMzHn68kuXz5cpKPZg8uLd/5SYuLi6viTeFnn312VczGA2iGpQ9L/G//2/+W119/PTt37szo6Ki/5wDWMQUcAACscvV6PdeuXbNfEk31v/6v/2urI3yqtra27N+/P6dPn874+Hj27du3ogxbmkH1q1/9asX9l4598YtfbIz7u7/7u9t67O7u7ly5ciUvvvjisqUcbzd3uVzOm2++mb179+bNN99MqVS64TkefvjhJMk//MM/rLhtadbbx8d98jo/uXfdQw89lOSjGXVDQ0M3zLdhw4bP94Npkhv9zADuZ8ViMdu2bVu2RPD58+czMjJixi/AOqSAAwCAVWhubi6vv/56ZmZmUqvVkny0t8jGjRtbHY01olqtplwutzrGHfnNb36zooArFotpb2/PzMzMivFLs8Y+Pu7jx5KPCqxz587l4YcfTmdnZ+P40aNHc/Xq1VQqlfzH//gf89prr93RTLgnn3wyAwMDmZqaSq1Wy5EjR244bmlPuF/84hcrblu6pra2tkZ5d+nSpezdu7cx5pe//OWy+yzN9Lty5cqK2XEA3Du9vb35+te/nuHh4ezevbux/ygA64cCDgAAVpF6vZ6/+qu/yqFDh1Iul/PUU09l8+bN2bBhwx0vgwe3crPlCVeTpT8Pn9y77ZN27tyZiYmJzM7ONkq02dnZTE9Pp1QqNYqo/v7+jI+PLxv32muvZXx8PCdOnFh2zkKhkFKplMHBwYyPj+fIkSM5ePDgbWfftGlT2tvbG3sCbd269aZjK5XKDfPPz88vmzlXKpUapXypVMri4mJOnjy57FwbNmxIqVRKrVZrjEuSqampHD58OP39/bdcyvNe+tKXvtTqCAB3VbFYzNGjR/O9730vo6OjGRsba3UkAO4h/4IHAIBVYmFhIcPDw7ly5UqOHDmSbdu2tToSa9jo6GjOnz/f6hjL9PX13fB4e3t79u3bd9P77d69O2fOnMnAwECjcKrVamlvb8/o6Ghj3K5du/Luu++uGFcqlZbNfvu4ffv25Re/+EUmJiaydevW2/5zWSgUGoVfpVK5ZYH+8fzlcjlXrly5Yf6nnnoqIyMjqVQq6e7uzvT0dNrb21c87ujoaIaGhlKpVJZdZ5I8/vjj9+RnCcBHCoVCxsbGsnPnzvT09NgTDmAdUcABAMAqMDc3l76+vpTLZUsUseZt3rx52fcPP/zwDZfD7OnpWbE05I3uXyqVUq1WMzs7m7/8y79MsVjMD3/4wxX36+joaMw0e+mll/LlL385R44cyZYtWxpjPplj6Y3Tl19+OT/72c+ydevWG5ZpN7qGXbt25erVq/n2t7+97Hi5XF52DZ/Mv3Hjxhvm7+3tzfbt2/Paa6/l3XffzeDgYPr7+3P69OlcvXr1hud74403cuXKlQwODuYb3/hGo5C70bUCcHcUi8UcOXIkBw4cyNe//vU72lcUgPvXA9evX7/e6hAAALCe1ev1fOc738nGjRstTcQ9MzU1lcnJyfzkJz9pdRTWoWeeeSZ9fX1mggDryvDwcIrF4h0taQzA/esLrQ4AAADr3V/91V9lYWGhsVcU3AubN2/O9PR0q2OwTk1PT6+YyQiw1v3BH/xBZmZmWh0DgHvEEpQAANBCc3NzOXToUCYmJiw7SUvU6/Vb7k8GzVav11sdAaAlHn300dRqtSwuLvq9D2AdMAMOAABa6NixY6lUKsv2ZYJ7oaOjI0ly7dq1VkdhnVl6zS29BgHWi6W/9375y1+2OgoA94ACDgAAWmhmZiY7duxodQzWqfb2dgUc99y1a9fS3t7e6hgALVEul/P++++3OgYA94ACDgAAWmRxcTHz8/P56le/2uoorFNdXV35+c9/3uoYrDM///nP09XV1eoYAC2xefPmXLp0qdUxALgHFHAAANAiS8sPFYvFVkdhnerp6ckvfvGLVsdgnfnFL36Rnp6eVscAaIkvfelLrY4AwD2igAMAgBap1Wopl8utjsE6ViqVMj093eoYrDPT09P2vQQAYM1TwAEAAKxTjzzySJKPymC4F5Zea0uvPQAAWKsUcAAAAOtUoVBId3d33n///VZHYZ14//33093dnUKh0OooAABwVyngAAAA1rG+vr68+eabrY7BOvHmm2+mr6+v1TEAAOCuU8ABAACsY1//+tdTq9WysLDQ6iiscQsLC6nVavn617/e6igAAHDXKeAAAADWsWKxmFKplHfeeafVUVjj3nnnnZRKpRSLxVZHAQCAu04BBwAAsM49++yzeeWVV1odgzXulVdeybPPPtvqGAAAcE/Y9RgAAGCd27p1a+bn5zM7O5vOzs5Wx2ENmp2dzfz8fLZu3drqKNxFXV1dnzpmZmam1TEBAO4JBRwAAMA6VygUMjg4mDfeeEMBx13xxhtvZHBwMIWCtyHWuvb29tsq4gAA1jq/+QIAAJD+/v7s3LkzQ0ND6ejoaHUc1pC5ublUq9WcOXOm1VG4B7q6ujI2NnZH95mbm2va3zvNPBcAwOehgAMAACDFYjHlcjnHjh274zfP4VaOHTuWcrmcYrHY6iisIrVaLX/xF3+R6enpJB/NnFv6EEBbW1tjXL1ez5EjRzIxMdEYd+zYsZRKpWVjzp49m1dffTW1Wi1J0t3dnbGxscbrbmnM4cOHMz8/n+7u7hSLxWzevDl79+5t9dMBAKxBX2h1AAAAAFaHoaGhVKvVxhvY8HnVarVUq9UMDQ21OgqrSL1ez8jISKanpzM6OpqJiYl0dXVlYmIir7322rJx3/ve9zIxMZFyuZxKpZL5+flUKpWcOnWqMW7r1q0ZGRlJV1dXTpw4kcHBwUxPT6dSqaRerydJLl++vGzMd7/73STJoUOH/J0HANwVZsABAACQJOno6Mjg4GBGRkby2muv2a+Lz2WpZBkcHLQkIMtcvXo1GzduzFNPPZXe3t4kydjYWGZmZnL69Ons27cvhUIhFy9ebJR0S+N27NiRgYGBHDp0KHv37m2UZ4ODg9m/f3+SpLOzM1/5ylcyMjKSixcvZtu2bXnjjTeSJPv27WvMntu0aVN6enry61//utVPCQCwBpkBBwAAQMO+ffuysLCQs2fPtjoK97mzZ89mYWEh+/bta3UU7qFqtZqurq4b/jc8PJwkKZVKGRsba5Rqc3NzmZuby8aNGzM/P59r164lSf7mb/4mSbJ58+bG+Ts7OzMzM5OZmZkkyfvvv58k+d3f/d3Geebm5vLQQw8lSX72s58lSZ588skkH830rdVqqdfrKRQK6e3tTWdnZ6ufNgBgDfJxRgAAABoKhUKee+65jIyM5Otf/7p9u/hMFhYWMjIyktHRUTMp15n29vZ0dXXd8LalIq1er+ev/uqvcujQoVue6913302SbNiw4aZj3nzzzSTJgQMHbnmuzs7OVCqVTExMpFKpJEnK5XKefPJJBRwAcFf4LRgAAIBlent7c/78+QwPD+fo0aMKFO5IvV7P8PBwyuVyY4YT60dXV1fGxsZuOebj5duJEyeyYcOGdHR05Jlnnsn09HRj3MaNG1Or1fKb3/zmpn8PffnLX152nk9qa2trfH3w4MEMDQ3l/fffz8WLFzMxMZFqtZoTJ04o4QCAprMEJQAAACuMjIzkypUrOXnyZKujcJ85efJkrly5kpGRkVZHYZU6d+5ckuTIkSPp7OxMR0dHFhcXl5VvSfIHf/AHSZJf/vKXy47Pzs5mamoqi4uLy2bpdnR0rPjvk7N429rasm3bthw8eDBHjhxJksb+cAAAzaSAAwAAYIW2trYcO3Ys4+PjmZ2dbXUc7hOzs7MZHx/PsWPHls08go9bKsWW9nir1+uZnJxs3P72228nSbZs2ZLko1J3cXExSbK4uJiBgYFMTk6mra2tsbfbG2+8sWzM8PBwKpVKY7+3Z555Js8880zq9XrjcX7v936v1U8FALCGWUcEAACAGyqVSjly5EgGBgYs0canmp2dzcDAQI4cOZJSqdTqOKxiTz75ZKrVasbHx/OLX/wi09PTaW9vz5EjR3LgwIGMj4/nd3/3d7Nt27bGvm3VajXlcjnVajVJGjMsOzs7G8c/Oaa7uzuPPPJICoVCvvvd72ZgYCDf+c538s1vfjO/+tWvMjMzkyQZGhpq9VMCAKxBD/6n//Sf/lOrQwAAwHpUq9Xyf/wf/0e++c1vtjoK3NS//tf/Og888ED+5E/+JN/61rfyW7/1W62OxCo0NzeX//l//p8zODiYPXv2tDoOLfJf/st/yebNm7Np06ZbjvuX//JfZuvWrfl//p//J3Nzc/njP/7j/OAHP8jXvva1/Jt/82/y3//3/33+x//xf8zDDz+c3//938+///f/Pv/tf/vf5v33388f//Ef53vf+16++tWvNs73zW9+M//+3//7/Mt/+S/z9ttv59/+23+bffv2ZWhoqLF33MMPP5x/82/+TX7rt34r7777bubm5vLNb34z//E//sf8D//D/9Dqp451xO9/AOvHA9evX7/e6hAAALAeTU1N5fz58xkbG2t1FPhUx48fz/j4uJlwrLA0821wcDD79+9vdRyAVc3vfwDrhyUoAQAA+FRLxYrlKPk45RsAANyYAg4AAIDbsn///vz2b/92o3DZt29fY3k31pd6vZ6TJ09mfHw8L7zwQvbu3dvqSAAAsKr4lxIAAAC3be/evdmyZUuGhobyi1/8ImNjYykWi62OxT20sLCQ4eHhXLlyJRMTEymVSq2OBAAAq84XWh0AAACA+0upVMpbb72VJNm5c2empqZSr9dbHYu7rF6vZ2pqKjt37kySvPXWW8o3AAC4CTPgAAAAuGNtbW35yU9+kgsXLuTFF1/Mq6++mh/+8IfZtGmTZSnXmHq9nsuXL+ell17KwsJCjhw5km3btrU6FgAArGr+VQQAAMBntm3btrz99ts5efJkfvCDHyRJnnvuuWzfvj1tbW2tjsfnsLi4mHPnzuXw4cNJkv7+fvv+AQDAbfJbMwAAAJ9LoVDI/v37s2/fvpw9ezavvvpqRkZGUiqVsmfPnvT09GTDhg2Km1WuXq/n2rVrOX/+fN58883UarWUSqU899xz2bFjh58fAADcAb89AwAA0BSFQiG9vb3p7e3NwsJC3nnnnZw7dy6HDh1KkrS3t6erq6sxfvPmzfnSl77U6tjr0q9+9atcunSp8f3MzEzm5+eTJN3d3dmzZ0+eeOKJFIvFVkcFAID70gPXr1+/3uoQAACw1tVqtVQqldsaOzExkVKp1OrI0FRzc3P54IMP8utf/zrJygKIe+/jBehDDz2URx99NB0dHa2OBbCmTU1N5fz58xkbG2t1FADuMjPgAADgHriTQk35xlrU0dGxotzZu3dvq2N9Zksz+WZmZlodBQAAWIW+0OoAAACwXvT39zdlDNB6ijcAAOBWFHAAAHCP9Pb2NmUMAAAAsLop4AAA4B7ZtGlTU8YAAAAAq5sCDgAA7pFCoZDdu3ff9Pbdu3enULBNMwAAANzvFHAAAHAPfetb38qDDz644viDDz6Yb33rW62OBwAAADSBAg4AAO6hTZs25cMPP1xx/MMPP7T8JAAAAKwRCjgAALiHCoVCvvGNb6w4/o1vfMPykwAAALBGKOAAAOAe+8M//MNly1A++OCD+cM//MNWxwIAAACaRAEHAAD32JYtW5YtQ/nhhx9my5YtrY4FAAAANIkCDgAA7rG2trZl+71t2rQpbW1trY4FAAAANIkCDgAAWmBgYCAPPPBAHnjggQwMDLQ6DgAAANBEdnkHAIAW2LJlS65fv974GgAAAFg7FHAAANACH1+G0vKTAAAAsLYo4AAAoEUqlUqrIwAAAAB3gQIOAID7xtzcXD744IP8+te/bnWUpvinf/qnJMnU1FSrozTFQw89lEcffTQdHR2tjgIAAAAtpYADAGDVWlhYyDvvvJNz585leno6SdLe3p6urq5WR+MGZmZmMj8/nyTp7u7O9u3b88QTT6RYLLY6GtBkSx8c6O3tbco4AABYaxRwAACsKvV6PWfPns2rr76aWq2WUqmUPXv2ZGRkJBs2bEih4FfY1axer+fatWs5f/583nzzzRw6dCilUilPPfVUduzY4ecHn8HU1FRGRkaWHSuXy0mSnp6elvzZWsrzacXa7Y4DAIC1xr9+AQBYFer1ek6ePJnTp08nSZ577rls3749bW1trY7GHSgUCuno6MjevXuzd+/eLC4u5ty5czl8+HAOHz6c/v7+7Nu3TxEHn0F3d/eyGaVXrlxJtVrN4cOHc+zYsZRKpXuWZXJystVPBwAArGr+1QsAQMtduHAhL774YorFYv7sz/4smzZtUtCsEW1tbent7c2OHTty+fLlvPTSSzl9+nR+9KMfZdu2ba2OB/eVkZGRFXssLs2OO3nyZMbGxm77XIuLi0nymT/kcLO9Huv1en7zm9/c1nk/bwaA1e7ll1/OxMTEDW+rVquNr//dv/t3+V/+l/+l1XEBaLIvtDoAAADr1+LiYp555pkcOHAgzz33XF577bV0dnYq39agQqGQzs7OvPbaa3nuuedy4MCBPPPMM4034IHPpre3N+3t7alWq40/T8PDw+nq6sqFCxdSLpeX7ZtZq9Xy8ssvp6enJz09PXn55ZdTq9Uaty+Nr9fryx6nXq+nq6ursfRlV1fXsvPW6/VMTU1l165d6enpyalTp1ac42YZurq6GnvFLZmbm2tcR7lczvDwcIaHh7OwsNDqpxzgtu3YseO2xv3+7/9+q6MCcBco4AAAaIlarZbdu3cnSc6cOZPe3l7F2zpQKBTS29ubM2fOJEl279697M1/oHmWZhZXKpUkyfHjx1OpVDIxMZHBwcGMjo7mzJkzqVQqjQKsv78/SXL58uVl51r6fun2T/qTP/mTxn5vR44cyaVLl7Jr164V46amplKpVHLmzJmMjo7mxIkTaW9vz8jIyLISbt++falWqxkdHc3JkyezefPmVKvVDA8Pt/ppBbhtmzZtuq1xW7ZsaXVUAO4CBRwAAPfcqVOnUqlU0t/fn6NHjy7b04j1oVgs5ujRo+nv70+lUsmpU6daHQnuS1NTU5mfn093d/eKpRz7+/szMTGRgwcPpl6vZ3x8PEly/vz57N+/P729vXn77beT/POebkul2dmzZ5eda+n7GxVwi4uLqVar6e7uzttvv51t27ZlbGwszz333Iqxk5OTaW9vz8TERHp7e9PZ2dnIcPjw4SQfzX6bn59PuVxOb29vY1/JiYmJ9PX1mTkL3DcKhcJNP7iw5F/9q39lKV6ANcpHjAEAuKeOHz+e8fHxnDhxIp2dna2OQwsVCoXs378/jz/+eAYGBvIP//AP2b9/f6tjwao1Ojq67AMLV65cSa1WS3t7e55//vkV4z8+A+3atWtJsqKoKxQKKZfLqVarqdfr6ejoSKlUysTERA4cOJBCoZB6vZ6JiYmUSqUbfmBiaVnIYrG4bCbz5s2bl42r1+uZnp5OuVzO4uLisiKtu7s709PTWVhYaGSoVqt55JFH0t/fn2KxmFKplFKp1OofA8Ad6e3tzenTp296+969e1sdEYC7RAEHAMA9o3zjRjo7O3PixIkMDAwkiRIObmJ6errxdalUysaNG/PUU09l+/btN5w90dHRseLYY489tuLYI488kiS5evVqSqVS9uzZk0OHDuXy5cvp7OxsLD/57LPP3jDXBx98kCTp6em55eMvnadaraZard7wXIuLiykWixkdHc3Q0FDGx8czPj6e9vb2PP300+nr6zNTBLivdHZ25rd+67fyj//4jze8/fHHH291RADuEgUcAAD3xFL5Njk5ecM3hVnfOjs7Mzk5mb6+viRKOLiRz/P351Jp9atf/WrFbUvHvvjFLyZJ+vr6cujQoZw9ezadnZ154403ktx8j6KHH374huf+5FKRDz30UJKkXC5naGjohufasGFDkjRmwNVqtbz//vt58803c+jQoZw7dy4/+clP7vEzD/D5PPnkk3nllVdueNvShyAAWHvsAQcAwF134cKFxsw35Rs309HRkRMnTmR8fDwXLlxodRxYU4rFYtrb2zMzM7PitqUZbEva2trS3d2diYmJLCwspFqtplKp3HTm2e/8zu8kSS5durTs+C9/+ctl3y8VfFeuXElHR8cN//v4EpbJR0Xc3r1789prr6VUKmV6ejpzc3OtfjoB7sgTTzxxw+P/9t/+2xV/7wGwdijgAAC4q2q1Wg4cOGDZSW7L0nKUBw4cSK1Wa3UcWFN27tyZWq2W2dnZxrHZ2dlMT0+nVCot+4DEt7/97STJ8PBwkmTHjh03PW9bW1tKpVJmZmYaf24XFxdz8uTJZeM2bNiQUqmUWq227M/31NRUyuVyjh8/nuSjD210dXUty1koFLJx48ZWP4UAn0mpVMpv//ZvLzv24IMP5n/6n/6nVkcD4C7yEQsAAO6axcXFDA0NZXBwUPnGbevs7Mzg4GCGhoby1ltv2e8JmmT37t05c+ZMBgYGUiqVknz0IYn29vaMjo4uG7t169YkH+07197e/ql/hz/11FMZGRlJpVJJd3d3434fVygUGnu7VSqVZRmSf94HaevWrSmVShkYGEi5XM7mzZtz6dKlVKvVlMtlM6mB+9LevXsbHzRIkg8//DC/93u/1+pYANxFCjgAAO6a0dHRbNy4Mfv27Wt1FO4z+/btyy9+8YuMjo5mbGys1XGgpR5++OGUy+XbLqM3b958w+NL+6rNzs7mL//yL1MsFvPDH/7whuVaoVDICy+8kEuXLqWnp2fF7eVyedn3vb292b59e1577bW8++67GRwcTH9/f06fPp2rV6/eMMMbb7yRK1euZHBwMN/4xjcahVyhUMhPf/rTvPfeezl//nwOHTqUcrmcI0eO3HQfOoDV7t/9u3+3rID7V//qX6VYLLY6FgB30QPXr1+/3uoQAACsPVNTUxkZGcmZM2e8ucBnsrCwkJ07d2Z0dDS9vb2tjgMrdHV13XBPNQC4kd27d+f//D//zyTJ008/nWeeeabVkQC4i+wBBwBA09Xr9Rw+fDijo6PKNz6zYrGY0dHRHD58OPV6vdVxAAA+l7179za+/v3f//1WxwHgLlPAAQDQdCdPnkyxWMyOHTtaHYX73I4dO1IsFnPy5MlWRwEA+Fw+PqN/06ZNrY4DwF1mDzgAAJpqbm4u4+PjmZiYSKHg100+n0KhkNHR0VQqlezatSsdHR2tjgQA8JkUi8X863/9r/Pbv/3bfk8GWAfMgAMAoKmOHTuWcrmcUqnU6iisEaVSKeVyOceOHWt1FACAz+X5559PpVJpdQwA7oEHrl+/fr3VIQAAWBsWFhayc+fOTE5OmqlEU83NzaWvry9nzpyxryCrRldXV2ZmZlodA2BNm5ubywcffJBf//rXrY7SFP/v//v/5je/+U3+xb/4F62O0hQPPfRQHn30Ub/7A9yAuc4AADTN6dOnUy6X/QOcpuvo6Ei5XM7p06ezf//+VscBAO6ShYWFvPPOOzl37lymp6eTJO3t7enq6mp1NG5gZmYm8/PzSZLu7u5s3749TzzxhA9MAcQMOAAAmqRer2fr1q05ceJEOjs7Wx2HNWh2djYDAwO5ePGifVNYFcyAA2iOer2es2fP5tVXX02tVkupVMqePXvS09OTDRs2+P/+Klev13Pt2rWcP38+b775ZuNn+NRTT2XHjh1+fsC6pYADAKApLly4kBdffDHVarXVUVjDyuVyfvSjH2Xbtm2tjgIKOIDPqV6v5+TJkzl9+nSS5Lnnnsv27dvT1tbW6mh8DouLizl37lwOHz6cJOnv78++ffsUccC6o4ADAKApKpVK9uzZk71797Y6CmvYqVOn8uabb2ZiYqLVUVhHarVaKpXKbY2dmJhIqVRqdWSAVW/pw1vFYjE//OEPs2nTJgXNGlOv13P58uW89NJLWVhY8CEqYN1RwAEA8LktLCxk586dOXPmjP0euKu81miV2917yIw4gFtbXFzM97///UxPT2d0dNQShevA0hKjIyMj6e7uzp//+Z+b5QisC19odQAAAO5/7733XkqlkkKEu65YLKZUKuW9995rdRTWmf7+/qaMAVjParVadu/enSQ5c+ZMent7lW/rQKFQSG9vb86cOZMk2b17d2q1WqtjAdx1CjgAAD63ycnJ7Nmzp9UxWCf27NmTycnJVsdgnent7W3KGID16tSpU6lUKunv78/Ro0d9cGsdKhaLOXr0aPr7+1OpVHLq1KlWRwK4qxRwAAB8LvV6PdPT09myZUuro7BObNmyJdPT06nX662OwjqyadOmpowBWI+OHz+eQ4cO5cSJE9m/f79Zb+tYoVDI/v37c+LEiRw6dCjHjx9vdSSAu0YBBwDA53L16tUkSalUanUU1oml19rSaw/uhUKh0Fg27UZ2797tDWWAGzh+/HjGx8dz4sSJdHZ2tjoOq0RnZ2dOnDiR8fFxJRywZingAAD4XGq1Wrq7u1sdg3Wmu7vb3iHcc9/61rfy4IMPrjj+4IMP5lvf+lar4wGsOkvl2+TkpPKNFTo7OzM5OamEA9YsBRwAAJ/L+fPn89hjj7U6RlNNTU1lamrqU8fNzs7e1rh7nWs9eOyxx3L+/PlWx2Cd2bRpUz788MMVxz/88EPLTwJ8woULFxoz3zo6Olodh1Wqo6OjMRPuwoULrY4D0FTWxwAA4HOZmZnJk08+2eoYt7SwsJD//J//cz744INMT08n+WgZw40bN2ZoaGjFm0IjIyNJkt7e3lue94033ki1Wv3UcZ9FvV7PtWvXlmW73VzrweOPP57Tp0+3OgbrTKFQyDe+8Y389V//9bLj3/jGNyw/CfAxtVotBw4csOwkt2VpOcqBgYFMTExY2h5YM8yAAwDgc5mfn8+GDRtaHeOmLly4kJ07d2ZiYiLT09Pp7u5OuVxOrVZLtVpNX19fTp069ZnOffDgwUxOTt6V3JcvX05fX9+yY5OTk3ft8e43GzZsyPz8fKtjsA794R/+4bJlKB988MH84R/+YatjAawai4uLGRoayuDgoPKN29bZ2ZnBwcEMDQ1lcXGx1XEAmkIBBwDAZzY3N5ckq7aAm5uby4EDB9Le3p7BwcGcOXMmP/nJTzI2Npbz58/nhRdeSHt7ew4dOnTL/cQWFhZSr9dXHC8WizddUqler2dhYeEzZ//bv/3bFcc6Ojo+1xJOi4uLa+YNjaXX3NJrEO6VLVu2LFuG8sMPP8yWLVtaHQtg1RgdHc3GjRuzb9++VkfhPrNv375s3Lgxo6OjrY4C0BQKOAAAPrfVuvTasWPHkiT9/f3Zv39/isVi47a2trbs3bs3Tz/9dJJ/Xt7x42ZnZ9PV1ZWdO3dm165dmZqaWlbEDQ8Pp6ura9l95ubmcvz48WzdujU7d+5MV1fXDWfYzc3NpVwup6urK11dXXn55Zcb5x4eHs6hQ4eSJF1dXRkeHm583dXVlXq9nq6urpTL5RXnXVxcXHFbrVbLyy+/nJ6envT09KSrq2vFXnJzc3ON6ymXyxkeHs7w8PDnKhHvptX6mmPta2trW7bf26ZNm9LW1tbqWACrwtTUVKrVasbGxvy/mjtWKBQyNjaWarVq32NgTVDAAQDwmV26dCnd3d2tjnFT1Wo1yUf7M93ME088keSjkuqTs9wGBgZSLpdz5MiRJB+VdH/yJ39y03NduHAhfX19OX36dEZHR3PixImUSqUcOnRo2ZsIs7OzjeUlX3jhhZRKpUxMTGTXrl1ZXFzMk08+2dj7YnR0dMUee4VCIYODg5mfn18xc+/9999PkkaxODU1lUqlkjNnzjQytbe3Z2RkZFmmffv2pVqtZnR0NCdPnszmzZtTrVYb5d9q1N3dnUuXLrU6BuvQwMBAHnjggTzwwAMZGBhodRyAVaFer+fw4cMZHR1d9qEnuBPFYjGjo6M5fPjwDVegALifKOAAAPhcVusbLB9favGRRx65Zf729vYkybVr15bd9sILL2RsbCzbtm3L22+/ne7u7szMzNz0XD/72c/S3t6eiYmJ9Pb2prOzM6+99lra29uXvYnwgx/8IEny1ltvZe/evXnttdfS3d2d+fn5nDt3Lp2dndm4cWOSNM7zSUul4l//9V8vO/76668n+edicXJyckWmt99+O0ly+PDhJB/Nfpufn0+5XE5vb286Ojqyd+/eTExMpK+vb9UuW7laX3usfVu2bMn169dz/fp1y08C/P9OnjyZYrGYHTt2tDoK97kdO3akWCzm5MmTrY4C8Lko4AAAWJOWlk7s7u7+1CWQPrmM5JKenp7G14VCIcViMfPz8zdclrFer6darWbjxo1ZXFzM3Nxc5ubmcu3atWzcuDHz8/O5du1aFhcXG2XX0rJ1hUIhP/nJTzIzM5Pe3t7bur5SqZT29vacPn26cWxxcTHT09Pp7u5OsVhMvV7P9PR0urq6VmRaKvwWFhbS0dGRUqmUarWa48ePN66vVCqlt7fX8nrwCUvLUFp+EuAjc3NzGR8fz+joqKUn+dwKhUJGR0czPj5uv1/gvub/iAAArEkbNmxIkkxPT2dxcfGWb5IvLVX5yTFL51jS09OTarWa//Jf/suK2VdLs+emp6cby0veyFK5tXnz5s99jU8//XQOHTqUWq2WUqnUWH7y29/+dpLk8uXLjetbusZPWlxcbCz1MzQ0lPHx8YyPj6e9vT1PP/10+vr6FAxwA5VKpdURAFaNY8eOpVwuN5bQhs+rVCqlXC7n2LFjGRsba3UcgM9EAQcAwGf2q1/9qtURburjn77+27/92xsu45hk2R5qnyzVfvOb3yw7z+1cb3d3d0ZGRm5424YNG/KP//iPSZK/+7u/+9zX+MQTT+TQoUP567/+65RKpcbyk1u3bk2SPPTQQ0mScrmcoaGhm2ZK0pgBV6vV8v777+fNN9/MoUOHcu7cufzkJz/53FnvltX8GmS5ubm5fPDBB/n1r3/d6ihN8U//9E9JsmwvxfvZQw89lEcffTQdHR2tjgLcZxYWFlKtVjM5OdnqKKwxQ0ND6evry8GDBy09DtyXFHAAAKxZg4ODGR8fz9mzZ29awC3NGiuXyytuW1hYWDb769KlS0lWzoz7uCtXrtzyDeylPec++OCDZccXFxdz7ty5PPzwwzfNeqNzlUqlnD59Ot/5zncyPT2dSqXSKA2/+MUv3lamjyuVSimVSvmjP/qjxjnn5ua8Kc8dW1hYyDvvvJNz585leno6SdLe3n7TJV9prZmZmczPzyf56IME27dvzxNPPOENT+BTnT59OuVy2e8KNF1HR0fK5XJOnz6d/fv3tzoOwB1TwAEA8Jl96UtfanWEW/rOd76T06dPZ2JiIjMzM3n22WezdevWRkE1NTWVQ4cOJckNZ629/vrrOXDgQAqFQubm5nLlypUkNy7glvZRq9VquXDhQrZt25YkuXDhQl588cV0dXU1ls/p7+/P+Ph4ZmdnG2Xba6+9lvHx8Zw4cWLZeT+t/Hr22Wdz4MCBjI6OJkl2797duG3Dhg2NTEvLVC5d9+HDh9Pf35/9+/fnwoULOXDgQE6cONHIUygUsnHjxmUzBFej1f4aXG/q9XrOnj2bV199tfGa27NnT0ZGRrJhwwb7Aq1y9Xo9165dy/nz5xuzYEulUp566qns2LHDzw9YoV6v3/D3F2iWJ598MgMDA9m3b5//DwH3HX9rAQCwZrW1teXYsWMZGhpKrVbLgQMH0t7eno0bNy6bkXPs2LEb7nN25syZnDlzJl1dXY091EZHR2/6j/+lfdQOHDiQUqmUL3/5y43HefLJJxvjdu3alXfffTcDAwONUmyprFgqwPbt25dqtZrnn38+GzduvOneF1u2bEny0T5v7e3ty/ZeWdrAfmhoKJVKZdljJcnjjz+e5KMlK0ulUgYGBlIul7N58+ZcunQp1WrVJ9q5LfV6PSdPnszp06eTJM8991y2b99u/8D7TKFQSEdHR/bu3Zu9e/c2ZuYePny4Udp7AxT4uIsXL6a9vf22Z+/Dners7Ex7e3suXrzY+IAbwP3Cb80AAKxppVIpb7/9ds6ePZvLly/ngw8+yH/9r/815XI5PT09N5zVsbQc5cGDB3P69Om8++67GRwczHe+851bFgpL+6jNzs7mjTfeyJUrVzI4OJhvfOMby4qxjo6OTExMZHZ2Ni+99FK+/OUv58iRI40ybelcg4ODuXr16opcH9fW1tYY9wd/8AefKVOhUMhPf/rTvPfeezl//nwOHTqUcrm8IhPcyNIsz2KxmD/7sz/Lpk2bFDRrRFtbW3p7e7Njx45cvnw5L730Uk6fPp0f/ehH3gQFkiQ//vGP8/TTT7c6Bmvc008/nR//+Mf+3wPcdx64fv369VaHAADg/jQ1NZXJycn85Cc/aXWUlqhUKqnVapmZmWl1lHXpmWeeSV9fX3p7e1sdZV1aXFzM97///UxPT2d0dNQShevA0hKjIyMj6e7uzp//+Z+b5Qjr2MLCQnbu3JkzZ87YL5K7ymsNuF99odUBAAC4f23evLmxxOJ6Uq/XMzs7m1qtdsNZadwb09PT2bx5c6tjrEu1Wq2x3+CZM2fS29urfFsHCoVCent7c+bMmSQf7Tm52veJBO6e9957L6VSSSHCXVcsFlMqlfLee++1OgrAHVHAAQDwudXr9VZHuKfOnj2bgYGBJMv3duPeWW+vudXk1KlTqVQq6e/vz9GjR73xug4Vi8UcPXo0/f39qVQqOXXqVKsjAS0wOTmZPXv2tDoG68SePXsyOTnZ6hgAd8RHFAEA+Mw6OjqSJNeuXWt8vR58/etfz+TkZNra2pQPLXLt2rUkWVevu9Xg+PHjGR8fz4kTJ9LZ2dnqOLRQoVD4/9i7/9A27vxP/M/d1cKqt9vcVIcJKv1siIcr/awxKlEU/yF9fKV2RsUgEuqcdUsO4nzkio1DsNOYhNOEXokMKfbWJtQpqr2xPxCCTFwcxMdUit1PMfIdrmITYbwshXEu/fRW5AzqXPopqz12ln7/yHdmLf+Kf8ge/Xg+oDSSRqPnSGN7NK95v95oa2vD0aNHEQgE8N1336Gtrc3sWES0TzRNQyqVwsWLF82OQhXiyJEj6OnpgaZpHHVPRCWDI+CIiIiIaFdsNptRDKkUgiDAbrez+Gai5eVl2Gw2s2NUFBbfaD0OhwNDQ0OIRCIYHBw0Ow4R7ZPHjx8DAERRNDsKVQh9X9P3PSKiUsACHBERERHtitPpxIMHD8yOQRXmwYMHcDqdZseoGHrxLRaLsfhGazgcDsRiMRbhiCqIoihwuVxmx6AK43K5OPcoEZUUFuCIiIiIaFc8Hg8ePnxodgyqMA8fPoTH4zE7RkWYmZkxRr6x5SdtxG63GyPhZmZmzI5DRHssmUzi9ddfNzvGrqTTacTj8YKtLx6P561v9W3avddffx3JZNLsGEREW8YCHBERERHtiiiKSKVSZsegCpNKpdj2ah8oioKOjg62naQt0dtRdnR0cIQCUZmbm5vD0aNHzY6xRi6XQzweRygUgtPphNPpRCgUQjweh6qqecvevXsXsiwX7LVlWc5b3+rbtHtHjx7F3Nyc2TGIiLaMM1YSERER0a4cOnQIwLMT9SyI0H7QT+zr+x7tjVwuh/b2dgSDQRbfaMscDgeCwSDa29tx7949WK1WsyMR0R7IZrOoqqoyO0YeVVXh9/uRzWYBPGtXePjwYUxOTiKRSMBmsyEajXIO3xJWVVVlfL5ERKWAI+CIiIiIaFcsFgtcLhfm5+fNjkIVYn5+Hi6XCxYLryfcS+FwGNXV1WhtbTU7CpWY1tZWVFdXIxwOmx2FiPZAJpMBgKIqwK0svgWDQUxOTuLmzZu4dOkSEokE+vv7kc1m4ff7oWnauuvI5XIbPrZymVwut+u821nPVnMV+nWLkb7P6fsgEVGxYwGOiIiIiHbN5/NhfHzc7BhUIcbHx+Hz+cyOUdbi8TgSiQS6u7tZ6KRts1gs6O7uRiKR4PxHRGWsmP4+3L9/3yiwtbW1rRnl5na70dXVhbNnz+Ivf/nLmufH43GcOHECTU1NGBwcXFPwGhwchN/vh8fjgcfjwblz53b0+01RFPT29hrrcTqda9ajt83UNA3xeBwej2fDXOl0Gn6/HydOnDDWI0kSnE7ntl9XURT4/X44nU5IkoRQKIRQKLSmdaeZimmfIyLaChbgiIiIiGjXjh07BkVRiuoLOpUnVVWhKAqOHTtmdpSypWka+vr6EA6H2aaLdkwQBITDYfT19T135AYRlZaFhQW4XC6zY6zJBAANDQ0bLtPS0oKWlpY1rXH9fj+SySSuXr0Kp9OJSCSCTz/91Hg8nU4jEomguroaQ0NDCIfD+PbbbyHL8rZGk42OjsLv9+PRo0cIh8MYGhqCzWaDLMtrimFLS0toamrCN998Y4xIj0QimJ2dNZbp7e1FIBCAqqq4evUqkslkXgvO7b5ue3s7FEVBOBzG8PAwamtrkUgkEAqFzP5487hcLuPzJiIqdizAEREREdGuCYIAURRx//59s6NQmbt//z5EUWRhaA8NDw9DEIRNT2ISbUVDQwMEQcDw8LDZUYiowIrt73AikQAA1NTUbPu558+fR3d3N9xuN95//30AwPT0tPH41NQUJEmCLMtwOBzwer24cuUKACAWi235daanpyGKIm7cuAGv1wuHw4GJiQkAwMjISN6yiqLggw8+QFtbG7xeL2RZBgB89tlnxjLRaBQulwsTExNwu93o7u7Gm2++uaPXzWQyyGazkCQJXq8XdrsdLS0tiEaj8Pl8RdW2stj2PSKizbAAR0REREQFcf78edy6dcvsGFTmbt26hfPnz5sdo2xlMhlEIhGEw2G2eaJds1gsCIfDiEQinK+HiPaM3oHBZrPt6G/Xr371K+PfFosFoigilUoZ9126dAnd3d2wWq3I5XLIZDL4/vvvAWDLI7FyuRxSqRSqq6uxvLyMTCaDTCaD5eVluFwuKIqypsj16quvGv+22+0A/lZo1Lf58OHDedv8xhtv7Oh17XY7RFFEIpHA4OCgsX5RFOH1eteMGiQioq3hNyoiIiIiKoi6ujpks1mk02k4HA6z41AZSqfTyGazqKurMztK2RoYGIAkSRBF0ewoVCZEUYQkSRgYGEB3d7fZcYioDOkjorLZLFRV3fYIqdXLV1dXQ1EU43Ymk8HFixfz7tuur776CsCzAppeRFtNVVWj0OVyuTYtev3+978HsHbE38svv7zj1w2Hw2hvb0ckEkEkEoHNZsPZs2fh8/lYgCMi2iEW4IiIiIioICwWC4LBIO7evcsCHO2Ju3fvIhgMcmTWHlFVFYlEYlvttIi2or29HT6fD5cuXWLrMKIy8PTpU7MjrCFJEhKJBH7/+9/D7Xavu4ymafjLX/6y7WKSz+cD8KwoJssyBEHAH//4R/j9/h3lbG9vX/exqqoq49/P+1158ODBde//85//DODZaMDtvq4+Ak5RFHzxxRf4/PPP0dPTg4WFhaK7gKIY90EiovWwBSURERERFUxzczMSiQRbjVHBZTIZJBIJNDc3mx2lbI2NjUGSJKPNFVGh2O12SJKEsbExs6MQUZnyeDwAgDt37my4zHvvvQePx7OtkWz6Ma3NZsONGzdgt9thtVoxPz+/rXx6kUtVVdjt9nX/W3mB0dzc3Kbr00e6JZPJvPu//vprAIDT6dzR6wLPCnFtbW24ffs2bDYbj+2JiHaBBTgiIiIiKhhBEIxWY0SFpLdG5OiZvaFpGiKRCE6dOmV2FCpTp06dQiQSgaZpZkchol06cOCA2RHWaGhoMOZu8/v9mJmZMX7fqKqK3t5eJBKJbbdZXjla7t/+7d8APCvKjY+PA3hWKNPnS9tMVVUVbDYbUqlUXjErHo9DkiQMDg7mLZ/NZp+by2azYW5uzigoqqqKTz75ZEevG4/H4XQ6kU6njWUsFotRyCu2469i3AeJiNbD3i1EREREVFB6q7HW1lbOI0UFoSgKWyPusdnZWdhsNraPpT3jcDhgs9kwOzu7YXs4IqKdslgs+Pjjj/Gb3/wGiqKgo6MDwLPRXHqBShRFvP/++9taryAIcLlcRmGvuroaqVQKwWAQ1dXVSCQS8Pv9uHfv3nPzffDBB7h8+TJ8Pp9xjKxne+ONN7a9zVevXsW1a9fg9/vhcrmwtLSEq1evIpVKbft1GxoaMDIygkAgAEmSUFtbi+npaWNbOQccEdHOsABHRERERAVlt9sRDAYhyzJu377N+bpoVzRNgyzLCAaDbI24hz766COcPXvW7BhU5s6ePYuPPvqIBTgi2hOCIOD27duYnZ3F7Ows5ubm8NJLL6GrqwtHjhxZc2FYbW3tuutZff9vf/tbxGIxjI+P4/Dhw/j1r38Nt9sNVVVRW1uLhYUF/PnPf4YkSXnPW33b4XAgkUggnU7j7t27UFUVwWAQb7zxRl621c/b6H63242JiQlMTU3h6dOnuHHjxrrP28rr6gXML7/8EslkEj09PZAkCf39/airqzP7oyUiKlk/+uGHH34wOwQRERERlRdN09DU1ITOzk54vV6z41AJi8fj6Ovrw8TEBIu5e0RVVTQ2NmJycrLoWkxReeG+RlQe4vE4YrEYbt68aXaUiqa3lFx5gVImk4HP58PQ0FDZjmo/d+4cfD4fv2MQUUngHHBEREREVHAWiwWdnZ2QZXlL82IQrUdVVciyjM7OThbf9tCXX34JURRZEKE9JwgCRFHEl19+aXYUItqF2travDaHZI6JiQn4fD4MDg5CVVVkMhlcvHgRNpsNNTU1ZsfbM6lUasPRi0RExYYFOCIiIiLaE16vF5IkIRQKQdM0s+NQidE0DaFQCJIk8QrnPRaLxXDy5EmzY1CFOHnyJOdzJCoTPL4zV1tbG4LBICKRCBobG+Hz+aAoSllfuMR9johKDQtwRERERLRnZFnG0tIShoeHzY5CJWZ4eBhLS0uQZdnsKGVN0zSkUikcOXLE7ChUIY4cOYJUKsWTqEQlTG95uLy8bHaUitfW1oZYLIZoNIpwOIxkMlnWFy7p+xznBSaiUsECHBERERHtGavVioGBAUQiEaTTabPjUIlIp9OIRCIYGBiA1Wo1O05Ze/z4MQBAFEWzo1CF0Pc1fd8jotJks9lYgCsSdrsdoijC6/WW/XHT8vIybDab2TGIiLaMBTgiIiIi2lOiKKK/vx+BQIBFOHqudDqNQCCA/v5+FoX2gaIocLlcZsegCuNyuaAoitkxiGgXnE4nHjx4YHYMqjAPHjyA0+k0OwYR0ZaxAEdEREREe87tdiMYDCIQCCCTyZgdh4pUJpNBIBBAMBiE2+02O05FSCaTeP31182OQRXm9ddfRzKZNDsGEe2Cx+PBw4cPzY5BFebhw4fweDxmxyAi2rLynJGTiIiIiIpOW1sbAMDn82FoaAgOh8PsSFRE9JFvwWDQ2Fdo783NzeHUqVNmx9i2rVz9Pjc3tyevraoqfvazn5V9m6+9dPToUYyNjZkdg4h2QRRFpFIps2NQhUmlUrh48aLZMYiItowFOCIiIiLaN3phJRAIsAhHBhbfzJPNZlFVVWV2jB2x2WymtKH6zW9+gzNnzsDr9Zr9FpSsqqoqZLNZs2MQ0S4cOnQIwLNWxmwZTftBb12s73tERKWABTgiIiIi2ldtbW148cUXjYJLa2srLBYellYiTdMwPDyMSCSCrq4utLS0mB2poujtYEu1AOd0OtHd3b2t56iqil/84hfP/Z2TyWRgt9vX3K9p2p7PXbbRa5cTfZ+rhG0lKlcWiwUulwvz8/MswNG+mJ+fh8vl4vcGIiopnAOOiIiIiPZdS0sLotEoxsbGcOHCBaiqanYk2meqquLChQsYGxtDNBpl8c1E5X4iS9M0zMzMwO/3o7GxEXV1dfD7/Wt+7yiKgnPnzsHpdMLn80GSJPT29hrLZTIZ1NXVAQBkWYbT6UQmk0E8HofT6UQ8Hs9b3+r79dsrX0cvguZyOcTjcfj9fvh8PjidTpw7dy4vo6ZpiMfjkCTJeDwUCmF0dNTst3jbyn2fI6oUPp8P4+PjZsegCjE+Pg6fz2d2DCKibWEBjoiIiIhMIYoi7t27BwBobGxEPB6Hpmlmx6I9phcRGhsbAQD37t3jlfMmWVhYgMvlMjvGnmtqakJHRwecTieGhoYQDAahKAr8fr/xO0fTNMiyjFQqhXA4jGg0isbGRuNCAQAQBAHBYBAAIEkSwuEwBEHYdh6/349UKgVJkoznezweo6g3NDRkLLMy4+zsbN4y77zzDlRVRU9Pz56PytsLLpcLCwsLZscgol04duwYFEXhhVS051RVhaIoOHbsmNlRiIi2hZedEREREZFprFYrbt68iZmZGVy7dg0jIyO4cuUKampqOEKizGiahsXFRVy/fh2qqqK/vx9ut9vsWBVvJwWkUpLJZJDNZvPmF3Q4HHjllVcgyzKmpqbg9Xrx+PFjVFdX583tdunSJczNzSESiaC1tRVWqxVNTU2IRCLweDy7mgNudnbW+B2nF8/Wy9jT04PZ2Vm43W589tlnAID29najbeONGzcwNTWF77//3uy3etvKfd8jqgSCIEAURdy/f58j2WlP3b9/H6Io8m8HEZUcntUgIiIiItO53W5MTExgeHgYly9fBgB0dnaivr4eVqvV7Hi0C7lcDtPT0+jr6wMANDc3c94/KohEIoFEIrHuY5Ikobu7G8lkEgDw2muvGe0eAeDnP/85ACCZTMLr9UIUxbz55PRlX3rpJQDA8vJyweYq8/v9efv//Pw8AODo0aN5GV9++WUAMApwp06dQiKRQGtrKwYGBnDo0CFYLJZdFQKJiHbr/PnzuHbtGgtwtKdu3bqFq1evmh2DiGjb+K2XiIiIiIqCxWJBW1sbWltbMTU1hZGREciyDFEUcfLkSXg8HlRVVbFwU+Q0TcPy8jKSySTGx8ehKApEUURnZycaGhr4+VHB2Gw2OJ3OdR+rra0FAKPFYUdHx6br0jQNn376KXp6evY8d01NTd5tff6kQCCw7vJ6azeHwwFJkpBIJOD3+wE8KzSeOnUKDodjz3MTEa2nrq4O2WwW6XSav4toT6TTaWSzWWMeViKiUsJvv0RERERUVPQRHV6vF6qq4v79+5ienjZOjK8+6V5bW4sDBw6YHbsiPX36NG8Op7m5OWSzWQDP5nc6efIkjh8/znZBRerp06dmR9gVp9OZN2ptM/39/Th8+PCa+/URtlNTU8bvGH1Zu92Oc+fOIZVK7el26KPshoaGUFVVtWFGAOju7oYsy5ifn8fs7Cyi0SgSiQSi0WhJzqVY6vsgET07bgsGg7h79y4LcLQn7t69i2AwyIu4iKgk8TcXERERERUtQRDQ0tJitDXKZDJ49OiRMd/R6gJQqdHb50mSZHaUHVtZAH3rrbeMwgVRsdlsv9RbVYbDYWNuQk3TdlV809f5PCsL1Fv52bFarXC73XC73airq0NHRweGh4e3XIwkIiq05uZmNDY25s1RSVQImUwGiUQCk5OTZkchItoRFuCIiIiIqGTY7fY1J3ZKec4RvQDHE+dkhkoYOarPm3bnzh0cOXIEVqsVuVwO4XAYS0tLuHLlChwOh1EE++abbwD8rSWlbmJiAm1tbcZtfe44ADh27Nia+/QThlvx1ltvIZFIYGpqCq+++iqsVitUVUVvby+Wlpbw4YcfoqqqCqdPn8ZLL72EGzduGKMA1hvVV0oqYR8kqgSCIECSJAwMDPCYhgpqYGAAkiSxmwIRlSwW4IiIiIiITBIOh7c8SoaItm/lvGkejwd+vx/RaBTAszap+nxsDQ0NiEajiEQiePjwIZaWlgA8a0fZ0dGBSCSCF198ES0tLXC5XEZxTZ9/TRRFJBIJLC0t4aWXXsK3336b91qbcbvdkCQJ0WgU0WjUyKtn1Oe+PH/+PDo6OnD69Gm8+eabePr0Kebm5gAA7e3tZr/VRFTh2tvb4fP50NraWpItcan4KIqCRCKBWCxmdhQioh37yX//7//9v5sdgoiIiIioEimKgn/913/Fm2++aXYUqkClvP99/fXXqK2tNQpom3nzzTfxX//rf8V/+A//AZ9++in+4R/+Aa2trWhvbzdGkh08eBAulwsvvPAClpaW8Otf/xqXL1/Gq6++ir//+7/Hv//3/x4HDhxATU0NXn/9dXz77bcAgF/96lc4ePAgmpqaUF1djXQ6jZaWFly5cgWvvfYalpeXcezYMRw8eBDff/89/t//+3/G7Y0yTkxMrJvx7/7u7/D3f//3+MUvfoHPP/8cmUwGb775Jrq6uvDLX/7S7I9k2/7lX/4Fv/zlL3minqhM/OIXv8CPfvQj/O53v8OJEyfw4x//2OxIVMI0TcP58+dx6tQp/Kf/9J/MjkNEtGM/+uGHH34wOwQRERERUSWKx+NIJpNs10SmiMfjiMViuHnzptlRqAKdO3cOPp/PaNtJRKVP0zQ0NTWhs7OTP9u0K/F4HH19fZiYmDAuRCEiKkW8HIWIiIiIiKgC1dbWIpVKmR2DKlQqlUJtba3ZMYiogCwWCzo7OyHLMlRVNTsOlShVVSHLMjo7O1l8I6KSxwIcERERERFRBdM0zewIVGG4zxGVL6/XC0mSEAqF+LNO26ZpGkKhECRJ4ihKIioLLMARERERERFVILvdDgBYXl42OwpVGH2f0/dBIiovsixjaWkJw8PDZkehEjM8PIylpSXIsmx2FCKigmABjoiIiIiIqELZbDYW4GjfLS8vw2azmR2DiPaI1WrFwMAAIpEI0um02XGoRKTTaUQiEQwMDMBqtZodh4ioIFiAIyIiIiIiqlBOpxMPHjwwOwZVmAcPHsDpdJodg4j2kCiK6O/vRyAQYBGOniudTiMQCKC/vx+iKJodh4ioYFiAIyIiIiIiqlAejwcPHz40OwZVmIcPH8Lj8Zgdg4j2mNvtRjAYRCAQQCaTMTsOFalMJoNAIIBgMAi32212HCKigmIBjoiIiIiIqEKJoohUKmV2DKowqVSKIxyIKkRbWxuCwSB8Ph9HwtEa6XQaPp8PwWAQbW1tZschIio4FuCIiIiIiIgq1KFDhwAAiqKYHYUqhL6v6fseEZU/vQjHdpS0kt52ksU3IipnLMARERERERFVKIvFApfLhfn5ebOjUIWYn5+Hy+WCxWIxOwoR7aO2tjZ0dXUhEAhgcHAQmqaZHYlMomkaBgcHEQgE0NXVxeIbEZU1FuCIiIiIiIgqmM/nw/j4uNkxqEKMj4/D5/OZHYOITNDS0oJoNIqxsTFcuHABqqqaHYn2maqquHDhAsbGxhCNRtHS0mJ2JCKiPcUCHBERERERUQU7duwYFEXhiVDac6qqQlEUHDt2zOwoRGQSURRx7949AEBjYyPi8ThHw1UATdMQj8fR2NgIALh37x7nAiWiisACHBERERERUQUTBAGiKOL+/ftmR6Eyd//+fYiiCEEQzI5CRCayWq24efMm+vv70dfXh9OnTyOdTrMQV4Y0TUM6ncbp06fR19eH/v5+3Lx5E1ar1exoRET7ggU4IiIiIiKiCnf+/HncunXL7BhU5m7duoXz58+bHYOIioTb7cbExATefPNNXL58GU1NTYjH48jlcmZHo13K5XKIx+NoamrC5cuX8eabb2JiYgJut9vsaERE+4qzHhMREREREVW4uro6ZLNZpNNpOBwOs+NQGUqn08hms6irqzM7ChEVEYvFgra2NrS2tmJqagojIyOQZRmiKOLkyZPweDyoqqqCxcJTmMVM0zQsLy8jmUxifHwciqJAFEV0dnaioaGBnx8RVSz+9iMiIiIiIqpwFosFwWAQd+/eZQGO9sTdu3cRDAZ5EpaI1mWxWOD1euH1eqGqKu7fv4/p6Wn09PQAAGw2G5xOp7F8bW0tDhw4YHbsivT06VMsLCwYt+fm5pDNZgEALpcLJ0+exPHjx9lumIgIwI9++OGHH8wOQURERERUieLxOJLJJLq7u82OQgRVVdHY2IhYLAa73W52HCojmUwGPp8Pk5OTPCFLRNuWyWTw6NEjfP/99wDWFoBo/60sgP785z/H4cOHeexARLQOXnpGREREREREEAQBkiRhYGCARWEqqIGBAUiSxOIbEe2I3W5fU9xpaWkxOxYREdFz/djsAERERERERFQc2tvbkUgkoCiK2VGoTF+KTAMAAIAASURBVCiKgkQigfb2drOjEBERERHtKxbgiIiIiIiICMCzUQbBYBCyLEPTNLPjUInTNA2yLCMYDLI1GRERERFVHBbgiIiIiIiIyNDa2gpVVTE1NWV2FCpxU1NTUFUVra2tZkchIiIiItp3LMARERERERGRwWKxoLOzE7IsQ1VVs+NQiVJVFbIso7OzExYLp58nIiIiosrDAhwRERERERHl8Xq9kCQJoVCIrShp2zRNQygUgiRJ8Hq9ZschIiIiIjIFC3BERERERES0hizLWFpawvDwsNlRqMQMDw9jaWkJsiybHYWIiIiIyDQswBEREREREdEaVqsVAwMDiEQiSKfTZsehEpFOpxGJRDAwMACr1Wp2HCIiIiIi07AAR0REREREROsSRRH9/f0IBAIswtFzpdNpBAIB9Pf3QxRFs+MQEREREZmKBTgiIiIiIiLakNvtRjAYRCAQQCaTMTsOFalMJoNAIIBgMAi32212HCIiIiIi07EAR0RERERERJtqa2tDMBiEz+fjSDhaI51Ow+fzIRgMoq2tzew4RERERERFwWJ2ACIiIiIiIip+emElEAhgaGgIDofD7EhUBPS2kyy+ERERERHlYwGOiIiIiIiItqStrQ0vvviiUXBpbW2FxcKvlZVI0zQMDw8jEomgq6sLLS0tZkciIiIiIioq/KZEREREREREW9bS0oIjR46gvb0dDx8+RHd3NwRBMDsW7SNVVREKhbC0tIRoNApRFM2ORERERERUdDgHHBEREREREW2LKIq4d+8eAKCxsRHxeByappkdi/aYpmmIx+NobGwEANy7d4/FNyIiIiKiDXAEHBEREREREW2b1WrFzZs3MTMzg2vXrmFkZARXrlxBTU0N21KWGU3TsLi4iOvXr0NVVfT398Ptdpsdi4iIiIioqPFbEREREREREe2Y2+3GxMQEhoeHcfnyZQBAZ2cn6uvrYbVazY5Hu5DL5TA9PY2+vj4AQHNzM+f9IyIiIiLaoh/98MMPP5gdgoiIiIioEsXjcSSTSXR3d5sdhaggNE3D1NQURkZGoCgKRFHEyZMn4fF4UFVVxcJNkdM0DcvLy0gmkxgfHzc+wzNnzqChoYGfHxERERHRNvDomYiIiIiIiArCYrHA6/XC6/VCVVXcv38f09PT6OnpAQDYbDY4nU5j+draWhw4cMDs2BXp6dOnWFhYMG7Pzc0hm80CAFwuF06ePInjx49DEASzoxIRERERlSQW4IiIiIiIiKjgBEFAS0sLWlpaAACZTAaPHj3C999/D2BtAajUJBIJAIAkSWZH2bGVBdC33noLhw8fht1uNzsWEREREVFZYAGOiIiIiIiI9pzdbl9T3NGLc6VIL8CxhSwREREREa2HBTgiIiIiIiKibQqHw0gmk2bHICIiIiKiIvVjswMQERERERERERERERERlRMW4IiIiIiIiIiIiIiIiIgKiAU4IiIiIiIiIiIiIiIiogJiAY6IiIiIiIiIiIiIiIiogFiAIyIiIiIiIiIiIiIiIiogFuCIiIiIiIiIiIiIiIiICogFOCIiIiIiIiIiIiIiIqICYgGOiIiIiIiIiIiIiIiIqIBYgCMiIiIiIiIiIiIiIiIqIBbgiIiIiIiIiIiIiIiIiAqIBTgiIiIiIiIiIiIiIiKiAmIBjoiIiIiIiIiIiIiIiKiAWIAjIiIiIiIiIiIiIiIiKiCL2QGIiIiIiIiIiIiIiIqBpml4/PgxFEVBMpnE3Nwcstms2bFoHTabDU6nEx6PB6Io4tChQ7BYWPKg4sG9kYiIiIiIiIiIiIgqlqZpWFxcxNTUFKLRKABAkiTU1tbirbfewuHDh82OSOt49OgR/vjHPyKZTEKWZQCA3+9HQ0MDampqWIwj03EPJCIiIiIiIiIiIqKKk8vlMD09jb6+PgBAc3MzhoaGWLwpEXa7HQDQ0tKC999/H4uLi3jw4AEuX74MAOjs7ER9fT2sVqvZUalC8bcIEREREREREREREVUMTdMwNTUFWZYhiiI6OzvR0NDAolsJs1gscDgccDgcaG1txdTUFEZGRiDLMsLhMD9fMgX3OCIiIiIiIiIiIiKqCIqiQJZlqKqK/v5+uN1usyNRgVksFni9Xni9XszMzODatWsYGRlBOByGKIpmx6MKwgIcERERAFVVkcvlzI5BBWC1WiEIgtkxiIiIiIiIqMiMjo6ip6cHfr8fHR0dHBFVAdxuNyYmJtDf3w+/34+uri60tLSYHYsqBH/DEBFRxVFVFV9++SUWFxfx6NEjpFIpsyPRHnC5XDh8+DBqampw7NgxFuWIiIiIiIgqVC6Xw7vvvoulpSUMDQ3B4XCYHYn2kcViwaVLl9DQ0IDLly9jenoav/3tbzk3HO05FuCIiKgiKIqCL774AmNjY8hmsxBFEW+++SZ8Ph9kWYYgCDzwKhO5XA6qqmJhYQHffPON0fPdZrOhubkZb7zxBltOEBERERERVQhVVeH3+1FdXY1oNMqLMyuYw+FANBpFKBTCiRMnuD/QnmMBjoiIylYul8P09DRGRkagKAokScLVq1dx5MgRFtvKmNVqhdVqhd1uBwC0tbUhl8thfn4en332Gfx+P0RRxJkzZ1BfX899gYiIiIiIqEytLL7duHGDLScJgiDgxo0buHDhAvx+P4twtKd+bHYAIiKiQtM0DfF4HCdOnEBfXx9OnjyJZDKJ7u5uuN1uFlwqkNVqhdvtRnd3N5LJJE6ePIm+vj6cOHEC8XgcmqaZHZGIiIiIiIgKSC++OZ1OFt8oj8ViwY0bN+B0OuH3+6GqqtmRqEyxAEdERGUlHo+jqakJfX196OzsRCKRQEtLC4tuZLBarWhpaUEikUBnZyf6+vrQ1NSEeDxudjQiIiIiIiIqgFwuZ4x86+7uZvGN1rBYLOju7kZ1dTX8fj9yuZzZkagMsQBHRERlIZfLIRQKQZZldHZ2YmJiAl6v1+xYVOS8Xi8mJibQ2dkJWZYRCoV40E1ERERERFTCNE3Du+++a7SdJNrMjRs3UF1djXfffZfdcajgWIAjIqKSNzMzgxMnTkBVVUxOTsLr9fLqNtoyi8UCr9eLyclJqKqKEydOYGZmxuxYREREREREtAP9/f1YWlpi20naEr0d5dLSEvr7+82OQ2WGBTgiIippg4OD6OjoQGdnJ27evMmJc2nHBEHAzZs30dnZiY6ODgwODpodiYiIiIiIiLZhZmYG0WgUw8PDLL7RllksFgwPDyMajfKCXCooFuCIiKgkaZqGc+fOYWxsDNFolO0mqWC8Xi+i0SjGxsZw7tw5tqAgIiIiIiIqAaqq4tq1awiHw7Db7WbHoRJjt9sRDodx7do1qKpqdhwqEyzAERFRydE0DRcuXMC3336LaDQKURTNjkRlRhRFRKNRfPvtt7hw4QKLcEREREREREWut7cX1dXVvECXdszr9aK6uhq9vb1mR6EywQIcERGVFL34BgC3b99my0naM4Ig4Pbt2wDAIhwREREREVERUxQFiUQCsiybHYVKnCzLSCQSUBTF7ChUBliAIyKikrFy5BsnU6b9oE/GzJFwRERERERExUnTNMiyjGAwyNaTtGt2ux3BYBCyLPMcAO0aC3BERFQy3nvvPSwtLeHjjz9m8Y32jcViwccff4ylpSW89957ZschIiIiIiKiFaampqCqKlpbW82OQmWitbUVqqpiamrK7ChU4liAIyKikjA6OopEIoFoNMq2k7TvBEFANBpFIpHA6Oio2XGIiIiIiIgIz0a/9fX1obOzkxfqUsFYLBZ0dnair6+Po+BoV1iAIyKioqcoCnp6ejA0NMTiG5lGEAQMDQ2hp6eHveCJiIiIiIiKwOLiIgCgoaHB7ChUZvR9St/HiHaClwUQEVFR0zQN7e3t6OrqgsPhMDsOVTiHw4Guri60t7djYmKi7K6wzGQyWFhYyLuvtrYWAFBVVWXK9jqdTgDA3NxcQZYjIiIiIqLycf36dZw9e7bsvpuR+SwWC86ePYvr168jGo2aHYdKFH8zERFRUevv74cgCHj77bfNjkIEAHj77bcxPj6O/v5+XLp0yew4BbWwsABZltd9zGazobOzEw0NDfv65VaSJLPfFiIiIiIiKkKZTAaKosDn85kdhcqUz+dDT08PMpkM7Ha72XGoBLEAR0RERSudTiMajSIWi/FqNioaFosFH374IXw+HxoaGspyZGZ/fz8OHz5s3F5eXsb169chyzKePn2KlpaWfcvS3d1t9ttBRES0Y5lMBo8ePcL3339vdhRax89//nMcPnyYJ1WJStTExAQkSYLVajU7CpUpq9UKSZIwMTGBtrY2s+NQCeLZTCIiKkqapuH69esIBoP8QkxFx263IxgM4vr167h9+3bZFYhXn4iy2+0YHh6Gx+PBrVu3jAJcOp3GkydPUF9fj/n5eXz//ffwer3G81RVxdjYGACgubk5bw7HeDwOAHnLr/fYestpmoapqSl88803OH369KZfuFdmeOWVV9Ydwae33tRPwunbTEREtF2qquL+/fuYnp5GKpUC8GwUud4qmYrL3NwcstksAMDlcqG+vh7Hjx/nvNNEJUDTNEQiEQwNDZkdhcrcqVOnEAgE0NraWnbf/WnvcY8hIqKiNDU1BVVV0draanYUonW1trZibGwMU1NT6xaRyo3VaoUoilAUxWi/cffuXSQSCUiShEQiAeBZoSyTySAcDuedeIxEInC5XJBlGXa7HbFYDKlUCseOHcs7yaWqKmRZhsvlgtfrNVpi6u9xOp3G5cuXkc1mYbPZMDY2hs7OzjV5V2fQs/f19SEajRqv2dvba/TzX7kd4XC4Ij5XIiLaPf3CkJGRESiKAlEUcfLkSciybNocqrR1mqZheXkZyWQS4+Pj6OnpgSiKOHPmzL633iairVtcXAQA1NTUmB2Fypy+jy0uLpZlBxzaWz82OwAREdFqmqahr68PnZ2du/rCG4/H8/5Lp9NQVdXszVsjk8nA6XQaI31KQTweL7nMG21DJpPZ0fMtFgs6OzvR19cHTdPM3pw9l8vloCgKbDbbmtFhS0tLGBoawuTkJADg4sWLSKVSCAaDSCaTmJiYMIphExMTAIBf//rXAID79+/nrUu//c4776yb4/LlywCeFcgSiQSGh4cRi8XWLDcxMWFkmJubQzQaRTgcRjabRW9vr7FN0WgULpcLc3Nz6O7uxuzsrFEozOVyZr/tRERUxDRNw+DgIJqamtDX14czZ84gmUwiGo2ipaUFdrudxZsSYLFYYLfb0dLSgmg0imQyiTNnzqCvrw9NTU0YHBysiGM9olLz4MED+P1+/p6lPWexWOD3+/HgwQOzo1AJYgGOiIiKztTUFACgoaFhV+uRZTnvv0AggMbGRkiShN7e3l0V40ZHRzE6OlqQ7dV7ih88eHBHOdLpdEFybMfBgwfXZO7t7TUli5n0fVTfZ8vFo0ePkMlkjP/S6bQxGrW5uXnN8ufPn4fD4YAgCFBV1SjUtbW1wWq1wmKxwOv1QhRFox1kXV0dAGB8fDxvXfrt9a5kzWQyyGazcDqdxug0u92Oixcvrll2bGwMLpcrr0+/niGRSOSdSFtaWjJ+H1gsFty8eRNzc3OcS4KIiDY0MzODpqYmfP755/jggw8wMTEBr9fLvx1lwGq1wuv1YmJiAh988AE+//xzNDU1YWZmxuxoRLTC2NiY8Z2CaK/V1dUZ32WJtoOXCBARUdEpxOi3lVaOjnn06BHu3LmDaDSKyclJDA8P72iup1u3bsHpdBpzYe2GIAjo7u7e0XN7enoQDocL8j5th8PhyGu9oGkaotFoxbX/WDkKrpzaFXZ0dKx7f1dXF95+++0196/84quPGltvrpvq6mokEgmoqgpBEOD3+xGNRo3bevEuGAyu+/P/pz/9CQBw6NChvPtffvnlvNuqqiKbzUIQBIRCoTWPAcDy8rIxl18kEoHf70djYyPq6upQV1fHK2mJiGhduVwO7777LlKpFMLhMFsUljGLxQKHw4Hbt29jamoKHR0dcLlc+O1vf8tCK5HJ9OP9I0eOmB2FKsSRI0eQzWaN765EW8URcEREVFTS6TSy2Szq6+sLtk673W7853a7cfPmTQwNDSGbzcLn8+WNhNM0DZlMBvF4HKFQCDMzM3mP53I5xONxZLNZLC0tIR6PGy0Mn/fcjejr1Nejr0MvZGQymTWjy3K5nDECL5lM5i2/8r3s7e3ddJRcLpfD4OAgFEV5bhZFURCPx6GqqnG/PkJqeHg4L8vi4qKx7Gorn7sRTdOgKApGR0fR29uLmZmZNdu3+n3St1fflvVed7PHd6q+vh7ZbLasRv8Fg0GEw2GEw2EMDQ0hFothbm4OLS0t655kXO++2traDe/LZrMA/jaCUG87qf//jTfeWDfXkydPAACvvPJK3v2rT4L9/ve/33DbnE4nJEkyntPa2or+/n5UV1cjGo2io6MDdXV1Jd1elYiI9oaiKDhx4gQAYHJyEl6vl8W3CqCP5NdbbZ84caLgx5NEtD2///3vYbPZWAynfWO1WmGz2Tb9rkm0Hh4pEhFRUfnkk08QDAb3/EDa4XAYI1++/vpr4wqmTz/9FD09PQAAl8tljAQKh8Pwer3485//bIyoU1UVyWQSBw8ehN1uf+5zN6KqKmRZRjgcht1ux8LCAmRZRldXFxYWFjA3N4dsNotoNApRFBGNRvHnP/8Z09PTAJ61zwOAY8eOwWq1Ih6Po6+vD9ls1lgeeFZU0dvxaZqG4eFhRCIRAM/adzidTpw6dWrdLPpIJeDZiEL9/nA4jIMHD+Lhw4d5WbxeL2RZzntNnT4XWDKZ3PA9ee+995BIJGCz2SAIgvHaQ0NDxsg7PUN/fz8+++yzvPdJkiRjVGEulzPmCwOenTBzOp0Fu2rNarUiGAzik08+wc2bNwu6n5qlqalpRyNDAaCqqgrAs89n9QjRhYUFAMALL7wA4NnPoc1mw/j4OFpaWnDr1i2IoghRFNdd9+HDhwE8m/x65c/U6mKuvlx1dfVzR5daLBa43W643W5omobZ2Vl0dHSgr69vX0Y1fP3110gkEjseBUtERPtjdHQUPT09CAaDaG1tZeGtAgmCgBs3bmB4eBh+vx9dXV0F6YZBRNv3hz/8Yd2OG0R7yel04g9/+APcbrfZUaiEcAQcEREVjVwuh1QqteHol0I7evQoABgT6eZyOfT09EAURczNzeHmzZuYnJyEzWbDyMgIgGdfvGVZBvDs4Ku7uxsOh2NLz92unp4eeDweTExMIJlMwuVyQVEUo+WBnuPMmTPo7u6GIAjI5XLG/ZOTk8ZE8i6XC5FIxChULC8vIxKJwOVyIRaLYWJiAh6PB4FAYN0s0WgUXV1diMViawozDodjTRaPxwObzYZIJJI315b+Gbtcrg2LrIqiIJFIQJIkJBIJRKNRo+h59+7dNct3dHTg1KlTSCQSxraunONrenraWF8ymTS2VS/qFcIbb7yBVCq1ZpReJbJYLMZnsNrc3BwA5BU/m5ubjdGV2WwWJ0+e3HDd+r736NGjvPtX39b3rdUZNE3LG5mqqiri8bixr+jFOL/fj2w2i8XFxT1/v/7v//2/O5r/kYiI9s/g4CB6enowNDSEtrY2Ft8qmMViQVtbG4aGhtDT04PBwUGzIxFVpIcPH8Lj8ZgdgyqMx+MxLj4m2ioW4IiIqGjMz8/DZrNtOPql0H75y18CgHEA9dOf/hSxWMxopwg8KxQ4nU4oirJpy8TdPHcjLpfLaG1ktVrh8/kAbN5e76uvvgIADAwMGEUOq9WKixcvAgDu3LkD4G8jkS5evAi73W601tnovRdFES0tLdsaFXX27FkAyCtizM/PAwDeeeedDZ/38ssvIxaLGUU94FnhRRRFJBKJNUUuv99vjIqzWq14/fXX815XH2nX3t4Oq9X63G3dCVEUYbPZjO2rdHoLWb/fj3Q6jXQ6bRS1Vo9wbWpqAgDj89b3841IkoRUKoVQKARFUTA4OLhmzjpBEBAMBgEA586dMzI0NTWho6MDvb29AJ61wpRlGRcuXEAmkzHayOrF80qb05CIiNYaHBxEJBLJG4VP5HA4MDQ0hEgkwiIckQlSqdS6Le+J9lJtbS1SqZTZMajE8LItIiIqGnfu3EFzc/O+vZ5eyNELVRaLBYIgGK0dFxcXoaqqMWpnM7t57kZWz4OnF4y+//77DZ8zNTUFAPjwww/zRhmtHPED/K0oZbPZ8p7/5ptvrjunxWajkjZy/Phx9PT04O7du8YJqzt37jy3sGG1WvNabOpZV27DygJOXV1d3vP1+cH0+cL0z0BvjajTi6OF0tzcjDt37rAdBYC3334bL7/8Mj766CNjVKUoiujv71/zeenFVUVRNh0ZqZNlGYcOHUIkEjFGuAWDQYyNjRlzywHP5nZ77bXX8jIAzwrb77//vpGpq6sLPT09eYU/m82Gq1evcoQDEVGF04tv63UAIHI4HIjFYsYxxOq260S0N/Tv8Zz/jfabvs/lcjnuf7RlPKtARERFQdM0pFIpY6TWftDb1ulXzmUyGbS2thpzp1VXV8Pj8WBpaSnvxP56dvPcjRw4cCDvtj5v1mb0ItVqgiBAkqQ1Vwn+4he/yLutF6+el2UrBEEwWhHqo5tSqRSCweCmhQ1FUeD3+wE8K5YIggCPx7NhMVOf72sj+vu/+jU32tadeuONN4yWm6VauKmvr0csFltTrNzIpUuX0N7evub+lfOqKYqCF154YdMTlx9//DFyudy68/Lp7Ud1VqsVbW1tOH36NL766iu8+uqrsFqtaG5uzhsduTJDJpPB8vKysexKLS0taGlpQSaTwcLCAmpra/f1JOs333yDf/fv/t2+vR4REW3NzMyMMfKNxTfaiN1ux9DQEAKBAF577TVeiEW0D/TvvIWa05toq/R9bvVFwUSbKc2zQ0REVHYeP34MAPvWflLTNKMd46uvvgoAmJiYMApot2/fNoooW5nDbTfP3QsXL17c9L3UDxyXl5fzTioVes6rd955B6lUCvPz8/jjH/8IAM8d5ai38XS5XLh58yaAZ5/XypaU26HPJbf6KjW9DWeh6O/348eP920/LjSr1bqtLxKCIDz3i+9W3ovN1rPRSU+r1ZrXCux563jeydOtLLMX/tf/+l94+eWX9/11iYhoY4qioKOjg20naUv0dpSBQADRaLRkjwOJSsXy8vKaTi5E+8Vms605j0K0Gc4BR0RERUFvP7df+vv7kUqlIIqicWJFLwJeuXLFKKDlcjmjTeGf/vSnDde3m+fu1tOnT41/Hzp0CADWzEWWyWSQTqeNEUJ6C8jl5eW85SYnJwuaraamBjabDR999BHGx8chiuJzCzb6SLeVBTf9/d3Je6mP+tMLgDq9fWEhuVyugra1pPKmaRr+z//5P/j5z39udhQiIvr/5XI5tLe3IxgMsvhGW+ZwOBAMBtHe3r5mvmIiKqwnT57A6XSaHYMqlNPpNKa7INoKFuCIiKgoJJPJNXOeFUo8Hjf+6+3thdPpRDQahc1mw4cffmgs99ZbbwEALl++jEwmg3g8jhMnThhXsba3t0NVVQiCAJvNhrm5OWQyGeRyuS0/t5D0QtatW7eMHKdPnwYA9PT0YHBwEKqqYnBwED6fD4FAwChC6UWpQCCAwcFBpNNpo+3jTuijpkZGRowswLM2gM3NzVAUBYqi4Pz5889dlz5CrrW1FYqiYHBwEO3t7cZVjtt9L48cOWI8Lx6P73pbN1NfX2/MWUf0PHoBnO1LiIiKRzgcRnV1NVpbW82OQiWmtbUV1dXVCIfDZkchIiKiIsECHBERFYVEImEUSgpNlmXjv2g0CgDw+/24d+9eXtuAI0eOQBRFZLNZ+Hw+yLKMxsZG3L59GzabDdlsFr29vbBarejs7DSWm56e3vJzC8lqtSIcDuflsFqtiMViCAaDiEQiaGxsRCQSAQAMDQ0ZBUG73Y5YLAZJkhCJRHD9+nV8+OGH6Ozs3FEWQRAQDAahKIqRRbey5WRdXd1z19XU1GS8l36/H5FIBM3Nzbh37x6AZ3O6ffnll1vOJooihoaGIAgCZFlGIBCAqqoIBoMF/TyAZ/vQXoyso/KUTCafO4chERHtn3g8jkQige7u7pKdz5XMY7FY0N3djUQigXg8bnYcIiIiKgI/+uGHH34wOwQREVU2TdNQV1eHWCxW0D7amUxmzX2CIDx3tImqqvj666/x6quv5i27crJnTdOM0Ssr17mV5663/cvLy8Z6crmcMdJu5TpWL7fyvvW2TdM0zM7O4vDhw5u+r/prAcDo6Ch6enowOTkJQRA2zLLe/RtlyWQy8Pl8CAaDaGtr2/Lnp7dyPHToUN5JsEwmkzf58Vay6dLpNKqqqmC32zddbqf0bZ2dneWJO9pULpfDiRMnUFdXB03T0N3dbXYkItqmeDyOZDLJn98yoWkampqa0NnZCa/Xa3YcKmHxeBx9fX2YmJjg8SDRHuDfXzJTKBSCx+PhsQJtGY8EiIjIdHrRptCT2O50fYIgrFsoW3mfxWJZd/1bee5qq9dltVrXLQit95ob5dAfc7vd6z6mKAqGh4chCAIuXboE4NmJp/HxcUiSZOTdKMt692+UZWBgAMCzkW3bsdEE9qvfq61k062cy2Wz5XZKz8ZJmel5wuEwBEGAy+XC//yf/9PsOEREFU8/LmpoaDA7CpW4hoYGjIyMYHh4eFsXnxHR1nzzzTdmR6AKx32QtoMtKImIyHR6AY72jyiKOHToEKLRKM6dO4fR0VE0NTVBUZSCzXkSCoXgdDqRSCQQDAYrqiC1k31a0zSk02mEw2FOKl7mZmZmkEgk8OGHH+InP/mJ2XGIiCpeJpNBJBJBOBzmiCXaNYvFgnA4jEgksm5HDiLanVdeecXsCFThuA/SdvDIkoiITPfkyRNIkmR2jIrT1taGF198EQsLC7h16xYEQcDVq1c3HHm2E5Ik4a233tpwJF45kiQJT5482dKymqZhcXER//zP/2zMcUflLZPJ4Nq1a+jq6oLdbsfCwoLZkYiIKt7AwAAkSSroMRBVNlEUIUkSBgYG2CaPiIiogrEAR0REVMFaWlrQ0tKyJ+vmyYb1sehWmTRNw6effoqenh74/f49+7kjIqLtUVUViUQCsVjM7ChUZtrb2+Hz+XDp0qVN29ETERFR+WIBjoiIiGiPrS66/eQnP8Ff//pXs2PRPslkMrh48SJUVUU0GuUICyIqSZlMBn/605/w8ssvF3wOVTONjY1BkqSKapVN+8Nut0OSJIyNjXEuOCIiogrFAhwRERHRHsjlcpifn8c//dM/4eHDh3lFt60U3zhnSOlaXl7GV199hYWFBSQSCQCA3+9HR0cH5xYiol2Lx+OQZTnvPr2Vt8fjQUNDQ8F/16ycmzQWi5VNAU7TNEQiEQwNDZkdhcrUqVOnEAgE0NraymMAogI5ePAg5ubmzI5BFWpubg6nTp0yOwaVEP71JyIi0z19+tTsCEQFpSgKRkZGoCiKcd92R7z5fD6zN4N2QZIk1NbWorW1texGixBRcXC5XHlt7ZaWlpBIJCDLckFH26qqCgAIBoNobm4uq1Z6s7OzsNlscDgcZkehMuVwOGCz2TA7O1tRcyIT7aWqqipks1mzY1CFymazqKqqMjsGlRAW4IiIyHQHDhwwO0LJyuVymJ6eRm1tLex2+5rbW5XJZLCwsPDc561ebqPb9fX1FV1wEEUR58+fh6qqiMfjGB0dxf/+3/97W60neVUnERFtRpblNX+z9dFxH374IW7evLnmOZqm4d/+7d+2VUT7/e9/DwB47bXX1n2epmn4y1/+squ/+7lcbs3zNU0DgD0dNfTRRx/h7Nmze7Z+IgA4e/YsPvroIxbgiApE/1ukqmpZXRRCxU+/KIn7HW3Hj80OQERERDunqipkWcbCwsK6t7dqYWFhS89bvdxGt/UD00onCAL+y3/5L7h37x4mJydx8eJF1NTUAAB+8pOfmB2PiIjKjNfrhSiKSKVSyOVyxv2ZTAaDg4Ooq6tDY2MjnE4nRkdH854bCoXgdDoxMzMDSZLgdDoRCoXQ0dEBAOjo6IDT6TRaJCuKgt7eXtTV1cHj8aC3tzdv5DfwrHWl3+831hkKhYz7Q6GQcb/H4zFeGwDS6TSamppQV1eHwcFBoxhXSKqqQlEUHD9+3OyPjcrc8ePHoSgKj4+JCkS/YGPl3zmi/aDvc5V8sTFtH0fAERERlbCqqirEYrF9uwKrvr5+09fTH1/ZksHpdCIcDsPr9Zr9dplKEAS0tLSgpaXFmB9uaGgIi4uL2xoZR0REtJnVJ/nT6TQCgQBsNhvC4TAOHjyI69evo6enB9999x3a2trylr927RoEQUBjYyMaGhoAAIlEAsFgEK+88goEQcibh06/v6+vD9FoFF1dXWhpaTHWpyiKsU6Px2PcPzc3Z6z3xRdfxK1bt9DR0QFJkrC0tITOzk4kk0lEIhG88sorBT+O+PLLLyGKIq9ipz0nCAJEUcSXX35Z8cfDRIXicrmwsLCwra4vRLu1sLAAl8tldgwqMSzAERFRUSjHK0I1TStY26SN1mWxWLb1pWM7mdZb1mq1bnq11+rHy/FzfZ6tbLPVaoXb7Ybb7TaKcf/0T/+Ehw8fmh2fiIhKWDweRzabhcvlMv4eT01NAQCi0ahRbLp9+zZOnz6NSCSC1tbWvL/3zc3NeUW5J0+eIJFIoKmpCXa7HZqmoa+vDwCQTCaN12loaEBTUxOmp6fzCnDrrRN4NofKyrnqvvvuO0QiEaiqimg0CuDZhT2JRAKxWKzghYtYLIaTJ0+a+4FRxTh58uSe7MdEler1119HMpnkzxTtq2Qyiddff93sGFRi2IKSiIhMV1tbi1QqZXaMgsjlcujt7YXf70ddXR38fj8GBweNokw6nYbT6cTg4OCa565+7HnrAp61lHI6nYjH4xtmUlUVvb29kCTJWM/o6Oi6haKnT5+it7cXTqfTaPu0srVHPB7f9PX0xzOZDOLxOBobGwE8m6fG6XTiww8/hNPpRDqdXvPcwcHBDR8rJalUCrW1tVteXi/GDQ4OYnZ2FkNDQ/jP//k/m70ZRERU5MLhMEKhkPGf3++HLMuw2Wx45513jOUmJyfhcrmQy+WQyWSQyWSwvLyM6upqAMDy8nLeet94441NX3d5eXlNkQ94dlGQ0+lEKpVa0zKyubl53XUdOnTI+Pcrr7wC4FnRTaevv9DHiZqmIZVK4ciRIwVdL9FGjhw5su7PBhHtzGuvvcY5s2nfzc3N4bXXXjM7BpUYjoAjIiLTrezhXuq9tMPhsNFO6cyZM0brpKdPn+LSpUvG/F9jY2NrrgTXr1Bvamra0rq2KhQKIZVKoaurCwcOHEAsFtuw7VRPTw+AZ+2kHj58iEgkgkgkgsnJyW23aKqtrYUkSUgkEsb8Lv/xP/5H3LlzB5988glu3ryZt/zY2BhsNpvxHpWi3faEt1gscDgccDgcZm8KEREVuZVFKVEUUV1djTNnzqC+vt74O5TJZJDNZpHNZuHz+dZdz5/+9Ke82/qItOdZ7wrw2tpaJBIJPH78OG896x1D2Gy2dUfl70dR7PHjx9vaVqLd0ve11T8bRLQzv/rVr5DNZsviHAKVhlwuh2w2i1/96ldmR6ESwwIcERGZTj8po6pqSR8868WXYDBoFLb0lhjRaBTt7e2wWq0IBoOIRCJQFMX4Aq5pmtGGyW63b3ldz5PJZCAIQt58LF6vF36/H2NjY2vaTtlsNty7d89Ytz7Hy9dff73tApzdbofH40EikYDH4zHyi6KIVCqV92VJURRks1kEg8GCte00gz6qkPPJEBHRXovFYltuQ+1yuYw521bb7t8s/W/306dP1zz23XffbXk92Wx23fu///77PXm/VlIUhXO40L5zuVx5x/9EtHOCIMBms2F+fh5ut9vsOFQB5ufnYbPZ+F2fto0tKImIqCjYbDY8evTI7Bi7YrVa0d3dnTeqTFXVvAIj8LfWTl988YWx3OLiIgDgzJkz21rX89jtdnR3d+fNxaKqKl566SVks9k1baecTmdeYU9vpfjgwYOCvU/nz58HAExPTxv36e/FRi2qSsWjR49gs9nMjkFERATgb8W1VCoFu92+7n/bvfhJP+m5XusvfS7TF154AQAgSdK2Mz958mTP35dSn8MlnU5v2n68UsXj8aJ+X/Q5q4ioMJqbmzE7O2t2DKoQs7OzJX++gsxRupeYExFRWWlsbMTs7GzJX702MzODjz76CIqibLiMKIqw2Wx5bSg/+eQTAPnznmxlXVsRj8cxMjKypfWsnrusqqoKwN9OqBVCXV0dAGBkZMQYFTc2NgaXy1XyV5PNzs4a894RERGZzWq1wuVyIZVKIR6PG3930+k0Ll++DKfTiffff3/bo8+bm5sRiUSQTqeNtsnpdBqpVAo2m804fihWc3NzOHXqVMHWp3cM2MrrFsLdu3eRSCSMz7OQufW24aIo4tChQzvuTKBpGpaXl7c8SrMQ69e3Zbfvy145evQoxsbGzI5BVDaOHj2KQCCAjo6Oku6iQsVP71g0NDRkdhQqQfztRERERaGurg4fffSR2TF2JZ1Oo6OjAwDQ1dUFj8cD4NlcbivnaQGAs2fPoqenB4qi4OWXX0YqlYIkScZV6NtZ12ZmZmaMkxH9/f04fPjwjtZTSBaLxWjDqaoqvv76a2SzWVy9etWUPIU0NzdnjPAjIiIqBrIs4+LFi5BlGSMjI6iurkYikQAAvPXWWzs6afnGG29gbGwMgUDAaKenKApsNhs++OCDoj8Rms1m96RIqM/FV2pWXgS1tLRk7B8ulwvd3d07ukBqdnYWHR0dBSs6bmX9sVjMhHdv66qqqjZsvUpE26fPHb64uMg5tGlP6R2LSnm+ejJPcR8VExFRxfjVr34FRVFKehJlvU2j3+/Pa/m4tLS0Ztnjx4+jp6cHX3zxBV577TUAyLsSezvr2sxnn30G4NlccitHF25UfFtYWMh7Pb1FZaFHpjU1NSESiWBsbMyYQ0YfGVeqcrkcFEXhpMxERLSnDh48mHfRzvPY7XZEo1EoioJ79+5hbm4OwWAQR48ezTthuXoU/GavJ4oiEokE0uk07t69CwC4cuXKmhOgG61zvdaU+uscPHjwucvuRiaTAYA9KcCdOXNm26Ov9Hl/zTz+lWU5byRZLpfD7du3EYlE4Pf7EY1G1z0W3Cz7H/7whz3d7vXWv9lou1wuh5/+9KdbKg5vZ9nt0Pe5TCazZyMDiSqJfmHn3bt3WYCjPXX37t2Sn6+ezMO9hoiIioI+n8hXX31V8gfPBw4cMP49MzNjXOk6MTFhtJwUBAGiKGJsbAzV1dWw2WzrXk21lXVtZr2TJSvnxli9nrm5ubwiqD5PxUYn0Lbqm2++ybttt9uN7c9ms2VxMPvVV19xUmYiItpzDodjR8dKoiji0qVLGz7e0tKSdxHOVl7veVk2Wmd3d/eW17VyWVVV8bOf/awgxSqzjztGR0cxPj5utAgXRREnT57Me79CoRASiQT6+/tx7do1ZLPZNSPKJElCNpvF7Oxs3jZpmoa6ujrYbDZjRNtWWa1W4/gwEongd7/7Xd6+oxdzo9GocV84HDaKj06n07jf6XRCkiTjc3zec1e+Rnt7u3Hs6/f7jTZzG61fv3/le6QXifX3IBgMoqmpKa8Apq/j/fffx6effoqenh7YbDY0NzejtbW1YPuK2fscUTlqamqCz+eDLMsleyEvFbdcLodEIlH0o6ypeP3Y7ABERES65uZmTE1NmR1jx5qamgA8O1HR29trnCjo6uoy7h8dHTWWP3/+PLLZLFKpFJqbm/O+lG93XRtpaGgwlg+FQvD7/ZBledP1eDweDA4Owu/3GycgfD7fjt6ThoYGY767UCgEVVXXbP/K7S1lU1NTnJSZiIhoD3355ZfweDw4c+YMZmZmjFFU27GwsACXy2XqdiiKgp6eHrz00ksYGhpCf38/AKCnp8cYobfStWvXIAgC/H7/msfOnj0L4FlLxpX0dlm7OTZpbW0FkF/Qisfj8Pv9mJycRDgcxtDQEGw2G2RZNi7yCofDRmvScDhsdHnYynOBZ0UzfVu7urpgs9kQjUZx+vRp5HK5Dde/2uDgIAKBAObm5hAOh40W6D6fDzMzM3nLLi0toampCd999x36+/tRXV2NSCSy5n3dLZfLhYWFhYKuk6iS6Rd2sjhCeyUWi0EURY5cph3j5TdERFQ03njjjbyrW0uN3W5Hf38/7ty5g2g0Cr/fb5wg+O677/D48eO85Y8cOWK0VVpdgNrquqxWa167ptW3a2pqjPXMzc2hsbFx3fXobZ9aW1vxxRdf4PPPP4eqqgiHw2hoaDA+j9XtoTa6rV99aLFYcPXqVaMV5urtB1AWB7P6pMwrr+YmIiKivbG4uIh3330Xf/3rX1FTU4NAIIAjR45sefTDXo1W1zsHrKe2ttY43pmfn4ckSWhvbzfuO3z4MHw+37pdDhobGzccvejz+dDT04M7d+7ktRvXL2rbTQHOYrFAFMW8NvGxWMwoiOnv48TEBOrq6tDX1wev1wuv14tkMglFUfJGtm3luQAQCARgs9kwMTEBi8UCn8+Hd999F6lUCvPz8xuuf6VcLodIJJK3HgA4ffo0PB4PZmdn894vRVEwNDRkjMLUP4/Vy+0WOyUQFd6VK1dw+fJlvP322yV5HoGKl6ZpuHXrFj744AOzo1AJ428lIiIqGqIowmazlfQkym63e90v6eu1i7Rareu2YNruulauQxCEvNsWi2XL69Hfc1EUN2xvubo91PNub7Yd09PTAJ7Nl1LqFhcXYbPZjKuxiYiIaG/99a9/BbC2GOf3+3Hs2DFTCh2JRGLDdo/hcNgotq1szalpGpaXl415d1dfsAUAJ06c2PA1rVYrXC4XUqmUUSTTLwxyuVy7fh+qq6uhKApUVcVPf/pTpFIpSJKEXC6XNwJRz6Cq6rqvqWnalp6rczqdxol0q9WKmzdvbiu3vq6V69HXJYoiJicn1xQ1V7aD1z+raDS6aetWIjKf/rM7NTW17Xk4iTajX8yy3nQhRFvFAhwRERWV5uZmXL9+nSOJylgul8P8/Dz6+vpgs9lQX19vdqRdu379OttPEhERmWRlMe69997DX//6V/zd3/0dWlpacPz48X0rxq03l9l6VFVFKBRCKpXa0nqfd4HPO++8g1QqhVgshpaWFqP95DvvvLPrbdLbT1ZVVRnr3azQmMvl1n2/t/pcvRDp8Xh2lVtv87jeeqqrq5FIJPKKhS6XiyNniEqUxWJBZ2cn+vr68rq3EO2Gpmno6+tDZ2cn9ynaFe49RERUVJqbmxGJRJDJZEq+LSGtlclk8uaTm5ycLPnJsjOZDBRFwccff2x2FCIiooqnF+P+9V//FR9++CF6enrwd3/3dzh16hS8Xi+ePn1qdkT85je/gaIocLlckGXZOBZqbGzc0fpqampgs9kwPj6OlpaWgl2xn8vlkM1mYbPZYLFY8POf/xwAjPaZ66mqqlr3/q0+909/+hMA4JtvvtlVdr1oudnnvbJYuJ8jJothHyQqNw0NDRgZGcHw8PCG3VyItmN4eBiCIKChocHsKFTiWIAjIqKiIggCJEnCnTt32O6lDAmCgP7+fhw+fBhWq7Us5sG4c+cOJEkqi20hIqLt2Ww0D9F6VFWFoiiw2Wzo7u42jh9mZmZ2vE6LxWJcxJZOpxGNRhEMBnd1xb6maXj33XcBAGfPngUAvPDCCwCApaWlbV8ot9Xn6i3pV7fiVFUVX375JQ4ePLilVvWHDh0C8GwknN7uU6f/zG5ULCSi0mOxWBAOh+H3+9HU1MSLeWlXMpkMIpEIotEoR7/RrnEPIiKionPq1CkEAgH84z/+I4saZcZqtRZ0InuzqaqKaDSKoaEhs6MQEZEJJEnadD5XKqx4PA5Zljdd5ic/+cmmLSgPHDhg6jb87Gc/AwBks1l8/fXXEAQBmUwGH330EYBnxaFTp05tez5kvQB3+fJlAEBTU9OO8mmahsXFRXzyySdIpVKw2Wx4++23ATwrWImiCEVRoCiKMcosHo+jr68Pzc3Na0ae6F0ttvPcxsZGRKPRvPfhd7/7HaLRKGKx2LrrX81isUCSJCQSCbS2thqvl06nATwr9Jl1UtXsfZCoXImiCEmSEA6Htz1vJNFK4XAYkiRxjncqCBbgiIio6DgcDkiShN7eXp7UoqLW29sLSZK2fZKMiIiICkcvutXU1MDv9+PYsWOmXMQ1MjKCZDK54eN6QUkvDAUCAbhcLqRSKUiShDfffBORSASBQACTk5Pbem1BEIx1iaK4rdEfK9uDr+RyudDd3W0UqvQRJu3t7fD7/caJSUVRAABHjx7N29ZEIoGLFy+iuroa3d3dW37uiRMnMDk5abw/3377LRRFgSRJxnatt/7VWltbMTc3B7/fD0mSsLS0ZIw+DIfDe7QXEJGZLl26BL/fj3g8vqU5OYlWi8fjWFpaQjQaNTsKlQkW4IiIqCi1t7fD5/Ohvb2d7SOoKGUyGSQSiTVXYhMREdHeW1l0CwQCOHLkiGnzyh48eBCSJG15eVmWUVtbi/HxcaM9d11dHf7yl7/gxRdfxMLCAgCgtrZ23edvdL/P50MqlcL58+d3nFsQBNTU1EAUxXWv/BdFEYlEAul0Gnfv3sXS0hKCwSDeeOONvOUdDgf8fj9UVd32c1cud/36dTidTly5ciVvTrv11r96W0RRxMTEBBYXF431hMPhNdslSZLRsnL1/URUWgRBwNWrV9HR0YHa2lqeS6BtyWQykGUZ/f397MZEBfOjH3744QezQxAREa0nFApBVVW2j6CidO7cOQiCwFGatCvxeBzJZJL7EVEJ4s/v/tNbUO6m6BaPxxGLxcru+FLTNJw+fRqKoiCZTJpWjKTNnTt3Dj6fjyNziPZYb28vJicnMTExwTm8aEs0TUNTUxMaGxtx6dIls+NQGfmx2QGIiIg2IssylpaWEI/HzY5ClEdvS/G8eWiIiIiocI4dO4ZkMomRkRG43e4dFZlqa2uRSqXM3pSC0TQN6XQa/f39UBQFXV1dLL4VsVQqteEIRiIqnI6ODlRXV+PChQvQNM3sOFTkNE3DhQsXUF1djY6ODrPjUJlhAY6IiIqW1WrF1atXIctyXnsZIjOpqgpZlnH16lWe4CIiItpHgiAU7G9vuZyQnZqaQiAQQDQahSRJaGlpMTsSbaBc9jmiUmCxWPDb3/4WS0tLuHDhgtlxqMhduHABS0tL+O1vf8sRk1RwLMAREVFRc7vdkCQJoVCIX1rJdJqmIRQKQZIkuN1us+MQERHRNunzAS0vL5sdpSCOHTuGWCzGdqglQN/nOCcV0f6wWq2IRqNYWlri+QRal/79fmlpCdFolBfY0p5gAY6IiIqe3oqyv7/f7ChU4fr7+9l6koiIqMTZbLayKcAJggC73c6ThiVgeXkZNpvN7BhEFUUQBESjUczNzbEdJeXR207Ozc0hGo1CEASzI1GZYgGOiIiKnn7lWjQa5XxwZJp4PG7shzzJRUREVLqcTicePHhgdgyqMA8ePIDT6TQ7BlHF0YtwejtKTm9BqqoabSdZfKO9xgIcERGVBEEQMDQ0BFmWkU6nzY5DFSadTkOWZQwNDfHgnIiIqMR5PB48fPjQ7BhUYR4+fAiPx2N2DKKKJAgC7t27BwDw+/08p1DB0uk0/H4/AODevXv8fk97jgU4IiIqGQ6HA8FgEIFAgAfMtG/S6TQCgQCCwSAcDofZcYiIiGiXRFFEKpUyOwZVmFQqBVEUzY5BVLGsVitu3ryJs2fPIhAIoLe3ly0pK4imaejt7UUgEMDZs2dx8+ZNdrahfcECHBERlZS2tjYW4WjfrCy+tbW1mR2HiIiICuDQoUMAAEVRzI5CFULf1/R9j4jM09LSYswL19TUhJmZGbMj0R6bmZlBU1OTMd9bS0uL2ZGogljMDkBERLRdbW1tePHFFxEIBNDV1cWDJ9oTo6Oj6Onp4T5GRERUZiwWC1wuF+bn5zkiifbF/Pw8XC4XLBaehiMqBqIo4vbt25iamkJHRwdEUcSZM2fQ0NDAn9MyoWkapqamMDIyAkVREA6H+fmSKbjHERFRSWppacGrr76KQCCAb775Bh0dHTyQooLQNA39/f2IRqMYGhpi20kiIqIy5PP5MDIywotsaF+Mj4/jzJkzZscgohUsFgu8Xi/q6+sxPT2Nvr4+9PX1obm5GUePHkVNTQ3PMZQYTdOwuLiIBw8eYGxsDADQ2dmJ+vp6tpsk0/C3CBERlSyHw4HJyUn4/X7Mzc3hww8/hN1uNzsWlbBMJoOLFy9CVVVMTk5yQmYiIqIydezYMciyDFVV+fee9pSqqlAUBceOHTM7ChGtw2q1wuv1oqGhAYuLi5iamkIgEAAASJKE2tpavPzyyzh8+LDxnKqqKhbnTKJpGpaXl43bjx49wh//+EcsLCwgkUgAAPx+Pz744AMWUakocA8kIqKSJggCJiYm8N5778Hn86Grqwtvv/02D7JoWzRNw6effoqenh5IkoT333+f+xAREVEZEwQBoiji/v37HAVHe+r+/fsQRZGFXqIiZ7FY4HA44HA40NHRgcePH0NRFCSTSdy6dQvZbNbsiLQOm80Gp9MJj8eD1tZWHDp0iN/lqahwbyQiopJnsVjQ3d2Nt956C9euXcP4+DiuXLnC1oG0Jel0GtevX4eqqujv74fb7TY7EhEREe2D8+fP49q1ayzA0Z66desWrl69anYMItoGi8UCURQhiiK8Xm/eY6tHYNH+4whEKiXcU4mIqGy43W5MTExgeHgYgUAAoiiyEEcb0gtviqIgGAyitbWVB/FEREQVpK6uDtlsFul0mseLtCfS6TSy2Szq6urMjkJEBWKxWDj1BRFt2Y/NDkBERFRIFosFbW1tSCaTePPNNxEIBCBJEkZHR5HL5cyORybL5XIYHR2FJEkIBAJ48803kUwm0dbWxuIbERFRhbFYLAgGg7h7967ZUahM3b17F8FgkMeZREREFYpHAEREVJasViva2tpw+vRpTE9PY2RkBD09PXC5XKivr4fH4+FVaxUik8kgmUxienoaqVQKoiiis7MT9fX1sFqtZscjIiIiEzU3N6OxsRHt7e08NqSCymQySCQSmJycNDsKERERmYQFOCIiKmtWqxVerxderzevENPT0wMAEEUR1dXV8Hg8xnNEUcQLL7xgdnTahj/96U9QFMW4nUwmsbS0ZNynF15lWebJNSIiIjIIggBJkjAwMIDu7m6z41AZGRgYgCRJEATB7ChERERkEhbgiIioYtjtdrS0tKClpcWYOHlhYQHffPMNksmksZwsy2ZHpR2QJMn496FDh+DxeFBbW8sJmomIiGhT7e3t8Pl8aG1thSiKZsehMqAoChKJBGKxmNlRiIiIyEQ8G0VERBVJnzh5vdFQvPqZiIiIqHLY7XYEg0HIsozbt2/zwh3aFU3TIMsygsEgOy8QERFVuB+bHYCIiIiIiIiIyEytra1QVRVTU1NmR6ESNzU1BVVV0draanYUIiIiMhkLcERERERERERU0SwWCzo7OyHLMlRVNTsOlShVVSHLMjo7OzmSkoiIiFiAIyIiIiIiIiLyer2QJAmhUAiappkdh0qMpmkIhUKQJAler9fsOERERFQEWIAjIiIiIiIiIgIgyzKWlpYwPDxsdhQqMcPDw1haWoIsy2ZHISIioiLBAhwREREREREREQCr1YqBgQFEIhGk02mz41CJSKfTiEQiGBgYgNVqNTsOERERFQkW4IiIiIiIiIiI/n+iKKK/vx+BQIBFOHqudDqNQCCA/v5+iKJodhwiIiIqIizAERERERERERGt4Ha7EQwGEQgEkMlkzI5DRSqTySAQCCAYDMLtdpsdh4iIiIoMC3BERERERERERKu0tbUhGAzC5/NxJBytkU6n4fP5EAwG0dbWZnYcIiIiKkIWswMQERERERERERUjvbASCAQwNDQEh8NhdiQqAnrbSRbfiIiIaDMswBERERERERERbaCtrQ0vvviiUXBpbW2FxcLTKZVI0zQMDw8jEomgq6sLLS0tZkciIiKiIsYjRiIiIiIiIiKiTbS0tODIkSNob2/Hw4cP0d3dDUEQzI5F+0hVVYRCISwtLSEajUIURbMjERERUZHjHHBERERERERERM8hiiLu3bsHAGhsbEQ8HoemaWbHoj2maRri8TgaGxsBAPfu3WPxjYiIiLaEI+CIiIiIiIiIiLbAarXi5s2bmJmZwbVr1zAyMoIrV66gpqaGbSnLjKZpWFxcxPXr16GqKvr7++F2u82ORURERCWER4dERERERERERNvgdrsxMTGB4eFhXL58GQDQ2dmJ+vp6WK1Ws+PRLuRyOUxPT6Ovrw8A0NzczHn/iIiIaEd49EBEREREREREtE0WiwVtbW1obW3F1NQURkZGIMsyRFHEyZMn4fF4UFVVxcJNkdM0DcvLy0gmkxgfH4eiKBBFEZ2dnWhoaODnR0RERDvGowgiIiIiIiIioh2yWCzwer3wer1QVRX379/H9PQ0enp6AAA2mw1Op9NYvra2FgcOHDA7dkV6+vQpFhYWjNtzc3PIZrMAAJfLhZMnT+L48eMQBMHsqERUJDKZDB49eoTvv//e7Ci0jp///Oc4fPgw7Ha72VGI1sUCHBERERERERFRAQiCgJaWFrS0tABYe+J2dQGI9t/KAuhbb73FE7dElGflhRSpVArA2gspqHisvpCivr6eF1JQUWEBjoiIiIiIiIhoD9jt9jXFHb04R0RExUHTNKOVsN6G9uTJk5Blma2ES8DqVsI9PT0QRRFnzpxhK2EyHfc+IiIiIiIiIiIiIqoomqZheHgYY2NjAIDOzk7U19fDarWaHY22wWKxwG63GyPQc7kcpqen0dfXh76+PjQ3N6O1tZWFODIF9zoiIiIiIiIiIiIiqhgzMzO4du0aBEHABx98gJqaGhZoyoTVaoXX60VDQwMWFxdx/fp1jI2N4erVq3C73WbHowrD3ypEREREREREREREVPZyuRzeffddpFIphMNhtigsYxaLBQ6HA7dv38bU1BQ6Ojrgcrnw29/+lqMcad/82OwARERERERERERERER7SVEUnDhxAgAwOTkJr9fL4lsFsFgs8Hq9mJycBACcOHECiqKYHYsqBAtwRERERERERERERFS2RkdH4ff70dzcjBs3bkAQBLMj0T4TBAE3btxAc3Mz/H4/RkdHzY5EFYAlfiIiIiIiIiIiIiIqS4ODg4hEIhgaGoLD4TA7DpnIYrGgra0NR48eRSAQwHfffYe2tjazY1EZYwGOiIiIiIiIiIiIiMoOi2+0HofDgaGhIQQCAQBgEY72DAtwRERERERERERERFRW9OJbLBaD3W43Ow4VGYfDgVgsBp/PB4BFONobnAOOiIiIiIiIiIiIiMrGzMyMMfKNxTfaiN1ux9DQECKRCGZmZsyOQ2WIBTgiIiIiIiIiIiIiKguKoqCjo4NtJ2lL9HaUHR0dUBTF7DhUZliAIyIiIiIiIiIiIqKSl8vl0N7ejmAwyOIbbZnD4UAwGER7eztyuZzZcaiMsABHRERERERERERERCUvHA6juroara2tZkehEtPa2orq6mqEw2Gzo1AZYQGOiIiIiIiIiIiIiEpaPB5HIpFAd3c3LBaL2XGoxFgsFnR3dyORSCAej5sdh8oEC3BEREREREREREREVLI0TUNfXx/C4TAEQTA7DpUoQRAQDofR19cHTdPMjkNlgAU4IiIiIiIiIiIiIipZw8PDEAQBDQ0NZkehEtfQ0ABBEDA8PGx2FCoDLMARERERERERERERUUnKZDKIRCIIh8NsPUm7ZrFYEA6HEYlEkMlkzI5DJY4FOCIiIiIiIiIiIiIqSQMDA5AkCaIomh2FyoQoipAkCQMDA2ZHoRLHSwKIiMg0qqoil8thYWHB7ChUgmpra2G1Wtnfn4iIiIiIqEKpqopEIoFYLGZ2FCoz7e3t8Pl8uHTpEs870I6xAEdERPsik8lgYWEBi4uLmJubg6IoxmMul4sHM7QtqqpClmXjtiiKcDqdqKmpQW1tLex2u9kRaR3xeBwA4PV6i3J9RERERERUWsbGxiBJEr8DUsHZ7XZIkoSxsTG0tbWZHYdKFAtwRES0J3K5HObn5/HZZ58hkUgAeFYkefPNN3H+/HkcPnwYgiDAarWaHZVKWC6Xg6qqePToEf7whz9gZGTEKO5KkoS33noLR44c4X62h+LxeF4xdD3hcBher9dYrlAFs0Kvj4iIiIiISoemaYhEIhgaGjI7CpWpU6dOIRAIoLW1lfML0o5wryEiooLRNA2Li4v45JNPkEqlYLPZ0NzcjGg0ikOHDvFghQrOarXCarXCbrfD7Xajra0Nmqbh8ePH+OKLL3Dt2jVks1m4XC688847qKmp4X64RzYbyXrw4EEAYFsYIiIiIiIqmNnZWdhsNjgcDrOjUJlyOByw2WyYnZ2F2+02Ow6VIJ6BIiKiXcvlcojFYrh16xYAoLm5GRcvXuQEyGQKi8UCURQhiiLa2tqgKAq++OILXL58GQBw9uxZ+Hw+joorMFmWn9v25XmP53I5/PSnP92wSKppGv7yl7/wsyMiIiIiInz00Uc4e/as2TGozJ09exYfffQRC3C0Iz82OwAREZWuXC6HwcFBeDwejI+Po7OzExMTE2hra2PxjYqGXoibmJhAZ2cnxsfH4fF4MDg4iFwuZ3a8iuJ0OuF0OvNuh0IhaJqGeDwOj8eDpqamNZ+N/nhTUxM8Hg9GR0ehadqa9WcyGYRCITidTkiShFAohFAoBFVVzd50IiIiIiIqIFVVoSgKjh8/bnYUKnPHjx+Hoij8Xkk7wgIcERFt28qT5Z9//jmGhoYQjUbh9XrZ3o+KlsVigdfrRTQaxdDQED7//HN4PB7E4/F1izm0P5aWlnD69GksLi6iv78f1dXViEQimJ+fN5Z57733jPne+vv7sbCwgKampjXram1tRSKRQDgcxvDwMGpra5FIJBAKhczeTCIiIiIiKqAvv/wSoihu2AafqFAEQYAoivjyyy/NjkIliGdJiYhoW9LptNHKr7+/n0PwqSQ5HA5Eo1HMzMzg2rVr6OvrwwcffMC5A0ygKEre75Jf/epXaGxsxJ07d+B2u5HL5ZBIJOByuXDjxg1YLBa43W7E43GjKAc8G/2WzWYhSRK8Xi8AoKWlBUeOHIGiKMjlcmxdSURERERUJmKxGE6ePGl2DKoQJ0+eRCwWM75rEm0VC3BERLQlmqahv78f0WgUXV1dePvttznajUqe2+3GxMQEPv30UwQCAfj9fnR0dHDf3gGfz7fhY7FYbNP5344cOWL8W7+CNZVKAYDR5kMQhLzPpba2Nm8ddrsdoigikUjg0KFDaG5uNq5UZEtcIiIiIqLyoWkaUqkULl68aHYUqhBHjhxBT08PNE3j+QLaFu4tRET0XIqioL29HYIgPPdEOlGpsVgsaGlpgcfjwcWLF9HU1ISBgQEWbbbJ5XJt2P7leSPPNnv80aNHAACPx5N3/3q/h8LhMNrb2xGJRBCJRGCz2XD27Fn4fD6OfiMiIiIiKhOPHz8GAH5no32j72uPHz/mfkfbwgIcERFtSm/zFgwG0drayit9qGzZ7Xbcvn0bw8PD8Pv9CIfDbC+xDbIs70lx/uDBgwCAp0+f5t2fy+XWLKuPgFMUBfPz8xgfH0dPTw+mp6dx8+ZNs98iIiIiIiIqAEVR4HK5zI5BFcblckFRFBbgaFt+bHYAIiIqTpqmYXBwELIsY2hoCG1tbSy+UdmzWCxoa2vD0NAQZFnG4OAgNE0zO1ZFe/nllwEACwsLeff/8Y9/3PA5oiiipaUFt2/fhiiKSKVSyGQyZm8KEREREREVQDKZxOuvv252DKowr7/+OpLJpNkxqMSwAEdERGtomoYLFy5gbGwMsVgMDofD7EhE+8rhcCAWi2FsbAwXLlxgEc5EVqsVoihibm7OKKLlcjkMDw/nLTczMwOn04l0Om3cZ7FYUF1dbfYmEBERERFRAc3NzeHo0aNmx6AKc/ToUczNzZkdg0oMhzIQEVEevfi2tLSEaDS64ZxOROXObrcjGo3C7/fjwoULuHHjBkeBmuTMmTOQZRk+nw8ulwupVAo2my1vmbq6OoiiiEAgAEmSUFtbi4WFBSQSCUiSxLkriYiIiIjKRDabRVVVldkxqMJUVVUhm82aHYNKDM8iERGRgcU3onyCILAI9xwHDx6EJEmwWq3PXVaSpE1vb3S/1+tFfX09bt++jc8//xzBYBDNzc0YGxszJmC3WCz4+OOP8eWXXyKZTKKnpweSJKG/vx9Hjhwx+20iIiIiIqIC0LtisABH+03f5zKZDC/wpC370Q8//PCD2SGIiKg4nDt3jsU3onWoqgq/34/q6mrcvHnT7DhURuLxOJLJJLq7u82OQkTbxJ9f2olcLgdVVY3bq+c4pdJQW1tr/FsQhC1diEREhZHJZODz+dgKkEzhdDoRi8VYgKMt4yXcREQEABgcHGTxjWgDK0fCDQ4Ooq2tzexIREREVOQ0TcPjx48xPz9vtEVezeVy8di7xKiqClmW19yvt8A+cuQIDh06xK4JRHtkYWEBLpfL7BhUoVwuFxYWFliAoy3j0QARESGdTiMSiWBoaIgnAIg2IAgCPvjgAwQCARw9ehQOh8PsSERERFRkNE3D4uIi7t69axTcJEmCx+PBqVOnUFVVxZN2ZSaTyWB5eRlPnjwx2mADzz73U6dOoaamhsU4ogLjeQsyC/c92i4eARARVThVVREIBBAOh1lQIHoOh8OBcDiMQCCAyclJHnwTERERgGetJW/fvo2xsTFks1kEg0FEo1GOhKoAdrvdKKp6vV68//77ePz4Mb744gsEAgHYbDY0Nzfj9OnTbFVJRERUYX5sdgAiIjKPpmkIhUKQJAler9fsOEQlwev1QpIkhEIhaJpmdhwiIiIyUS6Xw+DgIDweDz7//HNcvXoVs7OzaGtrgyiKLL5VIIvFAlEU0dbWhtnZWVy9ehWff/45PB4PBgcHkcvlzI5IRERE+4QFOCKiCvbpp59iaWlp3TkMSpGmachkMsaX2tW3i10ulyvKvHqu3RabCrWeYiDLMpaWlvDpp5+aHYWIiIhMoGka4vG4UXgbGhpCNBqF2+1m0Y0MFosFbrcb0WgUQ0NDRiEuHo+XxTExkRmePn1qdgSqcNwHaTt4VEhEVKEymQx6enrQ399vWiuUUCj03GW6u7u3vL7l5WX4fD6Ew2F4vd41t4vd9PQ0ZFkuurx6rlgstqs5Swq1nmJgtVpx9epVdHR0wOPxlPz2EBER0dZlMhlcvHgRqqqiv78fbrfb7EhUAhwOB6LRKGZmZnDt2jWMjIzgww8/5HEkERFRGeMIOCKiCjUwMABJkkw9YZBIJJ77324IgoBwOIza2lrTtnE7amtrizKvnmu78505nU7E4/Fdr6dYud1uSJKEgYEBs6MQERHRPonH4/D5fKiursa9e/dYfKNtc7vduHfvHqqrq+Hz+fKOl4no+Q4cOGB2BKpw3AdpOzgCjoioAmUyGSQSCcRiMbOjAADm5ub2ZL1Wq7WoRpI9z8oJ3IvJTnKpqloy27cb7e3t8Pl8aG9vL7ttIyIior/RNA39/f2IRqMc9Ua7ZrVa0d3djbfeegsdHR1YXFxER0cH25cSERGVGY6AIyKqQProt1IqGORyOYyOjuLcuXNwOp04d+4c4vH4pvOlqaqKUCiEdDoNAEin03m3davv128rioLBwUGcO3cOmUzGWD6TyaC3txdOpxN+vx+Dg4Nr5nDQ1xEKhdDb24t4PL7mdVfbKIeqqsjlchgcHIQkSRgcHFy3wLUeRVGMrOfOncPo6KiRNZfLGflWv9f6/Zqm5eVYb/sGBwcRj8ehKEreYwAwMjJiPHf1elZvXygUgiRJGB0dXfO56vOsSJJkzJmxXq79ZrfbOQqOiIiozOVyOVy4cAGTk5OYnJxk8Y0Kxu12G/vVhQsXim4uaCIiItodFuCIiCqMoihIJBKQZdnsKNsyMDCAnp4eo63kt99+C1mWNy185HI5JBIJPHnyBADw5MmTvNu61ffrt9vb2xGJRLC0tGTMk+f3++Hz+aCqKsLhMF566SVEIhFcuHDBWF86nUYgEMDS0hJqa2vxyiuvYGRkBIFAIK+Qt9pGOX73u9/hxIkTAIDq6mpEIhH85je/ee575vf74ff7jazffvstenp6jKxWqxWHDh1CNBrNa30TDoeRSCTQ0NAAi8Vi5NBPCMzMzBjb5/F4AAB9fX1ob29HLpdDVVWV0WayuroaHo8HP/vZz9asZ+X2eTweCIIAQRDQ09ODd99918iTyWTQ1NQEWZbhdDqRTCZx+vRp3L17N299ZpFlGYlEwihAEhERUflQVdU4Drt3717ZtNKm4iEIAu7duwcAOHHihKkXlxGVCv6ckFm479F2cWw7EVGFuXfvHiRJMgpKpSCXy2FychKiKKK7uxsA4PV6EQqFEI1G0d7evifbk81mEYvFjJGCqqpCURQEg0G0tbUZOXp7exGNRpFOp+FwODA1NQUAeZOqHz9+HL29vVhYWNj2yMPJyUncu3fP2MZQKIREIgFVVTc8CaQoyqZZFUWBKIpobW3F559/DlmWcezYMWSzWSQSCfj9fjgcjnXX/dlnnwEAPv74Y+P1m5qaMDAwgK+++goOhwMejweJRAIej+e5bUAfPXqE2dlZo+WO3+9HKpWCpmmwWCxIJpPIZrMIh8PGumZmZtDR0VHwz3wnrFYrJEnCvXv3cOnSJbPjEBERUYGoqgq/34/q6mrcuHGD7QFpz1itVty4cQMXLlyA3+9HNBplsZdoA7W1tSV3QTGVj1Qqxf2PtoUj4IiIKkgul0M0GsWpU6fMjpJHb2W4+r/R0VEAz76QJhIJRKPRvOcdOnQIwN5dgeRyufKKZV9++SWAZ8WmlX79618DAO7evQsAqKmpAfBsJJk+OksQBHR3d+9oTrrm5ua8AqM+6kzPs575+XkAwOnTp/Pu16/g1kdrWSwWfPzxxwCA3t5etLe3w2azbVrc0t/3UChkbJ/dbkd3d/eGRbvN1NfX553QcjqdAIDl5WUAwMLCAgCgoaHBWKbYWj+dOnUK0WjU9NF4REREVBiaprH4RvvKYrHgxo0bqK6uht/vX9Pinojy8WeE9hv3OdoJHkESEVWQ6elp2Gy2HRVJ9lIikdjwsZaWFgDPCkbDw8NYWlrat1Z/Pp8v73YsFlv3/tUaGhrQ19eHVCoFj8cDURRx8uRJ+Hy+HY3UO3r06LafMz4+DuBvxbrVksmkUQzU23rqV3FFo9FNTzKdPn0aY2Njxva5XC74fD7U19fvaPtWZ9QLmLpEIgGbzbYmkyRJm+47+8nhcMBms2F6enpHRVYiIiIqLhcuXGDxjfadXoS7cOECLly4gJs3b5odiajo6BfJLi8vl9S89lT69IuEud/RdvAokoiogsRiMZw9e9bsGGvMzc1t+riiKPD7/QCetSe8cuUKqqqqMDAwsK8FmG+//RYAEAwG8corr6x5/ODBgwCefXHW5wT74osvMDY2hp6eHvT09OS1tNyqqqqqbWfVi5ThcHjdx/Wsum+++cb495MnTyCK4obr1kckptNpTE1NYXJy0ijeJZPJkmpvWkhnz55FLBZjAY6IiKjEDQ4OYmlp6bkXJRHtBYvFgu7ubvj9fgwODhrt5Inob2w2GwtwtO+Wl5dhs9nMjkElhi0oiYgqRC6XM0YslZovvvgCwLMRT5cuXYLD4YDdbsfS0lJB1r+y+AQ86ym/nurqagDAG2+8Aa/Xu+a/1SMLRVFEW1sbEokEgsEgAGBgYGDb+fSrrLZDkiRjW56XVVEURCIRSJIEURRx7dq1LbX1dDgcuHTpkjFnHADcvn27IJ/JSi6XC9lsdk27h2IZ/abzeDxIpVJsQ0lERFTCZmZmEIlEMDAwwDm4yDSCIGBgYACRSAQzMzNmxyEqOk6nEw8ePDA7BlWYBw8eGFNmEG0VC3BERBXiq6++gs1mK+krxPS5xwAgk8kYo7wmJia29Hy9sLa4uGjcp2kaxsbGtvR8vXipFwT158fjcfT29iKTyUDTNPT29mJwcDDvufpcbDspGj558mTH79XK90bTNIyOjmJwcBCZTMa4T5/3TZZlfPjhh8hmswiFQuuuN5fL5c3Pp9PnwXv69Gne/atv78Trr78OAJidnTXuS6fTu15vodntdthsNnz11Ve7Wo+iKEW5fUREROUul8vh2rVrCIfDm3YDINoPoigiHA7j2rVrvMCLaBWPx4OHDx+aHYMqzMOHD0vyonYyF3spEBFViKmpKTQ2NpodY0feeOMNRCIRRCIRPH36FKqqIpFIoKurCz09PYhEInjxxRefeyCkF0ii0SgA4MCBA/j888/hdDq3NJpKn9stEong888/x5kzZ9DX14dsNgubzYb29nZYLBa88sor6OnpwePHj/HWW2/h+++/RzKZBABcuXJlX94zfZ629bKKoojW1lYAQH9/P7LZLPr7+2G1WmG1Wo33NR6Pr2mnaLVaIQgCenp68M0336ChoQFPnjwx5sfTC3H19fUAgFu3buHAgQPG7Z1+/mNjY+jo6DBG9qmqCr/fb3yWxaKxsRFTU1PbnmdRURTcv38fd+/exb/927/hH/7hH4purkYiIqJyFw6HUV1dzXbSVDS8Xi9isRjC4TC6u7vNjkNUNERRRCqVMjsGVZhUKoWLFy+aHYNKDAtwREQV4tGjR/D5fGbH2BFRFNHV1YXx8XFEo1G4XC6Ew2F4vV589913ePz4Mb777rstrWt4eBh37txBNBqFJEkYHh42CnrPo8/tlk6ncffuXciyDJvNBr/fj3/8x3805j5raWnBd999h4cPH6KjowPAszaKXV1d+1ZUWTlP23pZLRYL0uk0otEo/H4/3G638dy3334b4+PjkGV53cJZR0eHUbzUC2Aulwv9/f3GCEur1YpwOAxZliHLslGg2+nnPzExgampKYyMjOD8+fNwu91rRhkWg5qami1tq6ZpWFxcRDwe3/IITCIiIto7MzMzSCQSmJycNDsKUZ7u7m40NjbirbfeyjtmJ6pkescXRVE4Ypn2hd6BaWVnJqKt+NEPP/zwg9khiIho7zmdTsRisZJuQQk8K1xYLLu/fqQQ69nKOjRNw1/+8hejOGeWQr1v660XwJ6se6VcLoef/vSnea9z7tw5fPvtt0U1Ci6TycDn82Fubm7d92pxcRH//M//jHv37m26nn/4h3/Ahx9+aPbm0D6Ix+NIJpO8qp2oBPHnt3xomoampiZ0dnZy9BsVpXg8jr6+PkxMTOz5cTdRqTh37hzq6+vR0tJidhSqAKOjo5iensbNmzfNjkIlhnPAERFVAH2+r3KYSL5QXzgLsZ6trMNisZhefCvU9m603r0+CZBOp+HxeHDhwgWj4DczM4NUKrVvLT23Sv8Z03/mcrkc0uk0wuEw6urqEAgEnlt8IyIiov01NTUF4Fm7caJipO+b+r5KRIDP58P4+LjZMahCjI+Pl2xXKTIXL5shIqoAy8vLAFAUhSCi7XI4HBgaGkIgEEBdXZ1xv81mQ01Njdnx8ug/Y//jf/wP/Mu//AsePHiw43U5nU6zN4f2EUfQEBGZI5fLoa+vD52dnRxZREXLYrGgs7MTfX19qK+v5/c6IgDHjh2DLMtQVbUsLjam4qWqKhRFwbFjx8yOQiWIR5dERBXgyZMnkCTJ7BhEO+ZwOBCNRqEoCp4+fYoDBw6gvr6+KE+USZKEF154AcFgEL/85S93PMfbem0sqfzoLeyIiMgcsVgMgiCw9SQVPa/Xi5GREcRiMbbcI8Kz7iOiKOL+/fv8maA9df/+fYiiyEIv7QhbUBIREVFJEEURXq8XLS0t8Hq9RX3l709+8hM4HA5cuXIFs7OzGBoaQnNzs9mxiIiIaAVN03Dr1i2cOXPG7ChEW3LmzBncunXLaMtOVOnOnz+PW7dumR2DytytW7dw/vx5s2NQiWIBjoiIiGgPWSwWFuOIiIiK0OLiIrLZLOd+o5LR0NCAbDaLxcVFs6MQFYW6ujpks1mk02mzo1CZSqfTyGazedNhEG0HC3BERBXg6dOnZkcgqigb/cyxGEdERFQ8PvnkEwSDwaJsaU20HovFgmAwiE8++cTsKERFQf+ZuHv3rtlRqEzdvXuXxwq0KyzAEREREZlgdTEuGo3i7Nmz+MUvfoGf/OQnZscjIiLasng8jng8bnaMbcnlckilUrwQhkpOc3MzUqkUcrmc2VGIikJzczMSiQQymYzZUajMZDIZJBIJHivQrrAAR0RUAQ4cOGB2BKKKst2fOYvFAlEUce7cOXzxxRf4b//tv5m9CUREVOTi8TicTiecTuem80H5/X44nU6EQqE9yyLLMmRZNm5rmlb0J0Ln5+chiiIEQTA7CtG2CIIAURQxPz9vdhSioiAIAiRJwsDAgNlRqMwMDAxAkiQeK9CusABHRERUxFRV5dWtFYgH+EREtB0bzQeVyWSgKMqev34sFkMsFsvL4/P5zH5bNnXnzh2cPHnS7BhEO3Ly5EncuXPH7BhERaO9vR2JRGJf/uZRZVAUBYlEAu3t7WZHoRLHAhwREVER+81vfoPp6WmzYxAREVGREkVxw/mgJiYmnvt8TdO2fLFPLpdbd7Sd3W6H3W43bj948GBH69kvmqYhlUrB4/GYloFoNzweD1KplKk/R0TFxG63IxgMQpZl/lzQrmmaBlmWEQwG845viHaCBTgiogpw8OBBJBIJs2OUFVVVoarqmvtzuRwymcy6J7L0dkwrH9toPfqyiqLgm2++QSaTWfNFQtM0zMzMrPuYnkO/X1EUKIqyZrl0Os0RdgWWSCRw8OBBs2MQEVGFOHny5LrzQWmahrGxMfj9/nWfpygKent7UVdXB4/Hg97e3jUjB5xOp/H8eDyOEydOoK6uDoODg3mvp7fC1P8diUSMf69sfam/psfjMdaz3muGQiHE43FIkrQnrTMfP34MADypRiVL33f1fZmIgNbWVqiqiqmpKbOjUImbmpqCqqpobW01OwqVARbgiIgqQFVVFQCw0FIAuVwOoVAIjY2NaGxsNE44hUIhaJqGr776Cj6fD7dv317z3E8//RQ+nw9fffXVc9ezvLxstG6KRCLw+XxYXl4G8Kyd1ODgIOrq6tDR0QGfz4empiak02njtaanp+Hz+TA8PAxJkuD3++H3+1FXVwdVVZHJZHDu3DkEAgF4PB4MDg6a/daWBf1nTP+ZIyIi2mv68cLqEfOLi4vIZrNoaGhY85x4PA6/349oNIpgMIhwOIzJyUn4/X6Mjo7mLasoCvx+P5LJJK5evQqXy4VIJJLXcnKlcDgMURSNf586dQoAMDg4CL/fj8nJSYTDYYTDYaNAGI/H89axtLQEWZZRXV29J6PU5ufnIUnSPn1CpW+9i8hK2WYXzG1nGbNJksR54IhWsFgs6OzshCzL617kSrQVqqpClmV0dnbCYrGYHYfKAAtwREQVQL9Ckgehuzc/P49EIoFgMIjJyUlMTk4iGAwikUjg008/hcPhgM1mQyQSWTPabHx8HABQU1Pz3PVUVVWhv78fABAMBhGLxYyijs/nQyQSQX9/P2KxmLFcIBBYc5IgEonA6XQiFoshGAwCeNbWsrW1Fb/+9a8xNDQEURQRiUSK+gRDqdB/xnhFPRER7Rer1QqXy4WRkZG8++/evQubzYaampq8+zVNQ19fHwAgmUyira0NXq8XExMTsNls67a+PnPmDLq7u+F2u/Hb3/4WwN+Oa1bzer2orq42/u1wOJDL5YxRcRMTE/B6vcZr6jlWUhQFXV1duHnzJrxeb8Hfs+npadTW1u71R7MloVBozX+jo6OIx+NFc2ymXxhWqLbo+jZuZHR0FKFQaM++u+gXqm22PVtZxmy1tbVFnY/IDF6v1xg9zVaUtF2apiEUCkGSpD05/qDKxAIcEVGFcLlcWFhYMDtGyZudnQUAvPbaaxAEAYIgoK2tDdFoFMePHwcAnD17FsCzK891ejvJYDAIi8Xy3PVYLBYcPnwYAPDKK6/AbrfDYrEYbZr6+/vhdrtht9vx/7H3/6Ft3Pue+P885+h8uOr2tMwRhKx6uzfEw4ZujVGJouQPCxNiVypetA5x8FD8R5wjVZw4BDnH3nSxQimRIVmntQlximqf2AsmK29ckhWYSrFDMTIXV7GJMC4lyzj43J6K4EUd0pPtXDhz6fcPf2dq2bLj32PZzweYRNLoPS+NRvbo/Xq/X+/y8nJcu3YNAJbMvHO5XGhra4PdbkcgEAAw36nV1dWF8vJyOBwOnDlzBgDw5MkTsw9v0ZuamoLL5TI7DCIi2mM++OADyLKMbDYLYH72TjKZRG1t7ZLR23Nzc8jlcnC5XLBarcb9FosFTqez4LpSR48eNf5vtVohiuKS0pEr0RMpHo8nLx6LxQKXy1WwVLo+s28rpNNpHD58eMvaX4tkMrnkp729HeFweNdWKUgmkyt+L5mamkIymdzWBKTH41kyE3OnO3z4MNLptNlhEO044XAYMzMz6O3tNTsUKjK9vb3GLHyizcIEHBHRHnHw4MG8hBCtz/vvvw8ACIVCGBgYMDqfRFGEIAgAYCTi7t69azxPH+FdXV296nYKWVhmJpvNGj+6xetAVFRU5N3Wk0MHDhww7tPLRD179szsw1v0pqenjcQpERHRdtFnuenXG/r1wvHjx5d9zjvvvLPkPn1W2OLricXXJvoMt9XSy2gXmnWmx7HwegZAXnJwM+nJxVdeeWVL2l8Pj8eDiYmJvJ+FVQpYxWJrqaqKXC5X8LGdMlOyEP0c5iwfonxWqxVdXV2IRqN5yzQQrSSTySAajaKrq2vLrkFob2ICjohoj6isrMTw8LDZYRQ9u91urG3S3t4OSZLg8XjQ3d1tfPkVBMEYza2P3B0cHIQoikZpwtW0U4g+Wlhf+03/8fv9Bbd//fXX827rHWgLR5/vpA6oYjc8PFxwrR0iIqKtks1mYbFYIEkSBgcHAQB37tyBKIrGIJuF9E6l58+fL3nsxx9/3JIY9TLahdpfnOzbanoycKeXi3Y4HDh//jwA4MGDB3mP6esBO51OSJKE69evF7x+lGXZ2O769etLZi1mMhm0trYik8lA0zR0d3cbM8FWk9RZbRybJZvN4vr168b+Cl03K4qC7u5unDt3zlhfeWxsbNm4MpkM/vSnPwEA+vr6Cpa+VFXVODYDAwM7pjSofg7r5zQR/UIURXR2dsLv9zMJRy+VyWTg9/vR2dlZ8NqJaCOYgCMi2iMOHTqEXC63ZHQxrZ3X60UsFsPw8DAikQiA+bXWRkZGjG0++OADAPMj0GVZRi6XMzpR1tLOcvT13xb/NDc3AwBeffVVsw/TnpPNZpHL5XDo0CGzQyEioj2opqYGuVwOiUQC6XQaJ0+eLLidIAiw2WyYmJhY8tjjx48B/DI4x+PxbEpsdrsdNpvNaH+hmZmZbT1Oc3NzsNls27rP9dKv57777jvjvtbWVvh8Pjx8+BCRSAQlJSWIxWKorq7OSzKdO3fOSMq2tLRgeHgYkiRBkiRju2fPniGZTOLzzz9HdXU1ZmdnIQgCwuEwqqurV5x5d+7cOfh8Pjx+/BiRSAS///3vEYvFUF9fvyVJOEmS4PP5oCiKsb9oNIoLFy7kbdfa2opoNIqDBw+ipaUFMzMzCIVC+OKLLwq2u2/fPmMWZklJCdxuN/7hH/7BePzOnTuoqakxHm9vb0dDQ8NWvu1rYrPZmIAjWkZ5eTmCwSD8fj/7QWhZ2WwWfr8fwWAQ5eXlZodDuxATcEREe4TVaoXL5VqyyD2tjaZpxqhXQRDg9XqN2vIdHR3GdqWlpbDZbLh58ya++uorAMCxY8fW3M5i+gy2Fy9ewG63Gz/79u3Dvn37jMdZBnH7pVKpJevpEBERbRdRFGGz2YzriJXWUKutrYUsy3mzAjKZDNLpNGw2mzFjbaMWdnhWVVUhnU4v2acsy3lVArbas2fP4HQ6t2VfG6FpmlHOXJ9dr6/t53K50N/fD6/Xi7a2NrS0tCCXyxmDuPT3UpIkDA0Noa6uDkNDQwgGg5Blecmsw3Q6jd7eXrS1tSEWixntff311wVjUxQF6XQaLpcLN27cgNfrxa1bt4z2V1P2fmZmBolEouDP4qSsoijGWsptbW3G/iRJyjunstms8bqbm5tRV1eHWCwGALh9+3bBOOx2u1Ei3u12w+v15l3LDQ8P4/79+wgEArh16xY8Hg9kWd4xZUGdTifLyBOtIBAIIBgMwufzcSYcLZHJZODz+RAMBhEIBMwOh3YpJuCIiPYQn8+37JdPWp36+nrU1NQU/NJdW1tr/N9isRidW4ODg5AkKa/s42ra0b/89/X1GY/pa8f19fUZZYRkWUZ9fT2OHTvGLxUmun379oqdnURERFvt7NmzyOVy8Hg8Kw4IOX78OGw2G/x+vzEryu/3w2az4dq1a3nXLOtx+vRpAMDFixfR2toKYH6Gnr5PfXaWvk+9EsBetTgZNTAwgOrqaiSTSYiiaMyuf/LkCYD547rwPdLXH9YH2j169AjA/OAvfTuLxWIkmhauKQzMrxG8MAHqdrsBYNlE2jfffAMACIfDeXHo17AL10FejizLCIfDBX8Wl8rUE4F6/Dr9uljfn91ux8TEhFERQufxeNZdCaS2tjbvs6QfG/0YENHOpyfhWI6SFtLLTjL5RlttY1fVRERUVCoqKhAOh5HJZOBwOMwOpyh99tlnqKqqQlVVFURRxO9//3uk02kA80m1hWpraxGNRpHL5YzSNWtpRxAEeDweJJNJOJ1ORCIReL1eRCIR9PX1QZIk2Gw2Y9F4j8fD99UkmUwGuVwOFRUVZodCRER7xP79+5ck2t59911MTU0tKZHn8XhQVlZm3BZFEclkEplMxkhefPjhh0uuIxY+Z6X7F5eqdDgcCAaDeTOtFu7z888/R0lJScF9blbZy2KiJ6MWcrlcOHv2LE6dOmUkufQZbpIkrdieftwXV0TQZzaOjo6irq7OuF8vwajTk3GFypQCwJdffgkAGxp45HK5lrxmXSQSMa6LASAej696f2NjY/jyyy8xMzOzJJG3HkeOHCl4/4sXLzbcNhFtn0AggNdee81IuDQ0NGx4sAkVJ03T0Nvbi2g0ipaWlry/h0Rbgb9piIj2EKvVCkmScPfuXSZq1kkQBAwPD+Obb77B+Pg4gPnRt4cPH14y0vx3v/sdgPkOp8UL+a62nXA4bIy01Tu7vF4vvF4vMpkMRkZG8Oabb+Lw4cM4cOBAXvuRSGRJB9np06eN9l62La3e3bt3IUkSy08SEdG2cTgcS67nBEFAW1vbkm0L3bdcGwvV1dUV7JhafH+h9pcbTe5wOHDr1q1l97lcrMB8KcJ/+Id/2HV/bz0ez4qve+HrB4BgMIg333xz2e30kuTLWVzi8bXXXltX3MvFsX///pc+VxCEZcuOLo7/hx9+WNX+xsbGEAqFjG0jkQheeeUVXLx4cd3JuM0qx0pE5qurq8Phw4fR2NiIx48fo62t7aW/L2l3URQFra2tmJmZQSwWW9JPQ7QVmIAjItpjampqIEkSwuHwruu82C6CIKC8vPylC/Tqo5TPnDmz7nasViu8Xm/Bx1bqNFvueYW2X2kf9HL6eiz6GiNERES0Nb7++muEw2GUlpbivffew7vvvrvmztPnz5+b/TLWTX+tb7311orXj8eOHUMsFsPc3Fxekmtubg4AlqyBNzU1lZdQ1Us1vmytvCNHjmzLoL6SkhLIsozjx4+v2Fmqz8xbWE5M07QNzYRbfAx3omI+p4m2myiKuH//Pv70pz+hqqoKkUgElZWVnA23y2mahpGREYTDYbhcLty/f5/9YbRtuAYcEdEeI4oiPB7Pnl9rYyuNjY3h+vXr6OjogMvlQmVlpdkh0RaKRCLweDwcPUdERLRNpqen0d7ejqqqKtTU1CAaja46yfL666+bHf666deUeqJJl0gkcP36dWNto8OHDwOYHwymaZqxnb5G3MKqCQCQTCahqqpx++nTpwDmE3mFvPfee0b7Ok3TjDjWs9baSvTqDV999dWK+9NnCC4sG6lXmlj4upbz3XffLbnv2bNnm/patkIxn9NEZrBarbh16xY6OzvR0dGB+vp6ZDKZvN+XtDtomoZMJoP6+np0dHSgs7MTt27dYvKNthXT+0REe1BjYyN8Ph8aGxt3/IjOYqSXvhFFEW1tbRxNt4tls1kkk0ljbRIiIiLaXn/961/R3d2N7u5u/O53v4PH44HX60VpaemuuwZzOBxwuVxIJpOYmJjA2bNnce/ePciyDJvNhj/84Q8A5juXXS4XYrEYJiYmcObMGfT19Rnb6esN64OHRFGE2+021u1LJpOw2Wx4++23C8Zx7NgxiKK4bPt6HJulsrISHR0diEajePjwIc6cOYOOjg7kcjnYbDY0NjYCmC/nnk6n4ff70dLSYhwbSZIQi8UQCoUKVizYt28fbDYbotEo3nzzTZZlJ9ojysvLMTQ0hN7eXly6dAkA0NTUhIqKCiZoipyqqhgdHUVHRwcAoLa2luv+kWl41hER7UF2ux0ejwddXV2rWm+C1iaVSvGCfY/o6uqCx+NhIpuIiGgH+Nvf/obBwUEMDg4CAI4fP47/8l/+S8G1eovVrVu3IMsy7t+/j/b2dthsNkiShPfffz+vHOetW7eQyWRw9+5do+RWT09PXmLylVdeATBfLv3o0aO4fv06kskkWlpacOrUqWU7Ki0WC2KxGGRZRm9vL8LhsBHHH/7wh01fU8lisSCZTOa9noX709/bY8eOIRgMYnBwEO3t7UYSUk80KopScEabxWJBU1MTwuEwwuEwK4UQ7SEWiwWBQAANDQ0YGRlBX18fwuEwRFHEyZMn4Xa7sW/fPiZudjhN0zA3N4dUKmUMvhBFEU1NTSwxSqb71c8///yz2UEQEdH2y2az8Pl86OzsfOlaZkS01NjYGEKhEOLxOBNwtG6JRAKpVIqDIYiKED+/2y+RSCAcDq/pOb/61a/w888/4z/8h/+A06dP4//7//4/3L17d1es3app2qo6FZfbTv8+EIlEjPWAV9vmeuLYzte93TGZRZIknDlzhus5E20iRVHw4MEDjI6OIp1OAwBsNlveuphlZWUs/2qS58+fY2pqyrg9MTGBXC4HAHC5XKioqFjXGrFEW2X3X40QEVFBdrsdLS0tuHLlChegJVojVVVx5coVtLS0MPlGRLSHJZNJJJNJs8OgNfhP/+k/rXq9uJ1utQmmtSSi1pO02u5E12r2txeSbwAgyzJLZhJtMkEQUFdXh7q6OgDzgxWePn2KFy9eAFiaAKLttzAB+t577+HgwYP8Xk471t64IiEiooJOnTqF0dFRRCIRjt4mWoNIJIKSkhKcOnXK7FCIiMhEHo+H11DbaK0z4AqVoFQUBcD8YBoOQKNipqoqAPA8Jtpidrt9SXJHT84REb0ME3BERHuYxWJBW1sbqqqq4Ha7WbqEaBUSiQSSySSGh4f3zOhqIiKiYvC73/0OHo8HXq83b62zhfSSVIqi7PnEhdVqhcfjwf79+80OhdZBTyazzBoREdHOxV4jIqI9ThAE9PT0wO/3Y//+/XA4HGaHRLRjZTIZhMNh9PT0sLODiIhoB/jHf/xHvPfeezhx4gREUVzVc0RRxNOnT/d8uSpBEDiDs4g9ffp01ec8ERERmYMJOCIigsPhQDAYxKVLlxCLxZhYICpAURRcunQJwWCQiWoiIiITlZaW4r333sO77767ruvWEydOYHx8HOXl5Wa/FKJ1Gx8fx4kTJ8wOg4iIiFbwa7MDICKinSEQCKCkpASSJBnlTIhonqIokCQJJSUlCAQCZodDRES0Jx09ehSpVAp9fX2oq6tb96Cxt956C8PDw2a/HKINGR4exltvvWV2GERERLQCJuCIiMhw48YNJuGIFlmYfLtx44bZ4RAREe1ZgiBsyrptb7/9NnK5HFRVNfslEa2LqqrI5XJ4++23zQ6FiIiIVsAEHBERGSwWC5NwRAssTr5ZLKzeTUREVOwEQYDNZsPk5KTZoRCty+TkJGw2G5cOICIi2uGYgCMiojyLk3DZbNbskIhMkc1mmXwjIiLapWpra3Hnzh2zwyBalzt37qC2ttbsMIiIiOglmIAjIqIl9CRcbW0tfD4fMpmM2SERbatMJgOfz4fa2lom34iIiHah48ePI51OswwlFR1VVZFOp3H8+HGzQyEiIqKXYAKOiIgKslgsCAQCiEQi8Pv96O7uhqZpZodFtKU0TUN3dzf8fj8ikQgCgQCTb0RERLuQKIosQ0lFSS8/KYqi2aEQERHRSzABR0REK/J6vYjFYhgcHER9fT1LUtKulc1mUV9fj8HBQcRiMXi9XrNDIiIioi1UW1uLmzdvmh0G0ZrcvHmT5SeJiIiKBBNwRET0UqIoYmhoCE6nEz6fDwMDA5wNR7uGpmkYGBiAz+eD0+nE0NAQRxQTERHtAfX19ZBlGbIsmx0K0aro52t9fb3ZoRAREdEqMAFHRESrYrFY0NzcjJ6eHty+fRvV1dUYGxszOyyiDRkbG0N1dTVu376Nnp4eNDc3s+QkERHRHmG1WuHxeNDb22t2KESr0tvbC4/HA6vVanYoREREtApMwBER0Zo4HA4MDQ2hqakJoVAIkiQhk8mYHRbRmmQyGUiShFAohKamJgwNDcHhcJgdFhEREW2zxsZGJJNJllmnHS+bzSKZTKKxsdHsUIiIiGiVmIAjIqI1s1gs8Hq9SKVSOHHiBPx+PyRJQiKRYGlK2rE0TUMikYAkSfD7/Thx4gRSqRS8Xi9nvREREe1RdrsdHo8HXV1dZodCtKKuri54PB7Y7XazQyEiIqJVYm8TERGtm9VqRSAQQH19PeLxODo6OtDR0YHa2locP36c62jRjiDLMr766isMDg4CAM6ePQufz8fSPURERARgfhacz+dDQ0MDr19pR5JlGclkEvF43OxQiIiIaA2YgCMiog2zWq2oq6vDqVOnMD09jc8//xzRaBQ2m81Ixh04cICzjGhbaJqG2dlZI+mWy+Xgcrlw7do1lJaW8jwkIiKiPHa7HcFgEOFwGP39/bxWoB1F0zSEw2EEg0HOfiMiIioyvKokIqJNY7FY4HA4cOvWLaiqisnJSXz55ZeQJAkAIIoiTpw4gbfeegsHDx6EIAichUQboqoqFEXB06dP8e233+Lhw4eQZRkA4PF4cPnyZRw+fJjnGREREa2ovr4eg4OD+OKLL1BXV2d2OESGL774AoqioL6+3uxQiIiIaI2YgCMioi1htVpRXl6O8vJytLW1IZvNYmpqCtPT07h586aRJAEAl8sFQRDynl9WVobXX3/d7JdBO8Dz588xNTWVd5+iKEin08ZtURThdDpx5swZlJWVcXQwERERrYnVakVXVxckSYLb7ea1BO0I2WwW7e3tiMViHFBGRERUhJiAIyKibWG322G32+H1eo37FEWBqqpLkiuFEi60txVKyIbDYVit1iXJWyIiIqL1EEURkiTh4sWLLEVJptM0DRcvXoQkSVybkIiIqEjxapKIiEwjCAIEQSg4wpilf4iIiIhou4VCIdTX1+PChQu4deuW2eHQHnbhwgUA8+ckERERFadfmx0AEREREREREdFOYLFY8Nlnn2FmZgbd3d1mh0N7VHd3N2ZmZvDZZ59xJiYREVER419xIiIiIiIiIqL/P0EQcO3aNfj9frz22muszEDbamBgANFoFD09PSy1TkREVOQ4A46IiIiIiIiIaAGHw4Genh60t7cjk8mYHQ7tEZlMBu3t7ejp6YHD4TA7HCIiItogJuCIiIiIiIiIiBbRk3B+vx9jY2Nmh0O73NjYGPx+P5NvREREuwgTcEREREREREREBehJuFAoxDXhaMt0d3cjFAox+UZERLTLMAFHRERERERERLQMh8OBWCyGwcFBnDt3DpqmmR0S7RKapuHcuXMYHBxELBZj8o2IiGiXYQKOiIiIiIiIiGgFoigiFovhhx9+QHV1NWRZNjskKnKyLKO6uho//PADYrEYRFE0OyQiIiLaZEzAERERERERERG9hCAI6O/vx9mzZyFJEq5fv87ZcLRmmqbh+vXrkCQJZ8+eRX9/PwRBMDssIiIi2gJMwBERERERERERrYLFYkFdXR3i8TiGh4dRXV2NRCLBRBy9lKZpSCQSqK6uxvDwMOLxOOrq6mCxWMwOjYiIiLYIE3BERERERERERGtgt9sxNDSEpqYmdHR0oLq6GmNjY0zE0RKapmFsbAzV1dXo6OhAU1MThoaGYLfbzQ6NiIiIthiH2RARERERERERrZHFYoHX60VlZSW++OILXLlyBblcDsFgENXV1Uyw7HHZbBZDQ0OIRqOw2Ww4e/YsTp06xRlvREREewj/6hMRERERERERrZNelvLUqVOYnp7G559/biRdamtrceTIERw6dAhWq9XsUGkLqaqKJ0+e4NGjRxgcHEQul4PL5UJPTw9KS0uZeCMiItqD+NefiIiIiIiIiGiDLBYLHA4Hbt26BVVVMTk5ifHxcfj9fmMbj8eDAwcO4M033zQ7XNoE3333HWZnZ5FMJo37JEnC5cuXcfjwYSZdiYiI9jgm4IiIiIiIiIiINpHVakV5eTnKy8vR3NwMRVGQy+UgyzKmp6cxOztrdoi0CQRBgNvtRkNDA2w2GwRBMDskIiIi2kGYgCMiIiIiIiIi2kKCIEAQBIiiCK/Xa3Y4RERERLQNfm12AERERERERERERERERES7CRNwRERERERERERERERERJuICTgiIiIiIiIiIiIiIiKiTcQEHBEREREREREREREREdEmYgKOiIiIiIiIiIiIiIiIaBMxAUdERERERERERERERES0iZiAIyIiIiIiIiIiIiIiItpETMARERERERERERERERERbSIm4IiIiIiIiIiIiIiIiIg2kcXsAIiIiIiIiIiIiIiIdqJsNmv8f2pqyuxwCEBZWZnxf7vdbnY4RMtiAo6IiIiIiIiIiIiI9jxN0zA9PY1Hjx7h8ePHSKfTeY+7XC4IgmB2mHuaoigIh8N597lcLrzzzjs4cuQISktLYbEw7UE7A89EIiIiIiIiIiIiItqzstks7ty5g1gsBgCQJAk+nw/hcBiCIMBqtZodIhWgqioURcHU1BSmp6fh9/sBzL9/77//PmfHkemYgCMiIiIiIiIiIiKiPSeTyeDq1auQZRkejwc9PT2cQVVErFYrrFYr7HY7vF4vQqEQpqencffuXfh8PoiiiA8//BAOh8PsUGmP4m8SIiIiIiIiIiIiItozstksIpEI0uk0gsEgent7OcttF7BYLHA4HHA4HAiHw+jv74ff74fL5UI4HOaMONp2vzY7ACIiIiIiIiIiIiKiraZpGgYGBuDz+SAIAlKpFAKBAJNvu5DVakUgEEAqlYIgCPD5fBgYGICmaWaHRnsIZ8ARERERERERERER0a6mKApaW1sxMzODWCwGURTNDom2gdVqRVtbGxoaGtDY2IjR0VG0tbVBEASzQ6M9gDPgiIiIiIiIiIiIiGjXymQykCQJAHD//n0m3/YgURRx//59AIAkSchkMmaHRHsAE3BEREREREREREREtCtlMhn4/X7U1tbi1q1bLDe5h1mtVty6dQu1tbXw+/1MwtGWYwlKIiIiIiIiIiIiItp19ORbVsYpMQAAgABJREFUS0sL6urqzA6HdohAIIDXXnsNfr8fPT09cDgcZodEuxRnwBERERERERERERHRrqIn33p6eph8oyXq6urQ09PDmXC0pTgDjoiIio6qqvj+++8hyzK+++47zM7OAgCSyaTZoZEJPB4PAODAgQN48803IYoi3njjDZYVISIiIiIi2qP05FskEuHsJlqWw+FAJBLhTDjaMkzAERHRjqeqKp48eYJHjx7h4cOHkGUZAOByuXDw4EG43W4AQENDA1555RWzw6Vt9NNPPxnnw/T0NB4/fox0Og1gfoHlEydO4MiRIzh06BATckRERERERHuAoii4dOkSgsEgvF6v2eHQDuf1evHdd9/h0qVLiMViEATB7JBoF2ECjoiIdiRN0zA9PY2RkRHEYjHYbDZUVVXh/PnzePvtt3lBRAZRFAEg74uVoij45ptvMD4+jkuXLiGXy0GSJFRWVqK0tBQWCy+BiIiIiIiIdhtN0/DHP/4RTqcTgUDA7HCoSAQCAczOzuKPf/wj+vv72WdAm4ZrwBER0Y6iqioSiQSqq6vh9/sBALFYDMlkEs3NzSgvL2fyjV5KEASUl5ejubkZyWQSsVgMAOD3+1FdXY1EIgFVVc0Ok4iIiIiIiDZRb28vFEVBOBw2OxQqMuFwGIqioLe31+xQaBdhAo6IiHYEVVXR3d0Nt9uNvr4+NDU1YXx8HM3NzcYMJ6L1EkURzc3NGB8fR1NTE/r6+uB2u9Hd3c1EHBERERER0S4gyzKi0Si6urq4BAGtmdVqRVdXF6LRqLHUBdFGMQFHRESmSyQSqKmpwcOHD9HT04NYLAav18sp/7TpLBYLvF4vYrEYenp68PDhQ9TU1CCRSJgdGhEREREREa2TpmkIh8MIBoMcxEvrJooigsEgwuEwNE0zOxzaBZiAIyIi02SzWUiShI6ODjQ1NSEWi8HhcJgdFu0RDocDsVgMTU1N6OjogCRJyGazZodFREREREREazQyMgJFUdDQ0GB2KFTkGhoaoCgKRkZGzA6FdgEm4IiIyBQDAwPw+XxwOp24f/8+vF6v2SHRHuX1enH//n04nU74fD4MDAyYHRIRERERERGtkqqqCIfDuHz5Mivp0IZZLBZcvnwZ4XCYS1bQhjEBR0RE20pVVZw7dw63b99GT08PmpubWZudTGe1WtHc3Iyenh7cvn0b586d44U2ERERERFREejv74coiigvLzc7FNolysvLIYoi+vv7zQ6FihwTcEREtG0URUFNTQ0AsNwk7Uh6WUoAqKmpgaIoZodEREREREREy1BVFdFoFB9++KHZodAu8+GHHyIajXJwLm0IE3BERLQtMpkMqqqqUFtbixs3bkAQBLNDIipIEATcuHEDtbW1qKqqQiaTMTskIiIiIiIiKkCf/cYBvrTZHA4HZ8HRhjEBR0REWy6TycDv9yMYDCIQCLAmO+14FosFgUAAwWAQfr+fSTgiIiIiIqIdRtM0DA4O4vz582aHQrvU+fPnMTg4CE3TzA6FihQTcEREtKX05FskEkEgEDA7HKI1CQQCiEQiTMIRERERERHtMNPT08jlcjh27JjZodAudezYMeRyOUxPT5sdChUpJuCIiGjLyLJszHzzer1mh0O0Ll6v15gJJ8uy2eEQERERERERgLt37yIYDLLKDm0Zi8WCYDCIu3fvmh0KFSkm4IiIaEsoioLGxkaj7CRRMdPLUTY2NkJRFLPDISIiIiIi2tNUVUUymUR1dbXZodAuV11djWQyCVVVzQ6FihATcEREtOk0TYMkSaiqqmLyjXaNQCCAqqoqSJLE+u9EREREREQmmpychM1mg91uNzsU2uXsdjtsNhsmJyfNDoWKEBNwRES06T766CMIgoBQKGR2KESbKhQKQRAEfPTRR2aHQkREREREtGeNj4+jtrbW7DBoj6itrcX4+LjZYVARYgKOiIg21djYGJLJJD799FPWYaddx2Kx4NNPP0UymcTY2JjZ4RAREREREe1JsVgMR44cMTsM2iOOHDmCWCxmdhhUhJiAIyKiTaOqKkKhECKRCMtA0K5lt9sRiUQQCoVYA56IiIiIiGibZbNZAEBpaanZodAeoZ9r+rlHtFpMwBER0aaJRCJwuVzwer1mh0K0pbxeL1wuFyKRiNmhEBERERER7SlTU1MQRZFVd2jbWCwWiKKIqakps0OhIsPfUkREtClkWUYymUQ8Hjc7FFNkMhncvXsXp0+fhsPh2LX7LERVVXz//feQZRllZWWrnv2ox9/Y2Ljic/TtmpubIQjCuo/Tep+/nHA4DJ/Ph4aGBoiiuPkHloiIiHa9bDaLp0+f4ttvv8Xs7CxmZmYgy7LZYdECoiiipKQEBw4cwFtvvYWDBw+y2geRyaanp3HixAmzw6A95sSJE5ienuagc1oTJuCIiGhThMNhBIPBLfky6nQ6l9wniiJOnDiBt956C+Xl5Wa/fDx79gzJZBJut3tX77OQ/v5+RKNRAEBnZ+ey50A2m4UgCLBarXnxNzY2rup1NjY2riuBttHnL8dutyMYDCIcDhd1LXhVVaEoSsHHrFbrph4zIiIimh+49tVXX2FwcBC5XM5I8Ljdbrz33ns4ePCg2SHSAk+fPsWLFy+QSqXw8OFDyLIMm82G2tpaHD9+nAOxiEwwMTGB8+fPmx0G7TFvvfUWbt68aXYYVGSYgCMiog3LZDKQZRm9vb1bup+F5f7i8biR9HG5XLhx4wbLT5jk4cOHsNlsSCaTK27n8/kQiUTWPFrM6/Xu2BFm9fX1iEajyGQyps5C3IjR0VGEw+FlH3e5XPjggw+K9vURERHtBJqmYXp6GlevXoUsy3C5XLh8+TIOHz5sDE6inUkfXKZfj6qqisnJSdy5cwfRaBSiKOLDDz9EaWkpv48QbRNZljlYgbbdwYMHOUud1oxXBkREtGFXr15FMBjc8s6DhUkYr9cLTdNw4cIFpNNp1NfXo7e3F1arFZqmYW5uzphttXjmFTA/G2tubg7/9E//lDfDR1EUqKqKffv25X2B1hfaXTi7S9/P4tetaRpmZ2fx4sWLFZMWegyHDh1a8djpM5RWOxtJfw0LX7M+w2k9s5lUVcWTJ0+WdCrocemdSIWOs77d5OQkAOC7775DNpvFvn37lt3P4mOm70d/TxbeBoC5ubm890vv4NqOThCr1YpgMIirV68W9Sw4YH724sIvsT/99JMxOt/v92N4eJiz4YiIiNZhbGwMV65cAQDU1tYa16xUnKxWK8rLy1FeXg5VVdHf349Lly4BAC5fvrwjqnMQ7WYb+W5LtBH6OacoCs8/WrVfmx0AEREVN332W319/bbv22Kx4MaNG3C5XJBlGd9//z2A+YSMz+dDf38/nE4nfD4fRkdHjXj1+/x+P6qqqiBJkjGK6cGDB/D5fJienjb2o6oqfD4ffD5fXqm+2dlZ+Hw+PHjwwLhvenoax44dgyRJ8Pv9kCQJmUwmL+6xsbG8GNxuNyRJMpJ8C/d77tw5uN1u+Hw+VFVVIZFIvPT9qKqqQiQSwW9/+1uoqorW1lZUVVWhqqoKTqcTTqcTra2tq3pvW1tb4Xa74ff7cezYMXR3dxtxjo6OwufzAQDS6XTecV5odHQUoVAIABCNRuHz+TA3N5e3TSKRQE1NDfx+PzweD8bGxvKev/A5+u0vvvgCx44dMx7TNA2JRALV1dXw+/2orq7Oa2er1NfXQ5blJe9zsdHXM9F/RFFEIBBAU1MTAOSd5zpN0zA2NoZEIoFMJgNN0/IeX3i/LMvGbVVVjW0ymQzGxsaWPFenqirGxsaWbKO/38u9x4lEYsnnRW9ruXiB+cT42NgYstksstnssnERERG9TDabxblz5xAKhdDU1IShoSEEAgEm33YRq9WKQCCAoaEhNDU1IRQK4dy5c0uu64lo8+jfJfi7lLabfs4t/D5L9DKcAUdERBsyMjICSZJMu/i1WCx4//33kU6nMTk5mbcGQzQahcvlQkVFBcrKyqBpGi5dugSbzWaMPP76668RDofR29uLtrY2uN1utLe349GjR8ZMrCdPnhhtfvPNN8aoVn1W1+HDh40EXiwWgyiKiEQikGUZ4XA4b/aQqqq4cuWKEYMgCEYJwDt37qC5uRnA/AVdTU0NcrkcWlpa8MYbbyAUCiEcDmN6etrYbqFsNgu/3w+bzYZPPvkEFosF4+PjSCaTCAaDqK2tBQAMDg4iGo3C7XYvW9pRbwsAgsEgqqurMTQ0hGg0img0iomJCVRUVCAej8Pn88HlciEcDhccBVZRUYHOzk6EQiGjrYUz4BoaGlBbW4uuri68ePECly5dwpUrV15a0rK9vR0ejwdutxuCIGBkZAThcBg2mw09PT0AYJR52kpWqxWSJGFkZGRXlmksKysDAExNTaGurg7A/Ig//TxaSBRFfPbZZ8Z5oL8fJSUlSKfTxnYulwuffPIJIpFI3vusf36A+XPwzp07S2YW6ueyIAjo6+uDLMtIpVJ5v4MURUE4HIbL5YLX64WiKPjzn/+8pC2Xy4W2tjYj3u7u7iWvCZifHcjR7EREtBaJRALhcBgej2fJ3ynafSwWC7xeLyoqKhCJRNZdep2IXu7p06dce5FMI4oinj59mlcdiWglnAFHRETrpqoqYrEYampqTI1DL5s3NTW15LEbN26grq4Odrsdc3NzaGpqQldXF+x2OwRBgNfrhcvlQjKZhKqqsNvtsNlsePz4sdHGyMgIRFGEy+XC+Pi4cf/o6ChsNlvexb/L5TKSCF6v10gEffPNNwDmEwMLY7BarfB6vRBFEbFYzBhJNTo6ilwuh56eHtTV1aG8vBzDw8PweDx5s/B0iqKgoaEBNpsNsVjM6OTR433rrbcgCAIEQUAgEEAsFsPRo0eXPaZ37twBAPT09CAQCMButyMQCBjr8GWzWVitVuOiUxAE4/UsZrVajffozTffhN1uzysNWVJSgkAgAFEU4XA4UFVVhVwu99LEmSiKaGtrg9frhdVqRV9fH4D5JI7D4YDD4di2spA1NTV5799ukkqlAADvvfeecd+DBw8QjUYRDAYxMTGB8fFxI+l8/fr1vOfncjkA8+s2plIpuFwupNNpuN1uuN1ujI+Po7OzEwDw1VdfGc+7ePEiYrEYgsEgUqkUUqkUgsEgotGoMRvv5MmTAH5Jhi+MDwA++OADAPNJZ70tPd6Wlhak02n8+c9/BjA/o05fx2V8fBwTExNIpVIQRRFXrlzZle8tERFtPk3T0NrainA4jM7OTrS1tTH5todYrVa0tbWhs7MT4XAYra2tnE1PtMlevHiBkpISs8OgPaqkpAQvXrwwOwwqIkzAERHRuk1OTi5JQJlh8TpnOkmS8hI9drsdXq8Xr7zyCrLZrFES74cffsh7flVVFdLptPFleXh4GCdOnEBFRQWGh4cBzHeupNNpVFVV5e3znXfeybutz/T69ttvC8aQyWTyyuTpMeglMBfOFBMEAW1tbWhra8vbx/T0NCRJAjCffFo4C+39998HAIRCIQwMDBjlcERRXLFm+dOnTwEA//RP/5R3v/5eF0p2rpdexlJXWloKAC9NwJ0/fz7vtr794tflcrk2LdbliKIIm822JBFUTIaGhoyyjfrPuXPn0N7eDmB+pqfu3r17cLlcCAQCAH4Z9b0wmb1QOBw2ErT6++3xeOD1emGxWIzZZYODgwBgfD71MphWq9Uo8WSz2XDv3j0Av5w7esJYd/v2bQC/nEuDg4NL4q2rqzMS35qm4e9//zuA+c/g3/72NwDzv1t6e3sxNDTEzlMiInopfX3iiYkJDA8Pc/b0HqYPnpuYmMCFCxeYhCMiItqjWIKSiIjW7c6dOzh79qzZYeAvf/kLgF9mwun0znedpmn46KOP8kre2Wy2Je1VVlYiFothdnYWNpsNuVwOR44cwauvvor29nYoimLM6qmsrMx77ptvvpl3W0+gzc7OApjv3G9tbc0rx1cohomJCQBYVVkDfZaXzWbD7373u7zH7HY7IpEI+vr60N7ejvb2dthsNpw9exanTp3KS1AupMe3OJn1yiuvAJifFbVZJXX0Eodrtfj9Xu5YbtfiyGfPnsWdO3eKtrOtUOlFYL7kY319fV69ez05ttyahIqi5CWsFp7HehLX7XbnPUefGbeQ0+lc0rbT6TSSfFar1XiefluWZeRyOQSDQVgsFuPzWlJSsmy8c3NzsNvtxgy7P/7xjzhx4gSOHz9u+gADIiIqDoqiQJIklJSUYGhoaNlrLNo7BEHA0NAQLly4gOrq6iUD5YiIiGj34xUhERGtiz4DLBwOmx0KHj16BGBpwm2xL774Aslk0ijTqH8BPnfunJFQA4BDhw4BmJ/h98Ybbxj3/fa3vwUwX07y+++/z9tW9/z587zbc3NzebcfPHiAdDq9JAZJkvJicDqdkGUZiqK89Iu6nlBrb2/HRx99tGSGnNfrhdfrRTabxdTUFDo6OtDe3o5Dhw4tu2bZ4qRGMdCTpYsVKtm5FfT1AzVNK8pOt87Ozryk5sWLFyHLMo4fP75kfTUAxhqHa6UncRdbeJ7rMzALfab17fQk38I1IMvLy40ylsePHwcAfP311wDmk8qLE3yLNTQ04LXXXsO9e/eM9Q5tNhuuXbu2K9f3IyKizbEw+Xbjxo2ivA6grWGxWHDjxg1cuHABkiQxCUdERLTHsAQlERGtiz6jy+yFZzOZjNFJXlFRseK2etnEy5cvG198VVVd0imvz6oZHR3F+Pg4RFGE1WqFxWIx1oEbHR2Fy+VakpxaXJrxp59+yrutl867du1aXgyLyy3qM+v02X267u5uDAwM5JWxaWpqQl1dHTweD5LJJAYGBozHNE0zygHq5S+7uroAAFevXl32WOml/RYnr/TXt3j20k6gz5ZaXP7wZUmXzaJ/FvTPRrE5ePAg7Ha78fPpp58CABobGwuWTfJ4PJiYmCj4s9HfC2+//TaAX9afW2jxOXns2DEAv5ShHBwchCiKxsw1fYblauLVS1PGYjEMDw+jpaUFuVwOly5dYukoIiIqSF/zjck3Wo6ehCspKeGacESbYPGgV6LtxnOQ1oIJOCIiWpevvvoKHo/HlH1rmoZMJoPr16/D7/cDmE9CvWym1oEDBwDMd9RrmoZsNotIJGI8HolEjC/EFRUVSKfTiMViOHHihLHNO++8g+HhYaTT6YIJv2QyiUQiYbSvJzFOnz4N4Jck0eeff75iDPrMuqtXrxrrtsmyjGg0iqmpqYKdOx9//DFsNhva29shyzI0TUN1dTVqamoKzgJb+LoWO3r0qBGPvv9MJoO+vj4A6y8bWSihsln0pGAkEoGqqlBVFd3d3Vu2v0I8Ho8xA6vY2e12IwHV2dlp3K9/zhaWctVls9klCdD1EAQBoihiZmZmyWP6fvXyrhaLBZIkIZ1OY2xsDLlcDidPnlxzvIqiIJPJGL8DBEFAXV2dMTtVX5eRiIhIp6/59sMPPzD5RivSk3A//PAD14Qj2qDXX3/d7BBoj+M5SGvBBBwREa3L48ePt30WlNPphNPpxLFjx+D3+xGLxYxSjqtZj6y6uhrA/Iyo6upq+Hw+zMzMYHh42LhfTzQsfG1HjhzJ+79e5rDQ65ckCeFw2Gg/nU5DkiSjfF1NTc2SGBRFMdZxS6fTGBkZgdVqRSQSgaIo8Pl88Hg8kCQJwPyMpEIsFgt6e3uNbf7+97+jt7cXuVwOVVVVOHfuHCRJMtqpr69f9lgJgoCWlhbMzMwY+/f7/VAUBZFIZM0znOx2O1wuF5LJJJxO57JrcW1ERUWFMQvQ7XbD7XYjGo0ar3c7uN1uPH78eNv2t9VOnTplfMb0WZqCICAYDAIAWltbkc1mkc1mce7cOfh8PvzpT3/alH2fOHECsizn7aO1tRUAjPXddPqM0StXrgD4ZQanHq8+WGBhW5Ik5cX7l7/8BX6/H52dnUbCWlEUDA8Pw2azvbTELRER7T29vb2YmZnBZ599xuQbvZTFYsFnn32GmZkZ45qdiIiIdrdf/fzzzz+bHQQRERUfp9OJeDy+LSUoCyVrXn31VRw8eBD79u1b0uGhqipGR0dRVla2JD5VVRGPx/Hdd9+hsrIShw4dgtVqRSaTwbNnz7B//34jWabvt6KiwphFo7cNIC/pp6+vVlFRgSdPnuDJkyf48ccfUV9fv2RmnqIoePDgAX788UccOXIEpaWlsFgsGBsbw4sXL5bEnclkMDIygsrKSmPbhftcvL0sy5Bl2SjDpygKvvnmG4yPjwOYL9l3+PDhVa3tpmkapqenMTIygpqaGqOs3+L3Z+FxW46iKMZ6XPoMuqmpKRw9ejRvLYzFr2vhsbVarUtuL5bNZnHnzh2Ulpbm7We57TdTNpuFz+fDxMTElu5nMyUSCYTD4WU/z7IsQ5IkiKKI/v5+WCwWaJqGL774Ardv385bd89ms+H+/fvGcdZnfC48HvoxikQieZ+h1tZWJJNJY1v9s7pwH/p6h6dOnVryufd4PMjlcnC5XLh161beY4Xa0tsbGhoy2uru7kY0Gl1yDBbHutnHP5VKLVm7kYh2Pn5+9zb972MsFit4fUS0HJ47RBvDv79kptbWVrjd7i37fki7DxNwRES0Zqqqwu12Y3h4mIuIEy2gKAqqqqqQSqW2PNm3WVRVhaIoBZPZOr0MaaFtMpkMXrx4gbfffnvJ7wP9eQsTe5qmYW5uDoIg5B0jRVGgquqSJKCeBAawYpJXf/7idhdbKV79eDx58sRIyC9Mem8FdiAQFS9+fvcuVVVRU1OD2tpaBAIBs8OhItTd3Y3BwcG8gUtEtDqJRALxeHzJoDui7aBXfmECjlaLNRKIiGjN9PJsTL4R5dM/E4qiFE1nitVqfWmsK810XSkpVuh5Foul4P2CIBT8nWKxWF46u3Kl568lXv14rGZ/RES0d3V1dUEQBDQ0NJgdChWphoYGPHz4EF1dXWhubjY7HKKiIooi0um02WHQHpVOp3Hx4kWzw6AiwjXgiIhozaamplguhWgZoihiamrK7DCIiIhoC2SzWcRiMXz66adc943WzWKx4NNPP0UsFjMqBhDR6rzyyitmh0B7HM9BWgsm4IiIaF1KSkrMDoFoR9roZ0PTNHbEEBER7VAXL16EJEnbsg4y7W52ux2SJHEmBdEa7du3DwD4nYm23cKlGYhWiwk4IiIiIpOpqoqxsTFEIhEcO3YMHR0dZodEREREi2QyGciyjMbGRrNDoV2isbERsiwjk8mYHQpR0dBnH8/NzZkdCu0x+jnHGfC0FjxbiIiIiEygqiomJyfxP/7H/8Djx4/xm9/8Bv/2b/8GAMa/REREtHNcvXoVwWCwaNZ5pZ3ParUiGAzi6tWriMViZodDVDQ8Hg+ePHnCtZtpWz158gQej8fsMKjIcAYcERGt2fPnz80OgWhHW+4zos90O3PmDNxuN5qamvD48WMATLoRERHtZPrst/r6erNDoV2mvr6es+CI1qisrIzrbtO2m5qaQllZmdlhUJHhDDgiIlqz119/3ewQiHa0hZ8RRVHw9ddfIxaLYXp6Om+m288//2x2qEREVGRUVYWiKAUf26p1ycbGxvD9999jamoKzc3NEATB7MOw7Tj7jbYKZ8ERrd3hw4fR3t6OtrY2s0OhPSSZTKKhocHsMKjIMAFHREREtMn+3//7fxgYGMDAwAD+5V/+heUliYho04yOjiIcDhd8TBRFnDlzBpWVlZu2PommaQiFQrDZbHA6nWa/fFMoigJZlvHZZ5+ZHQrtUrW1tYhGo1AUZU8muInW6o033gAAZLPZLRt8QrRQNpsF8Mu5R7RaTMARERFtgYGBARw6dKjoatIXa9y70XZ2crKOvXm+//57TE9Pc/QuEa1ZZ2cnDh48CAD46aefMDk5idu3byMcDuP58+eoq6vblP3Mzc0BAJqamuD1es1+2aYYHByEy+ViYoS2jCAIcLlcGBwcRCAQMDscoh3ParXC5XIhlUpt2t87opWkUim4XC7OhKc1YwKOiIjWZbnSRzSvvb0dkUjE7DD2TNw7iaIo+Hf/7t/B6/Wirq5uxRKUK5mYmDD7pdA2SCQSSKVSZodBREXo4MGDeaP+RVGEz+eD2+3GvXv3lnRIapqG8fFxvHjxAvv370dpaWneLLlMJoNnz56hsrISs7OzkGUZ+/fvx927dwEA09PTAICKigqj80lVVUxOTgKYLwe2uFMqkUhg//79OHToEL7//nu8ePECDofDuL+0tBTT09N49uzZkpgymQxevHiBY8eObdpsvvXQNA2Dg4O4du2aaTHQ3vDBBx/g0qVLaGhoMPWcJyoWFRUVGB0dZQKOtsXo6CgqKirMDoOKEP+iExHRmomiiHQ6bXYYa5bNZo1Fc+12O8bGxjA+Po73339/SdkKTdMwPT2NR48eYXZ2FmVlZTh8+DBEUTS2UVUVo6OjKCsrw9OnT/Htt9+irKwMs7OzAGB0qv/H//gf8X/+z/8x9rtSTIWoqop4PG6sKyaKImw2GwRBWPH5ix9bqR39sYVxL+xg0zvtvvzySwiCgGPHjqG8vHzJvioqKvDkyROMjIwAQN522WwWXV1dcLvdS0pjrRRbsUmn07h48aJxWxAEeL1eeL1eo6Oyp6cH09PT+NWvfsV14IiIaNPoMwLS6bRRlktVVfT39yMajeZta7PZEIvFjL+1d+/eRTKZRCqVQjKZBDA/Q1r/v742VTwex7/+67/iz3/+85L1qiRJwh/+8AejzXA4bJSuTCaT8Hg8cDgcCIfDcLlcAJB3TenxeBAOhxGJRIz92mw2dHV15V2DbafZ2VnkcjmUlpaasn/aO0pLS5HL5TA7O2va+U5UTNxuN9rb26GqKmcl0ZZSVRXpdHrZEuBEK2ECjoiI1sxmswFA0V3oTk1NIRwOQ5IkTExMQFEU5HI5xGIxo8NHfz29vb2IRqMQRRElJSVob28HALS0tBgj7BRFQTgchiiKkGUZAPDf/tt/w+joKABgZmYGAPBP//RPRkfTrVu38mK6c+cOYrGYkfxaTFEUVFVVAfilTKDemaV3eq2m7dW0szjuo0ePwmq1oru7O+9YDA8PG8dML5unH1u9008/JrFYDJFIBN999x0GBwcBzC9c3NHRYXSsZbNZ+Hw+IzZFUZBOp2Gz2XD//v2iOsdUVQXwy2dkMavVivLycpSXlxvJuP/xP/4HHj9+vOqZcURERMvRNM1IaOkDc0ZHRxGNRhEMBo3SdolEAuFwGK2trUuuH2ZmZhCJRIwBPG63G+FwGPF43GiztbUVyWQSwWAQ9fX1AGAk+V5//fW8Enq5XM5o8+jRo8b96XQaLpcL8XgcgiCgoaEByWQSExMTaGpqwscff4yRkRGEw2F89dVXpiUkvvrqK3g8Hs5Ioi1nsVjg8XhMPd+JiondbocoihgdHd2zJZJpe4yOjkIURa43SOvya7MDICKi4qOPai7WMpSxWAxnzpzB0NAQUqkUJElCMpnEkydPjNelJ5xisRja2tqQSqVgs9lw+/btJe3JsoxIJILh4WGcOnXKGBV15swZtLW14a233jJmDeoJGmC+kywWi614IacnrXp6etDW1oa2tjbE43Hkcjl8/fXXxpeOl7X9snYEQVgStz4zLhqNwuVyob+/H21tbRgaGjJGxOuJR93MzAzi8XheUlFvd2hoyBj9nsvljPNnaGgIwPyI+ra2Nty6dcuITU8KFgv9Na1m5p6ejOvu7kYqlcInn3yCmpoaAMBvfvMbs18KEREViWw2i2w2C1mW8dFHHwGYn4mmi8fjEEUxLynm9Xrh8XiQTqeXXM+dOXMGXq93xZn5yWQSNpsNgUAAVqsVVqsVgUAAoiga1xwLnT9/Hl6vd8nfx3A4DLvdDqvVijNnzgAAqqqq4PV6YbFYjA7Vhw8fmnZ8Hz58iPfee8+0/dPe8t5775l6vhMVm5MnT6Kvr8/sMGiX6+vrw8mTJ80Og4oUE3BERLQuoihiamrK7DDWxeVyGR07VqsV77//PgDg0aNHAOaTJ+Pj4+jt7TWeY7Va4XQ6kcvlkM1mlxyLQp1KC50/fx4A8ma66Wup6I8V8uabbwIAPv/8c2iaBmB+pN/ExITRKbWatlfTTiH6ui7hcNgY+W2xWNDQ0AAAuH//ft72VVVVRofdwo672tpa4/lutxsA8M033+Q9V0/ErTa2nWhqampdI5b1ZFw4HMb4+DiamprMfilERLTD+Xw+OJ1O+Hw++Hw+Y0CRJEkIhUIA8mfEJRKJvB/dwgE8AF66vomesHM6nUseKykpyRtkozt27FjBtgol+Qptu3jAz3ZRFAWyLOPtt982Zf+097z99tuQZbloBzoSbTefzwdZlpd8RyfaLPogJ71qD9FasYYCERGty4kTJzA9PV10CRIAOHjwYN5tPXH2+PFj476//e1v+Prrr4310PSyiIWsZiSU3pl07949o4Tl3bt38x4rpLKyEh0dHUin06iurkZVVRUqKytRWlpqJLRW0/Zq2ilkfHwcABCJRAomGBd3DixeH0WfKbfwuWVlZQCAFy9eAADq6+sRjUYRjUYxODhoxOZwODbyNptienoaJ06c2FAbFouFpS2IiOilgsGgMcAGKLx+6tzcHID5BNZy65bMzc3l/d1ZbennAwcOLLnP7XYjmUziL3/5S14cha41livXvPg6zUx/+ctfinZNWipOgiDAZrMt+QwRUWFWqxUejwddXV3G8ghEm6mrqwsej6eolsagnYUJOCIiWpcjR47g0qVLaG5uNjuUNVucJNIvpH744QcA+WuSSZJkbP/DDz8UHIH9+uuvv3SfFosFwWAQ0WgU2WwWgiAYo9RXSoBZLBbcv38fo6OjRmnHWCyWtz7aatpeTTuFrDT61uPxGMm0jbBarUilUhgdHUVfX9+qY9uJhoeHce3aNbPDICKiPaC6unrVAzb0stqbQU8KzM7OLnlMH7i0b98+Y7/LzV7L5XIF73/69OmOGYjy5MmTgjP9iLaS0+nEkydPinIwGpEZGhsb4fP50NjYuGP+ftDukM1mkUwm86oNEa0VS1ASEdG6HDp0qGCJoWKgdw7pFpdS0kshulwuhEIheL1eeL3eDb/W6upqo329tKO+5tdKrFYrvF4vbt26hVQqZayh1t/fv6a2V9POci5evGisHbfwR59xt1F6bLFYDKlUCi6Xa9Wx7RSKoiCXy+HQoUNmh0JERATglxKPsiwbJah12Wx2SfnJ1bBarXC5XEgmk0sem5iYMLYB5ktSrpU+Q34nGB0dNUpnbyZFUTA2NoZMJrOu96BYKYpirFm40s92HZPW1tYdmWB1u91Ftw4ykZnsdjs8Hk/ekgZEm2FoaAgej4eJXdoQJuCIiGhdrFYrRFHEgwcPzA5lzfTOIZ0+Aluf6aaP6H7//feNGWTZbNbY7unTp6vaz/Pnz/Nu2+12iKKIwcFB3LlzB6IovnS9sEQigbGxMeO21Wo1SkgNDg6uuu3VtrM4br28lJ7U08myjEQiseEOElVVkUgkkMlk8mL75JNPAKCoFqF/8OABRFEsqhl7RES0+wWDQQDARx99hGw2C0VR0NraCp/Ph4aGhiWJudXQ14lrbW01kiatra3I5XLweDy7pnReOp1e19quyxkYGIDH40FVVRVCoRD8fj/cbjckScq7TtsK2Ww2b+0/M9q/fv26sWbhSj/blXwqKyuDx+PZln2thSiKy5a+J6LCTp8+jWg0WpQDhGlnUhQF0WgUp0+fNjsUKnJMwBER0bqdPHkS9+7dMzuMNcvlcpAkCZlMBgMDA5AkCcAva5O99957AIBQKISxsTF0d3fD5/PB5XIZ9y9MGC2mr91w+/btJaN4z58/j1wuh3Q6jTNnzrw01unpaYRCIQwMDBgdXPqssKamprxtV2p7Ne0Uiru+vh42mw3t7e1obW2FLMtobW2FJEkIh8P413/91w29F1arFdPT0/D7/XmxdXV1AQA+/PDDLTsPNtu9e/dWtR4gERHRdmpoaEAkEsHMzAx8Ph+qqqqQTCZhs9nw2WefrVgKezmnTp1CJBLBxMSEkTSZmJhAS0vLsmvNFRv9+u2VV17ZlPa6u7vR3t5uJCl7enoQi8XQ0tICRVFeen25UalUakvfm9W039zcjHg8bvzoyeHOzs68+/UE71arq6vbkWtG6efcXpodSbRRDocDHo8H169fNzsU2iWuX78Oj8fDcsC0YVwDjoiI1u3dd99Fe3s7FEUpqpHOkUgE+/fvx9WrVyHLMjweT169+GPHjsHj8SCZTCIUCgEAWlpaUFdXB0mSIMsy7t69i8bGxoLtW61WNDU1IRwOw+fzIRKJwOv1Gm3rVtO5EAqFoCgK2tvb0d7ebtzv8XhQWVmZt+1Kba+mneXivn//PuLxOG7fvm2UmxJFER9++OGmvO/LxSZJUtFc7CqKAlmW8e6775odChER7XIVFRWIx+PGOmsvY7FYjHLasixDlmWUlZUtKafU3Nxc8Nqm0P4WtqknjQr9zV6uzUJrqej7WXxtYda6K/osis0oO5VIJBCNRuFyufDJJ5/kzZYXRRGHDx+GJEm4dOkShoaG8pKiqqpidHQUr776Ko4dO7YkYZpIJLB//344HA5omobx8XG8+uqrKC0tNbZNJBLGoLmF2+vtf//995BlGa+++irefvvtZa/vstksfvrpJ8iyjMrKylW1v5AgCHltv/nmmwCAgwcPLjnOmUwGz549Q2VlJebm5jA1NWVcT2uaZtwHoOD5vPB9VFUVU1NTOHr0aN7+9X3o7S6+rc9KLHTc9ePx9OlT4/HFz18v/bUoisLKCkRr0NzcjKqqKpw+fbpovkfSzpTJZJBMJjE8PGx2KLQL/Ornn3/+2ewgiIioeJ07dw7vvPMOAoGA2aG8VCKRQDgcNhJLmqbhb3/727KdDKqqQlGUZb/Q61/+BUFY9ZfjbDYLn88Hj8ez5hG3eqfHgQMHlu0EWE3bL2vnZTEUer3LHQu902PhMVxuW/3+n376aVPLPW2H7u5uPH78GLdu3TI7FCoyiUQCqVRqR47AJ6KV8fO7c2UyGTx58gTvvvvuugcLybIMSZKWlC5fj3PnziGdTqOzsxPl5eUFt8lms9i3b19e+fOurq4la+0Fg0HU19cb11BOpxMejwenT5/GpUuXjJLpNpsNsVgMgiAsWedMv1ZUFAVVVVVLYll8LalpGj766KO8WGw2G7q6uiCK4rLtv4x+bR6Px5dcb7e2tiKZTCIYDCIajQKYLyOvaRrq6+shy3Le9jabbUnycmBgIG9wF4C8gXH6PvT3WL8dj8dx8eLFvH309PQYHfqKouD69evG8bDZbLh27Rru3r2b195GOJ1OxGKxorsmJjLbwMAAbt++veT3AdFqaZqG6upqnD17dtPWvKe9jSUoiYhoQ95//30MDg6ua/0Qs1kslhU7ZaxW64qjni0WC+x2+6qTb5qmGaUVGxoa1hyvvs5boS8Sa2l7pXZWE0Oh17vcsRAEYckxXG5b/f5i62jQNA2Dg4N4//33zQ6FiIiIADx79gzt7e2oqqpCTU0N/uf//J9rXhdIr5KwGfT1vA4fPrzsNna7Pe/a7OLFi0YCKpVKYXh4GB6PB9FodMkaaclkEp9//jl6e3sxPj6OlpYW5HI5Y63mhQmhiYkJIzmml2qLxWKYmJhAKpUyqkAsLH944cKFvFiCwaBR0l1RlGXb3wyDg4OIRCLGTMiRkRHIsoyWlhZMTEzkvd7p6WnjeXryzePxYHh4GJ2dnQCAcDj80vX2Ll68iA8//BATExPG80ZGRozH//znP+cdj66uLly9enVJsnQjPB7PkiQjEb3cqVOnIAgCPvroI7NDoSL10UcfQRAEnDp1yuxQaJdgAo6IiDZEL3u48EspLXXu3DkcO3bM+LK+mUmmrWybXk4/9xeWACUiIqKd4a9//Ss++eSTDSXjNiKbzQIAXC7Xmiom6AnAQCAAq9UKQRCMxFYqlVrynLa2NiOJp5fEXpyoW6yxsTFvlpXVajXWQtafq6oq0ul0XiyBQACRSASRSGTL1ymrra2F1+s1BnQdPXoUsVjM6Bhd+Hrv3r1rPE8vidnW1gZBEFBeXo6enh5EIhG8+uqrK+7z/Pnzxmw3fcZiLBYzHh8eHobNZjOOhyiKiEQiW3ociGh1LBYLPvvsMySTSSQSCbPDoSKTSCSQTCbXvUYuUSE8k4iIaEMsFguamprQ0dGRtxbETvSyL9tbSRAEtLS04I033li29NBObJtWpmkaOjo60NTUtKPPfSIiIvolGffJJ5/gH//xH1FXVwev17staxn/8MMPq9726dOnAIADBw4seczlciGZTOLjjz82rj1sNlvea9D/PzMzs+J+7HY7ZFk2Oqm/++47PH78OG+b77//HsD8OmsLbXSds9Wqrq7Ou62/Nn0A1PPnz4214HSapkGWZbhcrrz7V7sm1OKZivqsQGA+IZnL5ZbMjiz0XhGROQRBQGdnJ0KhEERR5ABVWhVZlhEOh9HZ2bkt1wW0d7CniIiINqyyshIdHR0YGRnZti/j61FeXr4pazKsx1auD8O1Z8yjd/5UVlaaHQoRERGtweJk3HvvvYcTJ05seketPnNLlmWoqrqqWXAvXrwAALz55ptLHtM7Befm5oy2F6/Bplvufp2+5pnNZjO2XZwo1Msgvv7665t6XNZLXzcOgJEEWzyjcW5uLu9YrdVK79Fysyc5EItoZykvL0cwGDRm+jKhQitRFAWNjY0IBoMc1EybjlcIRES0YfosuHA4jIqKilWX1yEqZqqqIhwOIxKJsNOFiGiPSiaTm7ruE5njr3/9K7q7u9Hd3Y3f//73+O///b/j+fPnm9a+KIqQZRmTk5PLduxlMhk8e/YMlZWVxmyz7777bsl2+qy2jV5vZ7NZ49y9du2aMTtMXztNd/To0WVjMYOefAsGgwgEAgDmk4SSJBnb2O122Gy2l84AXI/lOvG3ohTnZp6DRHtRIBDA48ePIUkSk3C0LEVRIEkSSkpKjL8rRJuJvUVERLQpvF4v4vE4IpEIZ2TRnhCJROByuXb0rE8iItpaHo+H1z070MJZUi/zq1/9Cj///DNKS0vh9/tx+PBhWK1WPHv2bNPiOX/+PEKhEG7evIm33357SSdwNpuF3++HzWZDRUWFkUBaXA4S+GVG2kY7kvWyjZIk5ZVm1Nd+05M/giDAZrNhdnY27/ljY2P48ssv0dDQsG3l3fT19PT113STk5MA8menVVVV5a3bpj+/q6sLbrd73ddvVqsVNpttSVUNvVTnZtopsw6JitmNGzdw4cIFJuGooIXJtxs3bpgdDu1SvzY7ACIi2j3C4TCSyaTRMUC0W8myjGQyuerOPSIiIto5fvOb3wAASktL0dHRgVQqhb6+PpSXl29JJYfy8nK4XC7IsoyqqiqcO3cOmUwGsiyju7sbDQ0NAICuri5j/1VVVUin02htbYWqqpBlGa2trQDmZ3+tlb4e2tjYGBRFMWa2xWIxZDIZZLNZtLa2GrPG2tvbkclkAAC1tbVIJpN5sVy5cgUTExPG2meL298KemIyl8uhu7sbqqqiu7sb7e3tsNlsSKfT6O7uBvBLeXBJkpDNZqEoCiKRCJLJ5JL17NbK6XQil8uhtbXVWEOvsbERNpttS143Ea2fxWLBjRs3UFJSAkmStuz3ExWfxck3VrWhrcIEHBERbRq73Y6WlhY0NjZuSRkWop1AVVU0NjaipaXFWHuFiIiIdraFSbdPPvlky5Nui924ccNInKXTafj9fkiShGg0ipKSEvT09OTNJNPXopmYmIDb7YYkSZiZmUEkEjESdmuhDxoKhUK4fv06BEEw1lDz+/3w+XyYmJhALBbLux8A6uvrl8QCAJcvXzY6LBe3v1WampoAANFoFG63G9FoFD09PXn3Z7NZlJaWIhKJAAB8Pp+R0AwGgxu+fguHwwgGg0gmk5AkCdPT07h///5L19wjInPoSbiqqipUVVVhbGzM7JDIZGNjY8b5wOQbbbVf/fzzzz+bHQQREe0emqbhwoULAIBbt26ZHQ7Rpjt37hwA8EKdNkUikUAqlWIJO6IixM/vzqWXoPzNb36Df/u3f1tSXnK1bWzF+6uqKhRFwdTUFPbv349Dhw6tGJOmaRgfH8f+/fsLlnrMZrOwWq0Fy1ouvl8v4bjwfkVR8PXXX0MURaN9PUYAecmq1cSyuP3VHIt9+/YtuaZSFAWqqhZ8TFVVTE5O4tVXX0VpaSksFgs0TcPc3BwALHmOPpNP33bxPvTXuPj2ctstjl+/3+l0QhTFJaUv16O1tXVDpTKJqDD970MwGERDQwO/z+0xmqaht7cX0WgUkUiEv2NpW/C3DBERbSqLxYK2tjZIkoTu7m4uYku7Snd3N2ZmZhCLxfhljYiIaAdbT9Jtof379y9Z52szWK1WWK3WVc/CslgsKC8vX/bx5dopdH+h+wRBWNIBqce4WbG87FgUIgjCskk8q9W6JA6LxbLs/heucbfSPpbb5+L79eRsc3OzsU89+fjhhx+u6RgsZ2JiAqdPn96UtojoF16vF6IoorGxEQ8fPkQkEtm2dSzJXLIsIxwOQ1EUxGIxvu+0bViCkoiINp0gCLh27Rqi0agx4pSo2GUyGUSjUVy7do2LdxMREe1gXq93w+Ul9+3bh1wuZ/ZLoR3o6NGjmJiYgCRJSCQSGBgYgM/ngyiKyyb71iqXy2Hfvn1mv1SiXUkURQwNDeHEiROQJAmtra1GEp12H32NU0mScOLECQwNDTH5RtuKCTgiItoSDocDPT098Pv9TMJR0ctkMvD7/ejp6dm0jhUiIiLauRaWaCRaSBAEo8xkOBxGe3s7XC6XsebcRunnHAd8EW0di8WCQCCAeDwOYH6tyNbWVsiybHZotElkWUZrayt8Ph8AIB6PIxAIsJINbTuecUREtGUcDgeCwSATF1TU9ORbMBjkOUxERLRH6DPnVFVlIoSWEAQByWRyS9pWVRUA1j17k4hWz263o62tDY2Njbhz5w4kSYLNZkNtbS2OHz+OAwcOMGFTJDRNw+zsLL766isMDg4il8tBkiTE4/E1l0gm2kz8DUJERFtKXwOOSTgqRguTb1zPkIiIaG9xuVyYmppixx1tq6mpKbhcLrPDINpT7HY7mpub0djYiMnJSYyPj0OSJADzJStLSkrgdrvNDpMKSKVSmJmZMWYvSpKEy5cvr3sNWKLNxgQcERFtuUAggNdeew1+vx+RSGTJQu9EO1EikUA4HEZLSwvq6urMDoeIiIi22TvvvIPp6Wleu9K2mp6exjvvvGN2GER7ktVqRXl5OcrLy9Hc3IxsNounT5/i+++/RyqVMjs8KqCsrAzvvfceDh48yAEztCMxAUdERNuirq4Ohw4dgt/vx/T0NEKhEEs50I6kaRo6OzsRi8U4a5OIiGgPe+utt3Dz5k2zw6A9ZmJiAufPnzc7DCLC/Mw4PanDQZlEtB6/NjsAIiLaOxwOB+LxOIaHh1FfX89F7WnHURQF9fX1GB4eRjweZ/KNiIhoDzt48CBkWTbW5CLaaqqqQpZlHDx40OxQiIiIaBMwAUdERNvKbrdjaGgIJSUlqKqqQiKRMDskIgDzJSerqqpQUlKCoaEhlq8gIiLa4+x2O2w2GyYnJ80OhfaIyclJ2Gw2XocSERHtEqz9RURE285isaCtrQ1utxsdHR3o6+vDp59+yi+aZIpsNouLFy9CURSuUUhERER5amtrMT4+jvLycrNDoT1gfHwctbW1ZodBREREm4Qz4IiIyDRerxf379+H0+mEz+dDa2srstms2WHRHpHNZtHa2gqfzwen04n79+8z+UZERER5jhw5glgsZnYYtEfEYjEcOXLE7DCIiIhokzABR0REprJarWhubkY8HgcAJuJoyy1MvAFAPB5Hc3MzrFar2aERERHRDlNaWgoAyGQyZodCu5x+junnHBERERU/JuCIiGhHsNvtaGtry0vESZKEsbExLnxPG6aqKsbGxiBJUl7ira2tjaVPiYiIaFkWiwWSJGFkZMTsUGiXGxkZgSRJsFi4WgwREdFuwb/qRES0o+iJuObmZjx48AA3b96ELMtwuVzw+XwoKytjwoRWJZvNYmpqCvF4HOl0GqIo4uTJk3j33XchCILZ4REREVGRqKmpgSRJaGxs5Ix52hKqqiIWi7HcKRER0S7DBBwREe1IgiCgrq4OdXV1kGUZk5OTiMfjCIfDAACPx4MDBw7gzTffhCiKeOWVVwAA+/bt46jRPULTNMzNzQEAfvrpJ8iyjO+++w6zs7NIJpMAAJfLhYqKCly8eBGiKJodMhERERUhURQhiiJGR0e5XixtidHRUeM8IyIiot2DPZRERLTj6V9G6+rqoGkapqen8ezZM0xPT+Px48dIp9Nmh0g7gMvlwsGDB+F2u3H69GmUlpYyGUtERESb4syZM+jo6EBlZSWvL2hTaZqGjo4ONDU1mR0KERERbTJeNRIRUVGxWCxwOBwAUHAEcjabNTtE2kYsR0pERETbobKyEh0dHRgZGeEsONpU+vqClZWVZodCREREm4wJOCIi2lWYkCEiIiKizWaxWNDU1MRZcLSpFs5+4zlFRES0+/za7ACIiIiIiIiIiHY6fYbSF198YXYotEvo5xJnvxEREe1OTMAREREREREREb2ExWLB5cuX0d7eDkVRzA6HipyiKGhvb8fly5c5+42IiGiXYgKOiIiIiIiIiGgVysvL4XK5cP36dbNDoSJ3/fp1uFwulJeXmx0KERERbREm4IiIiIiIiIiIVqmtrQ3JZBJjY2Nmh0JFamxsDMlkEm1tbWaHQkRERFuICTgiIiIiIiIiolUSBAGRSAShUIilKGnNFEVBKBRCJBKBIAhmh0NERERbiAk4IiIiIiIiIqI18Hq98Hg8+OMf/whN08wOh4qEpmn44x//CI/HA6/Xa3Y4REREtMWYgCMiIiIiIiIiWqOPP/4YiqLgwoULTMLRS2mahgsXLkBRFHz88cdmh0NERETbgAk4IiIiIiIiIqI1slgsiMVimJmZQW9vr9nh0A7X29uLmZkZxGIxWCwWs8MhIiKibcC/+ERERERERERE6yAIAnp7e+Hz+QAAgUDA7JBoB+ru7kY0GkU8Hue6b0RERHsIZ8AREREREREREa2T3W5HLBbD4OAguru7WY6SDJqmobu7G4ODg4jFYrDb7WaHRERERNuIM+CIiIiIiIiIiDZAFEXEYjFIkoTHjx/jxo0bLDO4x+lrvullJznzjYiIaO/hDDgiIiIiIiIiog0SBAGxWAw//PADqqurkc1mzQ6JTJLNZlFdXY0ffviByTciIqI9jAk4IiIiIiIiIqJNIAgC+vv7UVVVBZ/Ph0QiwZKUe4imaUgkEvD5fKiqqkJ/fz+Tb0RERHsY6yEQEREREREREW0Si8WC5uZmHDt2DFeuXEFfXx8ikQhEUTQ7NNpCsiwjHA5DURR0dnaivLzc7JCIiIjIZJwBR0RERERERES0ycrLyzE0NIQTJ05AkiRIkoRMJmN2WLTJMpmM8f6eOHECQ0NDTL4RERERAM6AIyIiIiIiIiLaEhaLBYFAAPX19ejv74ff74coijh58iTeffddlicsUoqi4MGDB7h37x5kWUYwGERvby+sVqvZoREREdEOwgQcEREREREREdEWslqtRiJucnISd+7cQXt7O2w2G6qqqlBaWgpRFPHKK69AEAQmcnYIVVWhKAp++uknyLKM6elpDA8PI5fLweVy4fz58zh8+DDfLyIiIiqICTgiIiIiIiIiom1gtVpRXl6O8vJyqKqKyclJfPvtt4jH40in02aHRytwuVx45513cPnyZSbdiIiIaFWYgCMiIiIiIiIi2mYLk3ELKYoCVVXNDo8w/x6xTCgRERGtFxNwREREREREREQ7hCAITPoQERER7QK/NjsAIiIiIiIiIiIiIiIiot2ECTgiIiIiIiIiIiIiIiKiTcQEHBEREREREREREREREdEmYgKOiIiIiIiIiIiIiIiIaBMxAUdERERERERERERERES0iZiAIyIiIiIiIiIiIiIiItpETMARERERERERERERERERbSIm4IiIiIiIiIiIiIiIiIg2ERNwRERERERERERERERERJuICTgiIiIiIiIiIiIiIiKiTcQEHBEREREREREREREREdEmYgKOiIiIiIiIiIiIiIiIaBMxAUdERERERERERERERES0iZiAIyIiIiIiIiIiIiIiItpETMARERERERERERERERERbSIm4IiIiIiIiIiIiIiIiIg2ERNwRERERERERERERERERJuICTgiIiIiIiIiIiIiIiKiTcQEHBEREREREREREREREdEmspgdABERkZlUVYWiKJiamjI7FNpEZWVlEAQBVqvV7FCIiIiIiIioSGWzWTx9+hQvXrwwOxQq4NVXX8XBgwdht9vNDoWoICbgiIhoT1EUBV9//TVSqRSSyaRxv8vlgiAIZodHm0BRFITDYeO2x+OB2+3G0aNH+R4TERERERHRshRFwYMHDzA6Oop0Og0AsNlscDqdZodGBUxMTCCXywGY79epqKjAu+++y+/+tGMwAUdERLueoigYHBzE4OAgcrkcRFHEyZMn0dDQAJvNxguzXUpRFORyOUxOTqKvrw/hcBg2mw21tbWora3l+05ERERERETQNA0jIyPo6+uDLMtGn0E4HMa+fftgsbALfSfTNA1zc3NIpVK4d+8e2tvbIYoizpw5g8rKSr5/ZKpf/fzzzz+bHQQREdFWyGQy+Pzzz5FOpyGKIs6fP4/Dhw+zLOEepaoqJicncfPmTciyDJfLhQ8++AAOh8Ps0GgPSyQSSKVSaGtrMzsUIlojfn6JiIiKm6Zp6O3txeDgIACgqakJFRUV7DMocqqqYnR0FB0dHQCA2tpaNDQ0MBFHpuBZR0REu042m0UkEkE6nUYwGEQ4HGY9cILVakV5eTnKy8uRzWYxNDQEv98Pl8vFc4SIiIiIiGgPGRsbw5UrVyAIAq5du4bS0lImaHYJq9UKr9eLyspKTE9P4+rVqxgcHMTly5dRXl5udni0x/za7ACIiIg2i6qqaG1thc/ngyAISKVSCAQCTKzQEna7HYFAAKlUCoIgwOfzobW1Faqqmh0aERERERERbRFVVXHu3DmEQiE0NTWhv78fDoeDybddyGKxwOFwoL+/H01NTQiFQjh37hy/99O2YgKOiIh2hbGxMdTU1EBRFMTjcbS1tbFsBL2U1WpFW1sb4vE4FEVBTU0NxsbGzA6LiIiIiIiINpksy6ipqQEADA8Pw+v1MvG2B1gsFni9XgwPDwMAampqIMuy2WHRHsEEHBERFTVN09Da2mqMXrt16xZnvNGa2e123Lp1yxgV19raCk3TzA6LiIiIiIiINsHAwAAkSUJtbS1u3LgBQRDMDom2mSAIuHHjBmprayFJEgYGBswOifYApviJiKhoKYqC1tZWzMzMIB6PM/FGG+b1elFWVoaGhgZcuHABbW1t/GJGRERERERUxLq7uxGNRtHT0wOHw2F2OGQii8WCQCCAI0eOwO/348cff0QgEDA7LNrFOAOOiIiKkqIokCQJADA0NMTkG20au92OoaEhAIAkSVAUxeyQiIiIiIiIaB2YfKNCHA4Henp6EI1G0d3dbXY4tIsxAUdEREVHT77ppSNYs502m8ViyStNwSQcERERERFRcdGTb/F4nMk3WsLhcCAejzMJR1uKCTgiIioqC5NvgUCAyTfaMnppCibhiIiIiIiIisvY2Jgx840Vc2g5drvdmAk3NjZmdji0CzEBR0RERWNx8o1oOzAJR0REREREVDxkWUYoFGLZSVoVvRxlKBSCLMtmh0O7DBNwRERUFDRNgyRJcDqdTL7RtgsEAnA6nZAkCZqmmR0OERERERERFaCqKhobGxEMBpl8o1VzOBwIBoNobGyEqqpmh0O7CBNwRERUFC5cuABBEPDxxx+bHQrtUR9//DEEQcCFCxfMDoWIiIiIiIgKiEQiKCkpQUNDg9mhUJFpaGhASUkJIpGI2aHQLsIEHBER7XgDAwOYmZnBZ599xjXfyDQWiwWfffYZZmZmMDAwYHY4REREREREtEAikUAymURbWxv7DmjNLBYL2trakEwmkUgkzA6Hdgkm4IiIaEfLZrNob2/H5cuXIQiC2eHQHicIAi5fvoz29nZks1mzwyEiIiIiIiLML1vR0dGBSCTCvgNaN0EQEIlE0NHRweUnaFMwAUdERDuWpmm4ePEiPB4PysvLzQ6HCABQXl4Oj8eDixcv8oKciIiIiIhoB+jt7YUgCKisrDQ7FCpylZWVEAQBvb29ZodCuwATcEREtGONjIxAURSEw2GzQyHKEw6HoSgKRkZGzA6FiIiIiIhoT8tms4hGo4hEIiw9SRtmsVgQiUQQjUZZ+YY2jAk4IiLakVRVRTgcxuXLl2G1Ws0OhyiP1WrF5cuXEQ6Hoaqq2eEQERERERHtWV1dXfB4PBBF0exQaJcQRREejwddXV1mh0JFjkMCiIhoR+rv74coiiw9STtWeXk5RFFEf38/AoGA2eEQERFREctms3j69ClevHhhdihUwKuvvoqDBw/CbrebHQoRLaIoCpLJJOLxuNmh0C7T2NgIn8+H5uZmritI68YEHBER7TiqqiIajaKnp8fsUIhW9OGHH8Lv96O+vp4zNXeYbDaLn376CW+88QZGR0cBAF6v1+ywiIiIAMx3GD948ACjo6NIp9MAAJvNBqfTaXZoVMDExARyuRwAwOVyoaKiAu+++y47ZIl2gMHBQXg8HibIadPZ7XZ4PB4MDg5y0C2tGxNwRES04/T398PlcsHhcJgdCtGKHA4HXC7XnpgFl0gklqzH6PF4AADvvfcejh07tmPWW1jYeRmPx4249QScpmmYm5vjl3QiItpWmqZhZGQEfX19kGUZoiji5MmTCIfD2Ldv3475O0qF6dcPqVQK9+7dQ3t7O0RRxJkzZ1BZWcn3j8gEmqZx8C5tqdOnT8Pv96OhoYG/52ldeNYQEdGOwgtoKjYffPDBnrogd7lcxmhvRVGQTqeRTCYhiiJisZjZ4UFRFABAMBhEbW0tBEFYUo5menoafr8fExMTZodLRER7gKZp6O3txeDgIACgqakJFRUVnD1fZCwWC+x2O+rq6lBXVwdVVTE6OoqOjg50dHSgtrZ2z1wPEu0U4+PjsNlsHLxLW8bhcMBms2F8fJxLpNC68KqAiIh2lJGREV5AU1HRL8hHRkb2RInDcDicN3Osu7sb0WgUsiwjm80WnFWmaRr+9re/rapMk6qq+O1vf7ti59VK7X3zzTcAgLfeest4fHFMjx49MvswEhHRHjE2NoYrV65AEARcu3YNpaWlTNDsElarFV6vF5WVlZiensbVq1cxODiIy5cvs5OWaJvcvHkTZ8+eNTsM2uXOnj2Lmzdv8nc7rcuvzQ6AiIhoob6+PjQ1NZkdBtGaNDU1oa+vz+wwTBEIBIxSlE+fPs17LJvNoru7G8eOHUNVVRWcTicGBgbytnE6nZAkCcB8mcuamhocO3YM3d3dUFV1Te21trYiFAoBAEKhEJxOJ7LZLJxOp1GW0ul0IhqNGv9vbW01+xASEdEupKoqzp07h1AohKamJvT398PhcDD5tgtZLBY4HA709/ejqakJoVAI586dW3IdQ0SbS1EUyLKMd9991+xQaJd79913IcuyUW2FaC2YgCMioh1Dv4CuqKgwOxSiNamoqNizF+Td3d1IJpMAgMOHDxv3j42NwefzYXBwEJFIBD09PRBFEe3t7UuScLIsQ5IkpFIpXL58GS6XC9FoNK905GraO336tJEMDAaDiEQiS2bJRSIRiKJo/P/06dNmH0IiItplZFlGTU0NAGB4eBher5eJtz3AYrHA6/VieHgYAFBTUwNZls0Oi2jX+vrrryGK4qqqbBBthCAIEEURX3/9tdmhUBHiFSAREe0YDx48gCiKXA+Dio7VaoUoinjw4AHq6urMDmdLLUxq6WvA2Ww2XL58Oe+zq6/HEIvFjO37+/tRXV2N27dv49SpU3mdkWfOnDFKeB4+fBhutxv37t0zjudq2nM4HHj27BmSySSqq6sLlsP0er1IpVKQZXlPlAwlIqLtNTAwgPb2dgSDQa4HtkcJgoAbN26gt7cXkiShpaVl118fEpkhHo/j5MmTZodBe8TJkycRj8f5HZLWjFeCRES0Y9y7d48X0FS0Tp48mZcw2q3S6XTB+1+8eAFN04yOxlgsBpfLBVVV80owOZ1OJJNJzM3N5SXIjh49avxfT2guHDW+1vaKxfPnz80OgYiINom+LmpPTw/XM97jLBYLAoEAjhw5Ar/fjx9//BGBQMDssIh2DU3TkE6ncfHiRbNDoT3i8OHDaG9vz/vOS7QaPFuIiGhHUFWV9dupqL377rtob2+Hqqq7ehZnPB7PS3Spqor+/n6Ew2F89913CAQCyGazAOaTdT6fb1XtLi4dU1JSYiTg1tNesZiamkJZWZnZYRAR0QYx+UaFOBwO9PT0wO/3AwCTcESbZHZ2FgCM0vJEW00/12ZnZ3ne0ZowAUdERDvCkydPYLPZWL+dipYgCLDZbHjy5Mme6nizWq1oaGjA4OAgBgcH0dDQYDzmcrkQDocLPm/fvn1r3tdmt7cTJJPJvGNGRETFR0++LR6kQgTMJ+Hi8bgxiIhJOKKNk2UZLpfL7DBoj3G5XJBlmQk4WpNfmx0AERERADx69AhOp9PsMDZEVVUkEgljts56t6Hi5XQ68ejRI7PD2HZ6CY5cLoe///3vxgzAmZkZ2O32gj/6czwez0vbX0t7xURRFADAG2+8YXYoRES0TmNjY8bMNybfaDl2ux09PT2IRqMYGxszOxyiopdKpfDOO++YHQbtMe+88w5SqZTZYVCRYQKOiIh2hMePH8Ptdm+oDafTuWISr7W1FU6nc8uSX4qiIBwOY2pqKu++hetVFdqGXm7xcdyp3G43Hj9+bHYY20rTNAwMDCCXy0GSJFitVgiCAFEUkcvl8jqZxsbG4PF40NrauqZ9bHZ7OrMT4d988w1sNtuuLllKRLSbybKMUCjEspO0Kno5ylAolLfOLRGt3cTEBI4cOWJ2GLTHHDlyBBMTE2aHQUWm+IYKExHRrpROp5ctLVfM/vjHP+LMmTPwer1mh1LUqqqqEIlEdvxxLCsr25Xn8ULLrcFms9lQU1Nj3I5EIgiHwwiFQhBFEb///e+RTqcBAKdPn17zfjezvdOnTyOZTOLixYsoKSlBW1ubKcfyzp07qKqqMmXfRES0MaqqorGxEcFgkMk3WjWHw4FgMIjGxkbcv3+fg3CI1imXyxVtCXoqXvv27UMulzM7DCoyTMAREZHp9JlNZn8BVRQFv/vd715ayi6bza6qxJCmaasa3aooyqasfbfauLbq+VtFL9O3GbGrqorf/va3S95jVVU35fzT29is9naS/fv3FywX6Xa7sX///iWdj6IoIhaLQZZl9Pb2YmZmBsFgEEeOHMnbtqysrOD+Ft+/2vb0OBce/8Vx651f+uLtZkgkEkin06Yl/4iIaGMikQhKSkq4jietWUNDAx4/foxIJMLrAKJ10KtYMAFH200/53Zq3wntTEzAERGR6fQEy2YkodZK0zSMj4/j5s2bRrJMFEV89tlnefFks1l0dXUhmUwCmJ/tU1VVhT/84Q8F485ms8ZMoXA4jHA4jHg8vmQbvU2Xy4WLFy/mLearaRp6e3sRjUaNfXZ1deVtI8syPv30U2MmUKG4EokEwuEwYrGYsW08HofdboeqqhgdHUVfX5/x+l0uF9ra2lZ8PxbH5nK5IAgC3G43vF4vBgYG0N7ejs7OTpSXl+c9t7u721grpbS0dMV29NgXH8eVYv/kk0+M5Iv+/M7OTty5c8c4Th6PBx9//DH+/ve/IxKJIJlMQhRFRCKRDS2orB8zRVHWlYDTNA3T09MYGRlBc3PzuuPYCg6HY10j/EVRXLFzqa6uDnV1dau+/2XtFYqz0PaBQGAbj14+vRRtJBIx5fceERFtTCKRQDKZxPDwcFGuQUrmslgsaGtrQ1VVlXHNS0Rrx9+/tN14ztF6cA04IiIy3dOnTzeU9NiI+vp6hEIhOJ1OdHZ2oqWlBbIsQ5KkvDXHLl68iGQyiUgkglgshqqqKsRiMfz5z38u2K4gCAgGgwDmkz2LO9r7+vpw8eJFuN1utLS0YGZmBpIkGY9rmoYLFy4gGo3C4/EgGAwaa2wNDAwY24TDYaTT6SVxDQ4OLolJkiSk02l4PB4jFrfbjXA4DKfTiZ6eHmMbSZKgadqyx218fNyILRaL4YMPPjCSCrIsG8nHmzdvLnnu4OAgbDYbHA7HS9spKysreBw1TTNiP3nyZF7sC8sg6q5cuYIffvgBnZ2dcLlcSCaT+Oijj1BTU2PsQ1EUNDY2bvicEkURT58+XdNzMpkMrl69imPHjsHv9yMWi204DtqZNE1Da2srPB4PO9yIiIqQpmno6OjgIAraEEEQEIlE0NHRseI1NxEtNTU1BZfLZXYYtEe5XC5MTU2ZHQYVEaZtiYjIdC9evEBJScmmtdfa2lrw/sWL5SqKYiTbFs42euONNxAKhRCPx1FXVwdFUVBSUpK3lltzczOePn2KWCyGxsbGJbOdrFYrqqurEY1G80a26rP9FEUxZtMBwI8//ohoNApZliGKIsbHx5FOpxEMBo2ZOkeOHIHf70d7ezvq6uowOztbMK6JiQlEo1E0NDQsGaE1Pj5u3KfPGlu4D4fDgTfffBPt7e0YHx9fMntN9+WXXwIAGhsbjdILN27cwMjICF68eAGr1QqPx4NkMplXYlOWZeRyOSOp9rJ2RFEseBwzmQwA5M2wWxh7JpPJmwVVUlKCW7duAQDefvttVFVVIZlMIhaLGcnf58+fIxaLbbgkaElJCV68ePHS7WRZxoMHD3D37l387W9/W/f+qHgoioLW1lbMzMzg/v37ZodDRETr0NvbC0EQUFlZaXYoVOQqKyvR19eH3t5eU2fmExUjDoAgs/Dco7ViAo6IiHadhYmtlXz99dcAgGPHjhl15AHg1VdfBTA/sq6urg6CIOSVsFMUJW923HrKDdbW1ubdfuuttwDASMB9++23AIDq6mpjG4fDkZdEXFyKT38Nv//97wEAc3NzeXXJJUnKS8hNTk4CmE/sLXz9b7zxBgCsmIA7ffo0kskkGhoa0NXVhQMHDsBiseTN6NG3efDggVFK8Kuvvsp7/atpp5BHjx4Z79XC2F9//XUAwJMnT/IScPqMPCD/gnnhzMvS0lLjvNiqmUmKouB//a//hYGBAfz4449bsg/amcbGxhAKheDxeHD//v1dt0YgEdFekM1mEY1GEYvFWIaKNsxisSASiUCSJFRXV3M9ISIiol2IV4xERLTrLJ7ppmttbc1LzqVSKQBAKBRasT1N0/DFF1+gvb1902J88803824fPHgw7/bs7CyAlReWXmtceoJJd+/ePQCA3+8vuL0+W68Qh8NhzHDTS2d6PB6cPn3aSHyVlpbCZrPh9u3bRgJucHDQWOdtte0UopfYXC52PXmqKysrW7KNx+Mp+NzNLoeqKAoSiQQGBgbw17/+dVPbpp0tm83i6dOn+PLLL40Stiw7SURUvLq6uuDxeEwrnU67jyiK8Hg86OrqWnGNWyIiIipOTMAREZHpnj9/bur+Ozs7lyTAFhofHzeSXPq2drt9SUJvM+kJqr/97W/LljgYGRkpGNe5c+eQTqdfug99plxPT0/BRN/LZui0tbUhHA5jcnLSSDAkk0nE43HY7XZYLBbU1tYapTVfvHiBXC6Ha9euramdlcRiMbzyyitrjn0lhdpbq//7f/8vxsbG8Omnn+Jf/uVf1tVGIpHYcBy0/Z4/f46pqSnjd4MoinA6nRgeHma5EiKiIqaXD4/H42aHQrtMY2MjfD4fmpubea1AtApm9x8Q8RyktWACjoiI9qwDBw4AmF+DbqVEj75OWUtLS15Jxq1KvgHzZTFjsRhyuVzeF/FMJoNnz56hoqLCmMEXiUSMuDRNW1XyDcgvxbjekjdWqxXl5eUoLy+H2+1GOBzOG8GrJ+C++uor4yJ18Uy81bSzmNPpNI7/TizXo2kaXrx4gddee23dbejvLxWfsrIyNDQ04I033mCpSSLaM/SBI/pM38W3i93g4CA8Hs+OvO6g4ma32+HxeDA4OMi14IiIiHYZJuCIiMh0+rpd2+3IkSOIRqPo6+tDRUUFrFYrVFVFV1cXJiYmcP78eZSXlxuJOn3NLr30o25oaGjFL8upVGrNnU+HDx8GAPT29iIcDhux+f1+iKIIr9drJNC+++67dcX13nvvIZlMYmRkBIcOHYLVaoWiKLh+/TpmZmbw6aefFuxk0jQN1dXVKCkpwY0bN4w1UPQyj/rxAuaTfC6XC9FoFAAQDAaN7dfSzsLXCQButxvJZBL3799HKBSCxWJZVezb5d//+38Pr9cLr9cLTdMwPT2Nf/7nf8aDBw/w17/+Fb/5zW/wb//2byu2wTJERES0GolEAuFwOO8+vcyy2+1GZWXltqxXpsegX/Msvr0amqYtWcN2J9A0DdFoFD09PWaHQrvU6dOn4ff70dDQwPUFiV7CrP4DIh3PQVoL/lUnIqI9y+FwQJIkxGIxuN1u4/8A4HK5cOzYMQDA8ePHEY1GEY1GMTs7a6wx19nZiVAohGg0itdeew1utzuvfbvdDpfLZczUOn369Iprui1ktVoRDAYRjUaRTCaNddIA4MMPPwQAVFZWIhaLIRqN4vHjx5iZmSkY13IXh+Xl5fB4PIjFYojFYnn7cLlcy8ZqsVhw+fJlhEIh1NfX48SJE3j+/DmGh4cBAPX19Xnbf/DBB8asvOrq6jW3s2/fPoiiaBz/06dPo7KyEqlUatnYd1LHncVigcPhgMPhwLlz56AoCr755hv87//9v/HVV1+ZHR4REe0SC9dYBYCZmRkkk0l0dHSgq6tr29ctW0+pxvHxcYRCoWXX8zXL+Pg4bDbbiuvTEm2Ew+GAzWbD+Ph4XsUNIiIiKm5MwBER0a6hj/Zejj6zamFJuObmZjQ2NmJ0dBR9fX3weDxwu92oqKgwRp+Kooienh6MjIxgYmICtbW1qK6uht1uR2dnJ8bHx412PR4P9u/fb7Svl1LUFdpmufsDgQDq6+vR39+PwcFBBINBHD9+3OhAczgceXGdPXsW7777LgRByItr//79BfcJ/LL+Wjwex+3bt43X/7LR8uXl5cY+Hj58CADGcVlccu/QoUPGcVycGFtNOxaLBZFIBL29vcbzLBZLXuz37t2DJEkoLS1FZWWlsZ3+2hfH5PF4jPPhZdtuNkEQjHKbmqZhdnYWjx49wsDAAP76179u6b6JiGj3CofDS/7O6rPjent71zSzWtO0Fdeh1amquuzfzfUMhvn2229NOHIvd/PmTZw9e9bsMGiXO3v2LG7evMkEHBER0S7yq59//vlns4MgIqK9bWxsDDdv3jRmn9Huonf+dXZ27okOBUmSjPKla6WqKiYnJ/HP//zP+K//9b+a/VKIiGgFiUQCqVTK9JLB+t/ZeDxeMOnl8XiQy+WQSqVgtVrR2tqKZDKJzs5OXLlyBblczphxls1mMTQ0ZJSOBubXwK2rqzNua5qGkZER9PX1QZZlBINB1NfXG5UA9LacTmfebQCQZRmNjY3I5XIA5v9m6qWk9e0Xxm32sQUARVFQVVWF4eHhlyYkiTaC5xrR6iQSCcTjcdy6dcvsUGgPOnfuHHw+365Z45a23q/NDoCIiOjgwYOQZdnsMGiTZbNZJBIJdHR0wGazGSU9dztZlnHw4MF1PddqtaK8vJzJNyIi2nJXrlyBIAiQJAnA/IAon8+HwcFBRCIR9PT0QBRFtLe3I5FIGM/r7OxEOByGoiiIRCKYnZ1FTU3NS/eXyWSMfbW0tMBmsyEWi6G+vh6qqiISiRiz/CORCE6fPm32IQIAfP311xBFkQkR2nKCIEAURXz99ddmh0K0o5WVlRlLHBBtt3Q6vaSaDtFKWIKSiIhMp3doKIrCzo1dxOfzAYDRwbYXFpRXFAUAeB4TEdGOkEgkkMvl4HK5lpSKrK2tRSAQMG5/+eWXxt9s/e9Yf38/qqur0dHRgcrKSvz9739HLBaDzWbD0NAQLBYLvF4vxsbGEAqFVozF7/fnPc/n8+FPf/oT0uk0Jicn4fV6kUqlIMvyjhpVHo/HcfLkSbPDoD3i5MmTiMfjO+ozQLRTaZq2J75j0s6haZrZIVAR4m8pIiIynd4hpKoqExe7SCwWwyuvvLKuNWCKlaqqALDl68gREREtFolE8q6jZmZmIMsybDYbLl68uGT76upq4/+apiGZTMLlckFVVePvGQCUlJQgnU5jbm7OuM/pdOZ1er799tsrxqYPUFn4PKvVuuPLh2mahnQ6XfD4EW2Fw4cPo729nYkFohXo3y/n5ub21HdNMp9+LcTzjtaCf82JiGhHcLlcmJqa4oXMLqKXkdpLpqam4HK5zA6DiIj2oIXluERRRElJCc6cOYOKioqCA0MWXnPpHUrpdNqYwb6SxaWXXjaA6i9/+QsAGOvEFYvZ2VkAe/Oahsyhn2uzs7M874hWYLPZmICjbTc3NwebzWZ2GFRkmIAjIqId4Z133kEqlWK5FSpqqVQK77zzjtlhEBHRHhSPxzfcEelyuRAOhws+tm/fPiNR9+OPP+Y99rKSTK+++ioA4LvvvjP7MK2JLMscWEPbzuVyQZZlJuCIVuB0OvHo0SM4HA6zQ6E95NGjR3A6nWaHQUXm12YHQEREBABHjhzBxMSE2WEQbcjExASOHDlidhhERETrMjMzA7vdXvDHYrFg3759AH6ZGaZbWJ6yEFEUYbPZljxPURQkEglkMhmzX3pBHFhDZtAHJhLR8txuNx4/fmx2GLTHPH78uOhm85P5mIAjIqId4dChQ8jlcsYaIUTFRlEU5HI5HDp0yOxQiIiI1sRut0MUReRyOYyNjRn3j42NwePxoLW1FQBgsVjgcrmQTCYhyzKA+fVP79y589J9VFVVIZlM5iXb/vznPyMcDhuJPV02mzX7kADY3oE1iUQCTqdzxZ9EIrGmNjVN2zHHciFVVZFIJNDa2mq8ttbWViQSibz1B/cqDkwkejlRFPNKLxNth3Q6zdnJtGYsQUlERDuC1WqFKIp48OAB6urqzA6HaM0ePHgAURQLrrNDRES000UiETQ2NiIUCkEURfz+9783OjdPnz5tbOfz+ZBOpyFJElwuF9LpNGw2G2w2G3K53LLt19TUYHh4GH6/Hy6XCz/88ANkWYbH4zFKZ54+fRrJZBIXL15ESUkJ2traTD0muVxuSXJwq7lcrmXX1Nu/f/+a2pqdnYUkSTsqmaMoCiRJMs4Vj8cDQRAwPDyMZDIJm82G+/fv7+nrqX379q34WSIi4MCBAwDAcq20bfSBR/q5R7RaTMAREdGOcfLkSdy7d48JOCpK9+7dw8mTJ80Og4iI9pj9+/fD4/GsOmFRVlZW8H5RFI0Zanfv3sXMzAyCwSCOHz+e17np9XpRUVGB/v5+PHz4EJIk4Q9/+AMePHiAqakpYzuPx7Ns+1evXoXT6cSHH36I0tJSYxuHwwFJknZERQR95th2J+DC4fCG1/LTTU5Obmms+my11Z57evINAILBIOrr643nNjc3Y2BgAO3t7fjTn/6EGzduwGKxLHn+P/zDP2xKcm6tsW8n/ZzLZrObdi4Q7Tb6jOzJyUkm4GhbTE5OwuVyLfnbRPQyv/r5559/NjsIIiIiYP5LdVVVFVKp1I78Mky0HFVV4Xa7MTw8vOyodSIi2l0SiQRSqZTps7RoqUwmgydPnsDn8637mjKbzcLn823b7LFEIoFwOIx4PP7SpIvT6QSAJbEtvL+1tRXJZNJ4zOPxoK2tbVXP1W+Loojz58/jypUrcDqdxrmezWZx584dxGIx4/mRSARer3fFuK9fv45YLIaWlpZlB9x1d3fjzTffRGVlpdHJef36dQwPDxuzwlwuFz744AM4HA7jebIsIxwOQ5Zl2Gw24/U0NzfnXZvJsoz79++vGPtq29pKTqdzVecC0V6WSCTQ19eX93km2iqSJOHMmTMv/VtHtBjXgCMioh1DEASIoojR0VGzQyFak9HRUYiiyOQbERHRDvDs2TO0t7fD7XbjzJkzGBsbW/PaYlNTU3C5XGa/lHU7ffq0MSskEonklRFdLVmWceXKFQiCALfbDWC+w9vn82F4eBiRSAQ9PT0QRRHhcPila9Tpyb3Dhw8vu00gEIDX6zWSb4lEArFYDFVVVUbybmZmBn6/H5qmGc9rbGyELMuIRCLo7e1FWVkZksmksX4hAAwMDECSJDx9+tSI3WazLYl9NW1tNZfLlTejlIiWOnr0KGRZ3hGzpml3UxQFsizj6NGjZodCRYhzJomIaEc5c+YMOjo6OKqIikpHRweamprMDoOIiIgWmZ6eRlNTE37++WfU1NTgP//n/4zS0tJVlZAq5oE1DocDJSUlkGV5Q9fVtbW1CAQCxu14PA6bzYZYLGYcn/7+flRXV694Da+qqjGjbC3l4qanp+HxeBAKhWCxWCCKIl5//XWEw2GMj4+jvLwc2WwWuVwOHo/H2H9dXR0OHz4MWZahqiqsVqsxYGphecuhoSEcO3YMff+/9u43tK38QPf406kWrkq2c1VBmFX3QhgfWEqD0RCNJlzkDWWcHJVcxIQ61+owL+IgVzQOgz2d3A5YQymRYYqntQnjDJp447wIRbkx18YQKjkOXa9NSRSH0QaXUjgO2d2OXnjxHtIJaNmekvsiSI1jJ3ESxUd/vh8oRPI5R4+OjjuyHv1+v3PnFI1Gt3ysF62Rrz1gu1S+wMs68njRKuu98//NeBYUcACAutLZ2alUKqVisbhuWhmgXhWLRa2tramzs9PtKAAAYBOVlTemp6c1PT0tSTp69KgOHDhQd2sHxWKxR/7MjSkJu7q6qv92HEeFQkHhcFjlcnndqMK2tjYVCoVHrltWGaHS1tb2VI///vvvV/9dLpdl27Z27NghSfrVr36lSCSiQCBQXWNw165d6urqqn4wX3l9y+WyCoWCTNPU6urquscIh8MqFAoql8tbOhaA+lGZJpcCDi/S2bNn9eGHH7odAw2KAg4AUFc8Ho+SyaQ+++wznT592u04wBN99tlnSiaTLMYMAEADOXv2rM6ePau//uu/Vjwe1//+3/+7Lr7ZHg6HH5nDjTWSH8yyvLwsSSoUCo8tCjezc+fO6r6O42z5fZNlWerr66uu//Yo6XRafX19ymQyymQy8vv9Onr0aHUdwN///veSpHw+v25tvAfZti2v1/vEYwGoH3v37tXa2hpf4MULU/nC7d69e92OggbFJ0UAgLrzzjvvKJPJ8CYada9YLKpQKOjnP/+521EAAMAz+PLLL3XmzBmdOXNGf/u3f6vu7m699dZbunPnjit5UqnUto9y26rKyDPTNNXX17fpNpWi7WEej0d+v19ra2taXl5+5Ht8x3H0pz/9SV6vV47jKB6PS5Li8bjefvtt+Xw+/f73v1cikVi3X2XUmmVZ+vWvf60rV65oeHhYN2/e1NDQUHW7rWTf6rFeNLeuQaCRVL7Ae/HiRT47wAtx8eJFvnCL58KVAwCoO16vV8lkUh999JGy2azbcYBH+uijj5RMJvk2NAC0qMeNpkHj+OpXv6o///nP+u///b9Lkv7zP//T7UhPrTLFY632NU1zw7X9ta99TZK0srLyTCVhV1eXMpmM5ubmNv2g3HEcvfvuuyoUCspms7p7966k+6MCK2vASdL169cf+RiVqSJ7enp08OBB5fN59fX1Vcs127a3nP1Rx6rXghRoVV1dXdq/fz+/n6i5UqmkfD6vy5cvux0FDYwCDgBQlyqj4BYXFxWJRNyOA2ywuLgoy7I0MTHhdhQAgEtM09zWETHYmlwup1Qq9cTt/vqv/1pvvvmm/tf/+l/6u7/7u3VfqHn55ZfdfhqPFI/Hlc1mZVmWDMOQ4zj6h3/4h0du/+C6bE+774Mq66NZlrVuporFxUWdPHlS+/fvX7dm28N6eno0OTmpbDarpaUlffDBB9q9e7c8Ho9s29Y//MM/qFAoKJlMVh9Hul/4ffnll/L5fLIsS1euXJEkLS0tybZtXbt2TalUSuPj49VMHo9HoVBI+XxePp9Pf/VXfyW/379hnbpcLqeRkRF1dXWpt7e3eu087ljbpZ6vQaCe+Hw+maapsbEx/puMmhobG5NpmnUxRTUaFwUcAKAuVdZfOHnypKanpxlhhLpSLpd18uRJpdNprk0AABpAZZTb7t27ZZqm9u3b17AjJTo7O5XNZhWPx2WappaWlnT06NF1pZV0v/DK5/N677331NbWpqGhoS3v+yiV9dESiYQMw5Ck6n6dnZ2P3dfj8WhsbEx9fX2yLEuJREJ+v1+Sqmu8hcNh9fT0SLo/Aq0ybWU8Hq8WcMlksvq48Xhcly5d0rlz55RIJGSaptrb2zU/P18t8yrv1X72s5/pxz/+sWKx2Ibs3/nOd6rPYSvHAlBf+vr6FIvF1NPTU/39Bp6HZVnK5/OamZlxOwoaHAUcAKBuVf4ATqfTfJMNdSWdTsvn8z3xgyYAAOCux41yqyevvPKKTNPcUr5gMKhsNqvp6WndunVLExMT1TLx5s2b1e0Mw1AymdTt27efet/29vZNH7uyPlqxWNTFixe1srKiZDKp73znO1v60NswDF26dElzc3NaWFjQysqKvvGNb+jo0aPq6OjYUIpms1lNTk7qypUrCoVCOn78uCKRiA4ePKhLly7p9u3b8ng8+vTTT3Xt2jUtLCxoeHhYpmlqdHRUe/fuXffcH8xu2/aG7Fs9FoD6EggElEwmlUqldP78edbrwnNxHEepVErJZLJhv6yD+vGVe/fu3XM7BAAAj1IqlRSLxTQ6OspUlKgLi4uL6u/v18zMDG/GAaCF5XI5LSws8CWhOlQsFvW73/3uuUa55XI5zczM6PTp024/HbSgY8eOKRaLKRqNuh0FaBiO4+jgwYMaGBjgdwfPpTI98aVLlyhz8dxecjsAAACPEwgEdOLECZ08efK5FpcHasG2bZ08eVInTpygfAMAoE4Fg0F9//vff67/Vre3t6tQKLj9VNCiCoXCI0chAticx+PRwMCAUqkUnx3gmdm2rVQqpYGBAco31AQFHACg7nV3d6utrU0//OEP5TiO23HQohzH0Q9/+EO1tbWpu7vb7TgAAGAb8N4T241rDnh20WhUpmlqcHCQ3yU8NcdxNDg4KNM0GUWJmqGAAwA0hFOnTsm2bf3kJz9xOwpa1E9+8hPZtq1Tp065HQUAALxgldFzq6urbkdBi6lcc8y2ADybVCqllZUVTUxMuB0FDWZiYkIrKytKpVJuR0EToYADADQEj8ejbDarpaUlnTlzxu04aDFnzpzR0tKSstks01AAANAi/H4/BRy23erqqvx+v9sxgIbl9Xo1NjamTCajYrHodhw0iGKxqEwmo7GxMXm9XrfjoIlQwAEAGobP51M2m9Xk5CQlHLbNmTNnNDk5qWw2K5/P53YcAACwTUKhkK5fv+52DLSY69evKxQKuR0DaGiGYWh0dFSJRIISDk9ULBaVSCQ0OjoqwzDcjoMmQwEHAGgoD5dwzOuOF8VxHMo3AABaWEdHhz7//HO3Y6DFfP755+ro6HA7BtDwIpGIksmkEomESqWS23FQp0qlkhKJhJLJpCKRiNtx0IQo4AAADefBEu7dd9+lhEPNOY6jd999l/INAIAWZhiGCoWC2zHQYgqFAiMwgBrp7e1VMplULBZjJBw2KBaLisViSiaT6u3tdTsOmhQFHACgIVVKOEk6ePAg32hDzZRKJR08eFCSKN8AAGhhu3btkiRZluV2FLSIyrVWufYAPL9KCcd0lHhQZdpJyje8aBRwAICG5fP5dOrUKYVCIcViMeVyObcjocHlcjnFYjGFQiGdOnWK8g0AgBbm8XgUDod148YNt6OgRdy4cUPhcFgej8ftKEBT6e3t1YkTJ5RIJFjKosVVlppIJBI6ceIE5RteOAo4AEBD83g8Ghoa0ujoqEZGRnTs2DFGw+GplUolHTt2TCMjIxodHdXQ0BAffAAAAMViMU1NTbkdAy1iampKsVjM7RhAU+ru7l63lIVt225HwjazbXvdUhPd3d1uR0ILoIADADSFSCSi6elp+Xw+xWIxDQ4Oqlwuux0Lda5cLmtwcFCxWEw+n0/T09MsvAwAAKreeOMNWZbFB7V44WzblmVZeuONN9yOAjQtwzA0PT0tSdq/f79yuRyj4VqA4zjK5XLav3+/JGl6epq1NrFtKOAAAE3D6/VqaGhIMzMzsm1bHR0dOnPmDCPisEGpVNKZM2fU0dEh27Y1MzOjoaEheb1et6MBAIA64vP5ZBiGZmdn3Y6CJjc7OyvDMJgCHXjBvF6vTp8+XZ1F55133lGxWKSIa0KO46hYLOqdd96pznZz+vRp/u7HtvrKvXv37rkdAgCAF6FYLOqzzz5ToVCQYRg6fvy49uzZw5utFlUul3Xjxg198sknsixL4XBYP/jBDxQMBt2OBgBoQLlcTgsLCxoaGnI7Cl6wxcVFnTx5Uvl83u0oaGKmaerDDz9kNgZgGzmOo4mJCU1OTkqSBgYGtG/fPj4zaHDlclnz8/MaGRmRJHV1damnp4dlJuAKCjgAQNOzbVuTk5OanJzU2tqaDMPQoUOHtGfPHvn9fr5l2qRs29ba2ppu3LihqakpWZYlv9+vrq4udXV18boDAJ4LBVzrcBxHe/fu1fj4OF/cwQtRLBaVSCR09epVPiAGXOA4jubm5nTu3DlZllX9zKCjo0M7d+7k97LOOY6j1dVVLSwsVP/2NwxDR44cUWdnJ68fXEUBBwBoKbZt69q1a1pYWFj3LeZwOLyukGlvb9fLL7/sdlxswZ07d3Tz5s3qbdu2VSgUqrdN01RHR4feeOMNSjcAQM1QwLWWM2fO6Pbt27zeeCEGBwe1a9cu9fb2uh0FaHm2bWt2dlbz8/PVvyv9fr9CoVB1Gz4vcM/Df/8vLS1pbW1N0v3Pdfbt26cDBw7wtz/qBgUcAKCllctl2ba97g3cw2/oUP8e/gOovb1dPp+PqUMAAC8MBVxrsW1b+/fv18zMjAKBgNtx0ERKpZJisZguX77MB8ZAHSqVSrp165bu3r0ric8L6sGDf//v2LFDr776Kv9tRt2igAMAAAAA4ClRwLWewcFBSeI1R01xXQEA0LxecjsAAAAAAABAvevr61M+n5dlWW5HQZOwLEv5fF59fX1uRwEAAC8ABRwAAAAAAMATBAIBJZNJpVIpOY7jdhw0OMdxlEqllEwmmToNAIAmRQEHAAAAAACwBT09PbJtW3Nzc25HQYObm5uTbdvq6elxOwoAAHhBKOAAAAAAAAC2wOPxaGBgQKlUSrZtux0HDcq2baVSKQ0MDMjj8bgdBwAAvCAUcAAAAAAAAFsUjUZlmqYGBweZihJPzXEcDQ4OyjRNRaNRt+MAAIAXiAIOAAAAAADgKaRSKa2srGhiYsLtKGgwExMTWllZUSqVcjsKAAB4wSjgAAAAAAAAnoLX69XY2JgymYyKxaLbcdAgisWiMpmMxsbG5PV63Y4DAABeMAo4AAAAAACAp2QYhkZHR5VIJCjh8ETFYlGJREKjo6MyDMPtOAAAYBtQwAEAAAAAADyDSCSiZDKpRCKhUqnkdhzUqVKppEQioWQyqUgk4nYcAACwTSjgAAAAAAAAnlFvb6+SyaRisRgj4bBBsVhULBZTMplUb2+v23EAAMA28rgdAAAAAAAAoJFVipVEIqHx8XEFg0G3I6EOVKadpHwDAKA1UcABAAAAAAA8p97eXn3961+vFi49PT3yePjYpRU5jqOJiQllMhmdOHFC3d3dbkcCAAAu4J0gAAAAAABADXR3d2vPnj3q6+vT559/rqGhIfl8PrdjYRvZtq3BwUGtrKwom83KMAy3IwEAAJewBhwAAAAAAECNGIah6elpSdL+/fuVy+XkOI7bsfCCOY6jXC6n/fv3S5Kmp6cp3wAAaHGMgAMAAAAAAKghr9er06dPa3FxUSdPntS5c+f0wQcfaPfu3UxL2WQcx9Hy8rI++ugj2bat0dFRRSIRt2MBAIA6wLs+AAAAAACAFyASiejSpUuamJjQj3/8Y0nSwMCA9u3bJ6/X63Y8PIdyuaz5+XmNjIxIkrq6ulj3DwAArPOVe/fu3XM7BAAAAAAAjSSXy2lhYUFDQ0NuR0GDcBxHc3NzOnfunCzLkmEYOnTokDo6OrRz506KmzrnOI5WV1e1sLCgqamp6mt45MgRdXZ28voBAIANeHcAAAAAAADwgnk8HkWjUUWjUdm2rdnZWc3Pz2t4eFiS5Pf7FQqFqtu3t7fr5Zdfdjt2S7pz545u3rxZvb20tKS1tTVJUjgc1qFDh3TgwAH5fD63owIAgDpGAQcAAAAAALCNfD6furu71d3dLUkqlUq6deuW7t69K2ljAYTt92AB+t3vflevvvqqAoGA27EAAEADoYADAAAAAABwUSAQ2FDuVMo5AAAANKaX3A4AAAAAAAAAAAAANBMKOAAAAAAAAAAAAKCGKOAAAAAAAAAAAACAGqKAAwAAAAAAAAAAAGqIAg4AAAAAAAAAAACoIQo4AAAAAAAAAAAAoIYo4AAAAAAAAAAAAIAaooADAAAAAAAAAAAAaogCDgAAAAAAAAAAAKghCjgAAAAAAAAAAACghijgAAAAAAAAAAAAgBqigAMAAAAAAAAAAABqiAIOAAAAAAAAAAAAqCEKOAAAAAAAAAAAAKCGKOAAAAAAAAAAAACAGqKAAwAAAAAAAAAAAGqIAg4AAAAAAAAAAACoIQo4AAAAAAAAAAAAoIYo4AAAAAAAAAAAAIAaooADAAAAAAAAAAAAaogCDgAAAAAAAAAAAKghCjgAAAAAAAAAAACghijgAAAAAAAAAAAAgBqigAMAAAAAAAAAAABqiAIOAAAAAAAAAAAAqCEKOAAAAAAAAAAAAKCGKOAAAAAAAAAAAACAGqKAAwAAAAAAAAAAAGqIAg4AAAAAAAAAAACoIQo4AAAAAAAAAAAAoIYo4AAAAAAAAAAAAIAaooADAAAAAAAAAAAAasjjdgAAAADALaVSSbdu3dLdu3fdjoJN7NixQ6+++qoCgYDbUQAAAAAAeCoUcAAAAGgZtm1rdnZW8/PzKhQKkiS/369QKOR2NGxiaWlJa2trkqRwOKx9+/bpwIED8vl8bkcDAAAAAOCxKOAAAADQ1BzH0dzcnM6dOyfLsmQYhg4dOqRUKqWdO3fK4+EtcT1zHEerq6taWFjQ1NSUhoeHZRiGjhw5os7OTl4/AAAAAEBd+sq9e/fuuR0CAAAAqDXHcTQxMaHJyUlJ0sDAgPbt2yev1+t2NDyHcrms+fl5jYyMSJK6urrU09NDEYdtl8vltLCwoKGhIbejAAAAAKhD/JUKAACAprO4uKiTJ0/K5/PpZz/7mXbv3k1B0yS8Xq+i0ag6Ozu1vLysjz76SJOTk/rwww8ViUTcjgcAAAAAgCQKOAAAADSRcrmsH/3oRyoUCkqn00xR2MQ8Ho+CwaDOnz+vubk59ff3KxwO6+c//zmjHAEAAAAArnvJ7QAAAABALViWpbfeekuSdPnyZUWjUcq3FuDxeBSNRnX58mVJ0ltvvSXLstyOBQAAAABocRRwAAAAaHgXLlxQPB5XV1eXTp06JZ/P53YkbDOfz6dTp06pq6tL8XhcFy5ccDsSAAAAAKCF8ZVgAAAANLQzZ84ok8lofHxcwWDQ7ThwkcfjUW9vr15//XUlEgn98Y9/VG9vr9uxAAAAAAAtiAIOAAAADYvyDZsJBoMaHx9XIpGQJEo4AAAAAMC2o4ADAABAQ6qUbzMzMwoEAm7HQZ0JBoOamZlRLBaTRAkHAAAAANherAEHAACAhrO4uFgd+Ub5hkcJBAIaHx9XJpPR4uKi23EAAAAAAC2EAg4AAAANxbIs9ff3M+0ktqQyHWV/f78sy3I7DgAAAACgRVDAAQAAoGGUy2X19fUpmUxSvmHLgsGgksmk+vr6VC6X3Y4DAAAAAGgBFHAAAABoGOl0Wm1tberp6XE7ChpMT0+P2tralE6n3Y4CAAAAAGgBFHAAAABoCLlcTvl8XkNDQ/J4PG7HQYPxeDwaGhpSPp9XLpdzOw4AAAAAoMlRwAEAAKDuOY6jkZERpdNp+Xw+t+OgQfl8PqXTaY2MjMhxHLfjAAAAAACaGAUcAAAA6t7ExIR8Pp86OzvdjoIG19nZKZ/Pp4mJCbejAAAAAACaGAUcAAAA6lqpVFImk1E6nWbqSTw3j8ejdDqtTCajUqnkdhwAAAAAQJOigAMAAEBdGxsbk2maMgzD7ShoEoZhyDRNjY2NuR0FAAAAANCkKOAAAABQt2zbVj6fV19fn9tR0GT6+vqUz+dl27bbUQAAAAAATYgCDgAAAHVrcnJSpmkqEAi4HQVNJhAIyDRNTU5Ouh0FAAAAANCEKOAAAABQlxzHUSaT0eHDh92OgiZ1+PBhZTIZOY7jdhQAAAAAQJOhgAMAAEBdunr1qvx+v4LBoNtR0KSCwaD8fr+uXr3qdhQAAAAAQJOhgAMAAEBd+uSTT3T06FG3Y6DJHT16VJ988onbMQAAAAAATYYCDgAAAHXHtm1ZlqUDBw64HQVN7sCBA7IsS7Ztux0FAAAAANBEKOAAAABQd65duybDMOTz+dyOgibn8/lkGIauXbvmdhQAAAAAQBPxuB0AAAAAeNjMzIwOHTrkdgy0iEOHDmlmZkbRaNTtKFsSCoXW3TYMQ2+++aa+9a1v6dvf/vZzFde2beu//bf/Jq/X+0Kyv+jjAwAAAEC9YAQcAAAA6orjOCoUCtqzZ4/bUdAi9uzZo0KhIMdx3I6yZX6/X6ZpyjRNtbW1KZPJqL+/X/v371cul3vm4/7whz/U/Pz8C8v9oo8PAAAAAPWCEXAAAACoK7dv35Z0f1QPsB0q19rt27cb5roLhUIaGhqq3h4aGpJlWerr61MqldK//du/qbe3d9N9S6WSAoHAhvvL5bIsy3rs4z5q363YyvEBAAAAoFkwAg4AAAB1xbIshcNht2OgxYTD4YYvhwzDUDabld/vVyaTkW3b1Z85jqNcLqd4PK5YLKZQKKRjx45Vt8nlcuro6JAkpVIphUIhlUqlLe374GN8/PHHCoVCCoVCMk2zek4fdfzKsU3TrB53cHBQFy5ccPt0AgAAAMBzoYADAABAXVlYWNBrr73mdoxtl8vlnmvqwEZ73Hrz2muvaWFhwe0Yz83n8+no0aOSpN/+9rfV+/fu3VstvsbHx5VMJlUoFBSPx+U4jtrb25VMJiVJpmkqnU5X15J70r7S/fLt3XffVTablWmaisfjWltbUzwe14ULFx55/OXl5XXH/sEPfiBJGh4ebvhCFAAAAEBrYwpKAAAA1JWlpSUdPnzY7RiPlcvllEqlHrtNOp1WNBrd8jErx3uafWrhWR/XcRytrq4+83SE9eb111/X5OSk2zFq4u/+7u8kSb/73e8UiUSqRVYymaxOSxkMBvU//sf/UCqV0tWrVxWJRHTw4EFlMhl1dHRUr4et7nv16lUVCoV1131nZ6cSiYSGh4fV3d296fEvXrwoSerp6alO/7l79251dHTo7t27bp9KAAAAAHhmFHAAAACoK2tra9q5c6fbMbYkHA5XRwk97JVXXnE73gu1vLxfV5LOAAAr50lEQVSsRCKhpaUlt6PUxM6dO7W2tuZ2jJo9F+kv6yneuHFDkvStb32rOq2kJO3YsUOS9Ktf/UqRSGTTY21139/97neSpPb29uo2wWDwidfH4cOHlc/n1dfXp7GxMe3atUsej2fbi2gAAAAAqDUKOAAAANSNygf8jVLApVKppxoBVi6XJUler/e5H/t5jlUul7e03+Me4/r169v2XLdD5ZorlUoNP6rv1q1bkqRdu3ZJkqampiRJ/f39T32sre575coVSU//uxsMBhWPx5XNZhWPxyXdn6Ly8OHDCgaDLp1BAAAAAHh+FHAAAACoOx5Pc71N/fjjj3X58uXqCKtwOKy33377kaOOKs6cOaNMJrNu+r9SqaRf/vKXymaz1e22Mt2l4ziam5vTyMiI1tbWlEwm1dPT80x5Q6FQddtQKCTTNDU0NPRcz9VtzXTNVUajfetb35IkfeMb35AkjY+Pb1qQPa4k3eq+bW1tsixLf/rTn576XL7//vvq6+vTjRs3dPXqVWWzWeXzeY2Pj1PCAQAAAGhYL7kdAAAAAKi4efOmwuGw2zFqanFxUdlsVqFQSOPj40qn01pZWVF/f391lNhmNivfcrmcYrGYLl++rHQ6rfHxcRmGoVQqpVwu99gcP/nJT6rrvY2Ojur27ds6ePDgM+VNp9PV9brS6XR1zb5nfa71IhwO6+bNm27HeC7FYlGZTEZ+v1979uyRpHXTpAYCgQ3/e9Q0qk+z73e/+11J0hdffLEhTy6Xe+Lr7/V6FYlE9P7772t0dFTSX9aHAwAAAIBGRAEHAACAuvK4MqARXb16VaZpKpVKKRgMKhqN6sMPP5Qkzc/Pb7rP4uKiMpmMwuFwtXyTpJmZGfn9fmWzWUWjUQWDQZ0/f15+v18jIyOPzFAul5XP52UYhi5duqRIJKKhoaFqjqfNG41G1dbWVv13ZZTSszzXetLI155t27pw4YISiYQkaWBgoDo6rVKQXrx4sVqElctlDQ4OKh6Py7KsdcdaWFio/nur+1bKvomJiXXbJRIJzczMrBtlVzm+4zg6duyYjh07Jsdxqj//9re/7fbpBAAAAIDn1jzzrAAAAADbLBaLPfJnMzMzCgQCev/996v3lctl2bZdvb2wsLBh6shisaj+/n6Fw2GdOnWqer/jOCoUCgqHwyqXy+tGFLW1talQKDxy/bLKY7a1ta2bHvDVV1/dsO3T5q3Vvng6+Xxe+Xx+0589PCVpMBiUaZrVfSr/lu6P+qusFRcIBGQYRvVnlXXYtrKv1+utruX28HaVkZebHf8HP/iBEomE3nnnHb355pu6c+eOlpaWJEl9fX1un2YAAAAAeGYUcAAAAMAzCofDjxw1VRnxUyqV9N57720YZfQolRFMb7/99rqybHl5WZJUKBQeW/xtZnV1VZLU0dGx7v7NyrqnzVurfbF1pmluuK+9vV3f/OY3tWfPnk3XdBsaGlIqldLMzIzOnj0r0zTV0dGhzs7OddfZL37xC42NjT3TvpW13M6fP68rV67oxIkT2rNnz7rr7OHjB4NBjY6O6ne/+52uXLkiSXrzzTf1wQcfbHp9AgAAAECjoIADAABA3bhz547bEZ5KKpV6bEngOE61LDNNU319ffL5fPriiy8Uj8c33SccDmtlZUUnT55UNputFnw7duxYd5zN7Ny5c9P7K/v+27/927r7H16X61ny1mLfevKs12C5XNaNGzf0xRdfqLu7+4VmHBoaeqb9vF6vuru7H5svEAhsevyt7FvZrre3d93UqU86fiQSUSQSeeQ+AAAAANCIKOAAAACAF+T27duSJMMw9NOf/rQ6WujXv/71I/c5deqUlpeXlUgkNDg4qFOnTsnj8ehrX/uaJGllZeWpRwZVpgms5Kl4cIrIZ81bi30bleM4unr1qiYmJvTP//zPkqS///u/f+EFHAAAAACg/r3kdgAAAACg4uWXX3Y7Qk1VSjPbtvXll19Kuj9NY2WqvaWlpQ0lmMfjUTAYVDKZVKFQ0MTEhKS/rJ9lWZaKxWJ1+8XFRZmmqY8//viROTwejwzD0NLSUnV6yHK5vGGqwWfJWyqVnnnfevSka9BxHBWLRaXTae3du1c/+tGPquUbAAAAAAAVjIADAAAAXpAHS7N4PC6fzyfLspRMJtXW1qZ8Pq94PK58Pr9h356eHl25ckWZTEavv/66gsGg0um0+vr6lEgkZBiGJFULtc7OzsdmOXLkiFKplOLxuMLhsAqFgvx+/zPnPXz4sPL5vN577z21tbVpaGjomZ9rI7AsS5OTk5qcnFx3/5///Ge3owEAAAAA6hAFHAAAAPCUXnnlFZmmKa/X+8RtP/30U83Ozurs2bMKhUI6fvy4IpGIbNtWe3u7bt68Ken+umkP8ng8+vTTT/Xxxx/r4sWL2r17twzDUD6fV7FY1MWLF7WysqJkMqnvfOc71ULuUaLRqPbt26fz58/rypUrSiaT6urq0uzsbDXD0+StjNJ7cFrLre7bKCzL0uzsrC5evFgd1QcAAAAAwFZ85d69e/fcDgEAAABIUi6X08zMjE6fPu12FLSgY8eO6c0339R//dd/6cKFC/rDH/7w1Mf4+7//e/3iF79w+6lgG+RyOS0sLGhoaMjtKAAAAADqECPgAAAAUDfa29uVSqXcjoEWVSgU9M477+hf/uVf9NJL95fL/upXv/rU00yGQiG3nwq2EQUcAAAAgM1QwAEAAKDuOI4jj4e3qtg+juNIknbt2qX/+T//p77//e+rXC7rxo0b+sd//EdduXJly9NQLi0tuf10sA0qI+AAAAAAYDN8qgEAAIC6EQgEJEmrq6vVfwPbYXV1VZLWXXder1eRSESRSESpVEqlUknz8/PK5/NaXl5+ptFxAAAAAIDWQAEHAACAuuL3+yngsO1WV1fl9/sfu00gEND3v//96ui43//+98rlcsrn81seHQcAAAAAaA0UcAAAAKgroVBI169fVzAYdDsKWsj169efau02r9erYDCoYDCoDz74QLZt69q1a7Jt2+2nAgAAAACoAxRwAAAAqCsdHR2amZlxOwZazOeff65YLPbM+/t8PkWjUbefBgAAAACgTrzkdgAAAADgQYZhqFAouB0DLaZQKMgwDLdjAAAAAACaBAUcAAAA6squXbskSZZluR0FLaJyrVWuPQAAAAAAnhcFHAAAAOqKx+NROBzWjRs33I6CFnHjxg2Fw2F5PMzQDwAAAACoDQo4AAAA1J1YLKapqSm3Y6BFTE1NPdf6bwAAAAAAPIwCDgAAAHXnjTfekGVZsm3b7ShocrZty7IsvfHGG25HAQAAAAA0EQo4AAAA1B2fzyfDMDQ7O+t2FDS52dlZGYYhn8/ndhQAAAAAQBOhgAMAAEBdOn78uM6ePet2DDS5s2fP6vjx427HAAAAAAA0GQo4AAAA1KW9e/dqbW1NxWLR7ShoUsViUWtra9q7d6/bUQAAAAAATYYCDgAAAHXJ4/EomUzq4sWLbkdBk7p48aKSyaQ8Ho/bUQAAAAAATYYCDgAAAHWrq6tL+XxepVLJ7ShoMqVSSfl8Xl1dXW5HAQAAAAA0IQo4AAAA1C2fzyfTNDU2NuZ2FDSZsbExmaYpn8/ndhQAAAAAQBOigAMAAEBd6+vrUz6fl2VZbkdBk7AsS/l8Xn19fW5HAQAAAAA0KQo4AAAA1LVAIKBkMqlUKiXHcdyOgwbnOI5SqZSSyaQCgYDbcQAAAAAATYoCDgAAAHWvp6dHtm1rbm7O7ShocHNzc7JtWz09PW5HAQAAAAA0MQo4AAAA1D2Px6OBgQGlUinZtu12HDQo27aVSqU0MDAgj8fjdhwAAAAAQBOjgAMAAEBDiEajMk1Tg4ODTEWJp+Y4jgYHB2WapqLRqNtxAAAAAABNjgIOAAAADSOVSmllZUUTExNuR0GDmZiY0MrKilKplNtRAAAAAAAtgAIOAAAADcPr9WpsbEyZTEbFYtHtOGgQxWJRmUxGY2Nj8nq9bscBAAAAALQACjgAAAA0FMMwNDo6qkQiQQmHJyoWi0okEhodHZVhGG7HAQAAAAC0CAo4AAAANJxIJKJkMqlEIqFSqeR2HNSpUqmkRCKhZDKpSCTidhwAAAAAQAuhgAMAAEBD6u3tVTKZVCwWYyQcNigWi4rFYkomk+rt7XU7DgAAAACgxXjcDgAAAAA8q0qxkkgkND4+rmAw6HYk1IHKtJOUbwAAAAAAt1DAAQAAoKH19vbq61//erVw6enpkcfD29xW5DiOJiYmlMlkdOLECXV3d7sdCQAAAADQovhkAgAAAA2vu7tbe/bsUV9fnz7//HMNDQ3J5/O5HQvbyLZtDQ4OamVlRdlsVoZhuB0JAAAAANDCWAMOAAAATcEwDE1PT0uS9u/fr1wuJ8dx3I6FF8xxHOVyOe3fv1+SND09TfkGAAAAAHAdI+AAAADQNLxer06fPq3FxUWdPHlS586d0wcffKDdu3czLWWTcRxHy8vL+uijj2TbtkZHRxWJRNyOBQAAAACAJAo4AAAANKFIJKJLly5pYmJCP/7xjyVJAwMD2rdvn7xer9vx8BzK5bLm5+c1MjIiSerq6mLdPwAAAABA3fnKvXv37rkdAgAAAHhRHMfR3Nyczp07J8uyZBiGDh06pI6ODu3cuZPips45jqPV1VUtLCxoamqq+hoeOXJEnZ2dvH5wTS6X08LCgoaGhtyOAgAAAKAO8dcqAAAAmprH41E0GlU0GpVt25qdndX8/LyGh4clSX6/X6FQqLp9e3u7Xn75Zbdjt6Q7d+7o5s2b1dtLS0taW1uTJIXDYR06dEgHDhyQz+dzOyoAAAAAAI9FAQcAAICW4fP51N3dre7ubklSqVTSrVu3dPfuXUkbCyBsvwcL0O9+97t69dVXFQgE3I4FAAAAAMBToYADAABAywoEAhvKnUo5BwAAAAAA8KxecjsAAAAAAAAAAAAA0Ewo4AAAAAAAAAAAAIAaooADAAAAAAAAAAAAaogCDgAAAAAAAAAAAKghCjgAAAAAAAAAAACghijgAAAAAAAAAAAAgBqigAMAAAAAAAAAAABqiAIOAAAAAAAAAAAAqCEKOAAAAAAAAAAAAKCGKOAAAAAAAAAAAACAGqKAAwAAAAAAAAAAAGqIAg4AAAAAAAAAAACoIQo4AAAAAAAAAAAAoIYo4AAAAAAAAAAAAIAaooADAAAAAAAAAAAAaogCDgAAAAAAAAAAAKghCjgAAAAAAAAAAACghijgAAAAAAAAAAAAgBqigAMAAAAAAAAAAABqiAIOAAAAAAAAAAAAqCEKOAAAAAAAAAAAAKCGKOAAAAAAAAAAAACAGvK4HQAAAABwS6lU0q1bt3T37l23o2ATO3bs0KuvvqpAIOB2FAAAAAAAngoFHAAAAFqGbduanZ3V/Py8CoWCJMnv9ysUCrkdDZtYWlrS2tqaJCkcDmvfvn06cOCAfD6f29EAAAAAAHgsCjgAAAA0NcdxNDc3p3PnzsmyLBmGoUOHDimVSmnnzp3yeHhLXM8cx9Hq6qoWFhY0NTWl4eFhGYahI0eOqLOzk9cPAAAAAFCXvnLv3r17bocAAAAAas1xHE1MTGhyclKSNDAwoH379snr9bodDc+hXC5rfn5eIyMjkqSuri719PRQxGHb5XI5LSwsaGhoyO0oAAAAAOoQf6UCAACg6SwuLurkyZPy+Xz62c9+pt27d1PQNAmv16toNKrOzk4tLy/ro48+0uTkpD788ENFIhG34wEAAAAAIIkCDgAAAE2kXC7rRz/6kQqFgtLpNFMUNjGPx6NgMKjz589rbm5O/f39CofD+vnPf84oRwAAAACA615yOwAAAABQC5Zl6a233pIkXb58WdFolPKtBXg8HkWjUV2+fFmS9NZbb8myLLdjAQAAAABaHAUcAAAAGt6FCxcUj8fV1dWlU6dOyefzuR0J28zn8+nUqVPq6upSPB7XhQsX3I4EAAAAAGhhfCUYAAAADe3MmTPKZDIaHx9XMBh0Ow5c5PF41Nvbq9dff12JREJ//OMf1dvb63YsAAAAAEALooADAABAw6J8w2aCwaDGx8eVSCQkiRIOAAAAALDtKOAAAADQkCrl28zMjAKBgNtxUGeCwaBmZmYUi8UkUcIBAAAAALYXa8ABAACg4SwuLlZHvlG+4VECgYDGx8eVyWS0uLjodhwAAAAAQAuhgAMAAEBDsSxL/f39TDuJLalMR9nf3y/LstyOAwAAAABoERRwAAAAaBjlcll9fX1KJpOUb9iyYDCoZDKpvr4+lctlt+MAAAAAAFoABRwAAAAaRjqdVltbm3p6etyOggbT09OjtrY2pdNpt6MAAAAAAFoABRwAAAAaQi6XUz6f19DQkDwej9tx0GA8Ho+GhoaUz+eVy+XcjgMAAAAAaHIUcAAAAKh7juNoZGRE6XRaPp/P7ThoUD6fT+l0WiMjI3Icx+04AAAAAIAmRgEHAACAujcxMSGfz6fOzk63o6DBdXZ2yufzaWJiwu0oAAAAAIAmRgEHAACAulYqlZTJZJROp5l6Es/N4/EonU4rk8moVCq5HQcAAAAA0KQo4AAAAFDXxsbGZJqmDMNwOwqahGEYMk1TY2NjbkcBAAAAADQpCjgAAADULdu2lc/n1dfX53YUNJm+vj7l83nZtu12FAAAAABAE6KAAwAAQN2anJyUaZoKBAJuR0GTCQQCMk1Tk5OTbkdpOLlcTrlcrmbbAQAAAEAz+sq9e/fuuR0CAAAAeJjjONq7d6/Gx8cVDAbdjoMmVCwWlUgkdPXq1bpdXzCXyymVSq27zzRNSVJHR4c6Ozu3PXsoFJIkLS0t1WS7RpXL5bSwsKChoSG3owAAAACoQ/X5VyYAAABa3tWrV+X3+ynf8MIEg0H5/X5dvXpVkUjE7TiPFQ6H5fP5qrdXVlaUz+c1MjKisbGxbV0jcWZmxu3TAQAAAAB1jwIOAAAAdemTTz7R0aNH3Y6BJnf06FF98skndV/ApVKpDVOxVkbHTUxMPNUorHK5LEnyer3PlOVRU8I6jqM//elPWzru82YAAAAAgHrHGnAAAACoO7Zty7IsHThwwO0oaHIHDhyQZVmybdvtKE8tGo3K7/crn89XC63BwUGFQiEtLi7KNM3qNJCSZFmWPv74Y3V0dKijo0Mff/yxLMuq/ryyveM46x7HcRyFQqHq1JehUGjdcR3HUS6X08GDB9XR0aELFy5sOMajMoRCoQ3rxJVKperzME1Tg4ODGhwcbMjXCAAAAEDrooADAABA3bl27ZoMw1g35R7wIvh8PhmGoWvXrrkdpaZOnjwpn8+neDwuSTpz5ozi8biy2aySyaTS6bQuX76seDxeLcC6urokScvLy+uOVbld+fnDfvKTn1TXqRsdHdXNmzd18ODBDdvlcjnF43FdvnxZ6XRa4+Pj8vv9SqVS60q4np4e5fN5pdNpTUxMqL29Xfl8XoODg26fVgAAAADYMgo4AAAA1J2ZmRkdOnTI7RhoEYcOHWrIdc1yuZzW1tYUDoc3TOXY1dWlbDar999/X47jKJPJSJIWFhbU29uraDSqS5cuSfrLmm6V0mxubm7dsSq3NyvgyuWy8vm8wuGwLl26pEgkoqGhIQ0MDGzYdmZmRn6/X9lsVtFoVMFgsJphZGRE0v3Rb2trazJNU9FoVIFAQN3d3cpms4rFYtWRfgAAAABQ71gDDgAAAHXFcRwVCgW99957bkdBi9izZ4+Gh4flOI48nvr8EymdTq8bEbqysiLLsuT3+zf9XXlwBNrq6qokbSjqPB6PTNNUPp+X4zgKBAIyDEPZbFb9/f3yeDxyHEfZbPaRI1Ir00L6fL515669vX3ddpXfa9M0VS6X1xVp4XBYhUJBtm1XM+Tzee3atUtdXV3VUYqGYbj9Mqxz584dtyMAAAAAqGP1+dclAAAAWtbt27clqe4+bEfzqlxrt2/frtvrrlAorMvb1tamI0eOaN++fRtGv0lSIBDYcN9rr7224b5du3ate+6HDh3S8PCwlpeXFQwGq9NPHj9+fNNct27dkiR1dHQ89vErx8nn88rn85seq1wuy+fzKZ1Oq6+vT5lMRplMRn6/X0ePHlUsFtv0ubrl5s2bG4pGAAAAAKiggAMAAEBdsSxL4XDY7RhoMeFwWJZl1W0BNzMzs2mpthWV0mqzEVuV+772ta9JkmKxmIaHhzU3N6dgMKiLFy9Kuj9KcDOvvPLKpsd+eKrIHTt2SJJM01RfX9+mx9q5c6ckVUfAWZalGzduaGpqSsPDw5qfn9fp06e3+cw/Wj6fV09Pj9sxAAAAANQp1oADAABAXVlYWNh0pE6jyeVyyuVyz70Ntsdrr72mhYUFt2O8ED6fT36/X0tLSxt+VhnBVuH1ehUOh5XNZmXbtvL5vOLx+CNHnn3zm9+UdH802IO++OKLdbcrBd/KyooCgcCm/3t4+k/DMNTd3a3z58/LMAwVCgWVSiW3T6ekv0y9WXn+AAAAAPAwCjgAAADUlaWlJb3++uvPdYxcLqdQKPTID+tLpZJCoZAGBwdf2PNIpVJKpVLV247jbMjz8DZPY3BwUKFQaN3/BgcHNTg4qFwuJ8dxXthzqyebnddn8frrr29aUDWL/fv3y7IsFYvF6n3FYlGFQkGGYawbXff2229LUvX3o7Oz85HH9Xq9MgxDS0tLsixL0v3RbxMTE+u227lzpwzDkGVZ1e2k+7+rpmnqzJkzkqTFxUWFQqF1OT0ej9ra2tw+hev89re/ld/vr6spMQEAAADUF6agBAAAQF1ZW1urTkXXTJaXl5VIJGpe8oTDYfl8vurtpaUl5fN5jYyMaGJi4pmnLWwUV69eVX9//3Of1507d2ptbc3tp/PCvPXWW7p8+bISiUR1mk3LsuT3+5VOp9dtu3fvXkn3153z+/0KBoOPPfaRI0eUSqUUj8cVDoer+z3I4/FU13aLx+PrMkiqlu579+6VYRhKJBIyTVPt7e26efOm8vm8TNOsm+v5l7/8pfbv3+92DAAAAAB1jAIOAAAAdaMyksntAs5xHH355Zfriq3NVNa52soomOvXrz9xm3K5rL/6q7/aMBXf46RSqQ2lRC6XUyqV0i9/+Uu9//77z5W7Vsrl8hMf71me/9WrV2uSr3LNlUqluil5pPtrrJmmueXXqr29fdP7K+uqFYtFffbZZ/L5fPrggw82Ldc8Ho9OnDihmzdvqqOjY8PPTdNcdzsajWrfvn06f/68rly5omQyqa6uLk1OTur27dubZrh48aJWVlaUTCb1ne98p1rIeTweffrpp7p27ZoWFhY0PDws0zQ1Ojr6yHXotlsul1OhUNDQ0JDbUQAAAADUsa/cu3fvntshAAAAAOl++RGLxZ57NFOlgJqZmdm0TKk8jmma6z5EL5VKunTpkjKZTPW+EydOqLu7e93+Z86c0ZUrV6qjd8LhsGKxmKLRaHWbUCgk6f6ItMq/KyqPW7n/6tWrmpubUyqVkt/v19GjR/W9733vsUXU4OCg8vn8ps/RcZzqKKarV69Wj/Pxxx/r8uXL1ZFe4XBYb7/9tiKRyLpzMDY2pnw+L7/fX834/vvvVwvJrWwTCoVkmqZ++tOfamJiQplMRoZhbFr6WJal6elpZbNZSdpQyjx4vI6ODo2MjCgUCimfz296Xp9VKBR65DXzJI7jaHl5WXNzc5uWnmgOtm1r//79SqfT637fAQAAAOBhrAEHAACAunHz5k2Fw2FXHntxcVGxWEyTk5NKp9MaHx+XYRgaHh7WhQsXqtsVi0VlMhm1tbVpfHxc6XRa//Ef/6FUKlUdWfawdDpdLZPS6bQOHz687ufvvPOOlpeXNTo6qra2Ng0PD9dsZNeDzy+bzSoUClVzr6ysqL+/f13u9957T/l8Xul0WhMTE+ro6FA+n1+3Xt5WtpHul48HDx7U7du3deLECdm2rUQioY8//ri6zZkzZxSPx3X58mWl02ml02lNTk4qHo8rl8utO97KyopSqZTa2trU0dHxxPP6tMLhsG7evPlU+xSLRX300Ufau3evEolEtURE83EcR4ODgzJNk/INAAAAwBMxBSUAAADqypOmfXwa6XR60+PZtr3hvqtXr8rv9yubzVb3OX/+vA4ePKizZ89WR6TNzc3JNE2lUqnqtICvvPKKEomEZmZmNoyWk+5P0bewsCDLsjb94P748ePVUWh79uxRR0eHfvnLX64bmbZVjuNobm5OkhSPx6uj365evboh944dO9Tf36/5+XlFo1GVSiVZlqVwOFzNGQgEZBiGLMtSuVyWbdtP3KZy/LW1NY2Ojlafx/e+9z0dPHiwOsKxXC5XRxteunSpmrWzs1N79+7VwsLCuvNlWdaGEYmPO69Pa6vXnmVZmp2d1cWLF/Xll18+9+Oi/tm2rcHBQa2srGh6etrtOAAAAAAaAAUcAAAAmlahUNjyttlsVuFwWOVyed2IsMpUh6urqwoEAuumF6wUUnfv3pV0fwTfZgXckzy4tlWlvNpq9odLxqWlJa2trcnv9+vtt9+u3r9Z7opK0VUp0gqFgs6cOaOuri75fD4ZhlEdaeb1ep+4zYO+/e1vV//t8Xiq5/PBDKZprptu0+PxKBwOK5/Pb5hSMhaLPfX5rQXbtvV//+//1YULF/THP/7RlQxwx+Liovr7+2Wapqanp7d17UQAAAAAjYsCDgAAAE3rSWvAPXhbul96PangKZVKeu+996rrv9XC83yg/2BRZxiGQqGQOjo61NnZua7U2mrudDqtVCqlTCajTCZTXZMuFotVc25lm4qHR5Xt2rVL0v1Ca3V1VZLU3t6+Icdrr72mQqGgUqm07jXczvLDtm3lcjlduHBBf/jDH7btceG+UqmkW7du6Ve/+lV1ulWmnQQAAADwNCjgAAAAUDfu3Lnj6uOHw2GlUqlNf7Zz505JfxmBVdnW5/Ppiy++UDwedyXzo0rGBzmOU81tmqb6+voemdswDGWzWVmWpRs3bmhqakrDw8Oampqqrm+2lW0e5cHXuHJONxtRdvv2bVfO57//+79rcXFRv/jFL/Sv//qvz3SMh9euQ2O4c+eObt68qXw+L+kvhfbly5drOjUuAAAAgNZAAQcAAICWVxlVtbKy8tgyqzJSzu/369SpU9URZjdu3HD7KTxWpcwyDEM//elPq7l//etfP3KfypSS3/ve9/TOO+/IsqwNo9G2ss3DtyvTTlbu8/v9+vzzzzc8/srKiivnynEc3b17V1//+tef+RgLCwuuZMfza29vV09Pj775zW8y1SQAAACA50IBBwAAgLrx8ssvu/K4lTXMLMvS4uKiIpGIpPtrP508eVKhUEhDQ0PrPpD/8ssv5fP5VCqVNDU1Jen++mu2bT92tMzDhdR2+NrXvibpfvn1YO4rV66sy/0v//IvSiQSGh8fVzAYlPSXddsqU1cWi8UnbvOgS5cuqaenRx6PR6VSSfl8XuFwuPrz/fv3K5vNqlgsVo9XLBZlWZYMw9jyuSqXyzUpTP7mb/5G0WhU0WhUjuNoeXlZv/nNbzQ7O6s//OEP+upXv6o///nPjz3Gw+vWAQAAAABaDwUcAAAAoL+sa9bf3y/DMPSNb3yjur7a4cOHJd0v6sLhsAqFguLxuNra2lQoFJRMJtXW1qZ8Pq94PK7p6ekNxz98+LDy+bzee+89tbW1bWtJEwgEqgVjPB6Xz+eTZVkbcl+6dEnhcFiJREKmaaq9vb06JZ9pmgoEAtq5c+cTt6kwDEO3b9/WwYMHq+fK7/frBz/4QXWbt956S5cvX1YikVA4HNZ//Md/yLIs+f1+pdPpJz637373u8rn8+rp6an5efV4PAoGgwoGgzp27Jhs29Zvf/tb/b//9//0T//0T9v2+gEAAAAAGg8FHAAAAJrOK6+8ItM0Hzkiyuv1VsujigfXNZuYmNDKyoqSyaRef/316sgsSfr5z3+umZkZTU1N6dVXX9Xbb7+tSCQi27arZdR//ud/yjTNdY8ZDAaVTCbXrW328DZPuv9BlexbHfX16aefanZ2VmfPnlUoFNLx48c35PZ4PBoaGtK1a9e0sLCg4eFhmaapdDqtffv2SdKWtqmoFGKWZSmVSimZTFZHwz143vP5vIrFoj777DO1tbXpgw8+WHfOH3dOIpGI4vF4dWrLF8nn8ykSiSgSichxHN2+fVvXr1/XhQsX9Ic//OGFPz4AAAAAoHF85d69e/fcDgEAAABIUi6X08zMjE6fPu12FDynUCgk0zQbajrGY8eOKRaLKRqNPvW+5XJZN27c0G9+8xv9n//zf9x+KgAAAAAAl1HAAQAAoG6USiXFYjEtLS25HQXPKRQKSVJDvZahUEgzMzPbvkYfAAAAAKD5vOR2AAAAAOBhjuO4HQEthmsOAAAAAFBLrAEHAACAulEZebS6usoopAaXTqfdjvBUVldXJYnrDgAAAABQExRwAAAAqCt+v58Crgk8yzpqblpdXZXf73c7BgAAAACgSTAFJQAAAOpKKBTS9evX3Y6BFnP9+vXqunUAAAAAADwvCjgAAADUlY6ODn3++edux0CL+fzzz9XR0eF2DAAAAABAk6CAAwAAQF0xDEOFQsHtGGgxhUJBhmG4HQMAAAAA0CQo4AAAAFBXdu3aJUmyLMvtKGgRlWutcu0BAAAAAPC8KOAAAABQVzwej8LhsG7cuOF2FLSIGzduKBwOy+PxuB0FAAAAANAkKOAAAABQd2KxmKamptyOgRYxNTWlWCzmdgwAAAAAQBOhgAMAAEDdeeONN2RZlmzbdjsKmpxt27IsS2+88YbbUQAAAAAATYQCDgAAAHXH5/PJMAzNzs66HQVNbnZ2VoZhyOfzuR0FAAAAANBEKOAAAABQl44fP66zZ8+6HQNN7uzZszp+/LjbMQAAAAAATYYCDgAAAHVp7969WltbU7FYdDsKmlSxWNTa2pr27t3rdhQAAAAAQJOhgAMAAEBd8ng8SiaTunjxottR0KQuXryoZDIpj8fjdhQAAAAAQJOhgAMAAEDd6urqUj6fV6lUcjsKmkypVFI+n1dXV5fbUQAAAAAATYgCDgAAAHXL5/PJNE2NjY25HQVNZmxsTKZpyufzuR0FAAAAANCEKOAAAABQ1/r6+pTP52VZlttR0CQsy1I+n1dfX5/bUQAAAAAATYoCDgAAAHUtEAgomUwqlUrJcRy346DBOY6jVCqlZDKpQCDgdhwAAAAAQJOigAMAAEDd6+npkW3bmpubczsKGtzc3Jxs21ZPT4/bUQAAAAAATYwCDgAAAHXP4/FoYGBAqVRKtm27HQcNyrZtpVIpDQwMyOPxuB0HAAAAANDEvnLv3r17bocAAAAAtmJwcFC2bevUqVMUKHgqjuPo3Xfflc/n09DQkNtxAAAAAABNjhFwAAAAaBipVEorKyuamJhwOwoazMTEhFZWVpRKpdyOAgAAAABoARRwAAAAaBher1djY2PKZDIqFotux0GDKBaLymQyGhsbk9frdTsOAAAAAKAFUMABAACgoRiGodHRUSUSCUo4PFGxWFQikdDo6KgMw3A7DgAAAACgRVDAAQAAoOFEIhElk0klEgmVSiW346BOlUolJRIJJZNJRSIRt+MAAAAAAFoIBRwAAAAaUm9vr5LJpGKxGCPhsEGxWFQsFlMymVRvb6/bcQAAAAAALcbjdgAAAADgWVWKlUQiofHxcQWDQbcjoQ5Upp2kfAMAAAAAuOUr9+7du+d2CAAAAOB5XLhwQcPDw0omk+rp6ZHHw/fMWpHjOJqYmFAmk9GJEyfU3d3tdiQAAAAAQIuigAMAAEBTsCxLfX19amtr09DQkHw+n9uRsI1s29bg4KBWVlY0NjYmwzDcjgQAAAAAaGGsAQcAAICmYBiGpqenJUn79+9XLpeT4zhux8IL5jiOcrmc9u/fL0manp6mfAMAAAAAuI4RcAAAAGg6i4uLOnnypHw+nz744APt3r2baSmbjOM4Wl5e1kcffSTbtvXhhx8qEom4HQsAAAAAAEkUcAAAAGhSlfXAJicnJUkDAwPat2+fvF6v29HwHMrlsubn5zUyMiJJ6urqYt0/AAAAAEDdoYADAABAU3McR3Nzczp37pwsy5JhGDp06JA6Ojq0c+dOips65ziOVldXtbCwoKmpqepreOTIEXV2dvL6AQAAAADqEgUcAAAAWoZt25qdndX8/LwKhYIkye/3KxQKVbdpb2/Xyy+/7HbUlnTnzh3dvHmzentpaUlra2uSpHA4rH379unAgQPy+XxuRwUAAAAA4LEo4AAAANCySqWSbt26pbt370raWABh+z1YgO7YsUOvvvqqAoGA27EAAAAAAHgqFHAAAAAAAAAAAABADb3kdgAAAAAAAAAAAACgmVDAAQAAAAAAAAAAADVEAQcAAAAAAAAAAADUEAUcAAAAAAAAAAAAUEMUcAAAAAAAAAAAAEANUcABAAAAAAAAAAAANUQBBwAAAAAAAAAAANQQBRwAAAAAAAAAAABQQxRwAAAAAAAAAAAAQA1RwAEAAAAAAAAAAAA1RAEHAAAAAAAAAAAA1BAFHAAAAAAAAAAAAFBDFHAAAAAAAAAAAABADVHAAQAAAAAAAAAAADVEAQcAAAAAAAAAAADUEAUcAAAAAAAAAAAAUEMUcAAAAAAAAAAAAEANUcABAAAAAAAAAAAANUQBBwAAAAAAAAAAANQQBRwAAAAAAAAAAABQQxRwAAAAAAAAAAAAQA1RwAEAAAAAAAAAAAA1RAEHAAAAAAAAAAAA1BAFHAAAAAAAAAAAAFBDFHAAAAAAAAAAAABADVHAAQAAAAAAAAAAADVEAQcAAAAAAAAAAADUEAUcAAAAAAAAAAAAUEMUcAAAAAAAAAAAAEANUcABAAAAAAAAAAAANUQBBwAAAAAAAAAAANQQBRwAAAAAAAAAAABQQxRwAAAAAAAAAAAAQA1RwAEAAAAAAAAAAAA1RAEHAAAAAAAAAAAA1BAFHAAAAAAAAAAAAFBDFHAAAAAAAAAAAABADVHAAQAAAAAAAAAAADX0/wGkYCggd64YJgAAACV0RVh0ZGF0ZTpjcmVhdGUAMjAyMi0wMi0xN1QwOTo0OTozMCswMDowMGnxz/YAAAAldEVYdGRhdGU6bW9kaWZ5ADIwMjItMDItMTdUMDk6NDk6MzArMDA6MDAYrHdKAAAAAElFTkSuQmCC;" vertex="1" parent="1">
          <mxGeometry y="-5" width="1760" height="1360" as="geometry" />
        </mxCell>
        <mxCell id="0snvxb2lFq1mI06aFBgq-2" value="Integration with AI/ML" style="text;html=1;strokeColor=none;fillColor=none;align=center;verticalAlign=middle;whiteSpace=wrap;rounded=0;fontSize=15;" vertex="1" parent="1">
          <mxGeometry x="1480" y="660" width="120" height="30" as="geometry" />
        </mxCell>
        <mxCell id="0snvxb2lFq1mI06aFBgq-3" value="Providing CIA on public platform" style="text;html=1;strokeColor=none;fillColor=none;align=center;verticalAlign=middle;whiteSpace=wrap;rounded=0;fontSize=15;" vertex="1" parent="1">
          <mxGeometry x="1480" y="760" width="120" height="30" as="geometry" />
        </mxCell>
        <mxCell id="0snvxb2lFq1mI06aFBgq-4" value="Application of dynamic Processes in smart contracts" style="text;html=1;strokeColor=none;fillColor=none;align=center;verticalAlign=middle;whiteSpace=wrap;rounded=0;fontSize=15;" vertex="1" parent="1">
          <mxGeometry x="1480" y="880" width="120" height="40" as="geometry" />
        </mxCell>
        <mxCell id="0snvxb2lFq1mI06aFBgq-5" value="Knowledge in AI/ML and Hybrid computing in Blockchain" style="text;html=1;strokeColor=none;fillColor=none;align=center;verticalAlign=middle;whiteSpace=wrap;rounded=0;fontSize=15;" vertex="1" parent="1">
          <mxGeometry x="1470" y="1020" width="140" height="30" as="geometry" />
        </mxCell>
        <mxCell id="0snvxb2lFq1mI06aFBgq-11" value="" style="endArrow=classic;html=1;rounded=0;fontSize=15;" edge="1" parent="1">
          <mxGeometry width="50" height="50" relative="1" as="geometry">
            <mxPoint x="1380" y="670" as="sourcePoint" />
            <mxPoint x="1460" y="670.23" as="targetPoint" />
          </mxGeometry>
        </mxCell>
        <mxCell id="0snvxb2lFq1mI06aFBgq-12" value="" style="endArrow=classic;html=1;rounded=0;fontSize=15;" edge="1" parent="1">
          <mxGeometry width="50" height="50" relative="1" as="geometry">
            <mxPoint x="1380" y="774.38" as="sourcePoint" />
            <mxPoint x="1460" y="774.61" as="targetPoint" />
          </mxGeometry>
        </mxCell>
        <mxCell id="0snvxb2lFq1mI06aFBgq-13" value="" style="endArrow=classic;html=1;rounded=0;fontSize=15;" edge="1" parent="1">
          <mxGeometry width="50" height="50" relative="1" as="geometry">
            <mxPoint x="1380" y="899.38" as="sourcePoint" />
            <mxPoint x="1460" y="899.61" as="targetPoint" />
          </mxGeometry>
        </mxCell>
        <mxCell id="0snvxb2lFq1mI06aFBgq-14" value="" style="endArrow=classic;html=1;rounded=0;fontSize=15;" edge="1" parent="1">
          <mxGeometry width="50" height="50" relative="1" as="geometry">
            <mxPoint x="1380" y="1034.38" as="sourcePoint" />
            <mxPoint x="1460" y="1034.6100000000001" as="targetPoint" />
          </mxGeometry>
        </mxCell>
        <mxCell id="0snvxb2lFq1mI06aFBgq-15" value="" style="endArrow=none;html=1;rounded=0;fontSize=15;" edge="1" parent="1">
          <mxGeometry width="50" height="50" relative="1" as="geometry">
            <mxPoint x="1380" y="1030" as="sourcePoint" />
            <mxPoint x="1380" y="600" as="targetPoint" />
          </mxGeometry>
        </mxCell>
        <mxCell id="0snvxb2lFq1mI06aFBgq-16" value="Complexity in" style="text;html=1;strokeColor=none;fillColor=none;align=center;verticalAlign=middle;whiteSpace=wrap;rounded=0;fontSize=15;" vertex="1" parent="1">
          <mxGeometry x="1390" y="630" width="60" height="30" as="geometry" />
        </mxCell>
        <mxCell id="0snvxb2lFq1mI06aFBgq-19" value="Challenge in" style="text;html=1;strokeColor=none;fillColor=none;align=center;verticalAlign=middle;whiteSpace=wrap;rounded=0;fontSize=15;" vertex="1" parent="1">
          <mxGeometry x="1390" y="740" width="60" height="30" as="geometry" />
        </mxCell>
        <mxCell id="0snvxb2lFq1mI06aFBgq-21" value="Lack in" style="text;html=1;align=center;verticalAlign=middle;resizable=0;points=[];autosize=1;strokeColor=none;fillColor=none;fontSize=15;" vertex="1" parent="1">
          <mxGeometry x="1390" y="870" width="60" height="20" as="geometry" />
        </mxCell>
        <mxCell id="0snvxb2lFq1mI06aFBgq-23" value="Demand in" style="text;html=1;align=center;verticalAlign=middle;resizable=0;points=[];autosize=1;strokeColor=none;fillColor=none;fontSize=15;" vertex="1" parent="1">
          <mxGeometry x="1380" y="1000" width="90" height="20" as="geometry" />
        </mxCell>
      </root>
    </mxGraphModel>
  </diagram>
</mxfile>
